<svg xmlns="http://www.w3.org/2000/svg" version="1.1" style="font-family:Lato, &#x27;Helvetica Neue&#x27;, Helvetica, Arial, sans-serif;font-size:18px;background-color:white;text-rendering:geometricPrecision;-webkit-font-smoothing:antialiased" width="850" height="600" viewBox="0 0 850 600"><g class="HeaderView"><g transform="translate(774, 15) scale(0.29)"><svg className="owidLog" width="210" height="120" viewBox="0 0 210 120" fill="none" xmlns="http://www.w3.org/2000/svg">
<g clip-path="url(#clip0)">
  <path d="M0 0h210v107.89H0V0z" fill="#002147" />
  <path
    d="M40.98 32.25c0 2.36-.38 4.53-1.12 6.51a14.26 14.26 0 0 1-8.1 8.4c-1.9.78-4.02 1.17-6.34 1.17-2.31 0-4.42-.39-6.33-1.17a14.31 14.31 0 0 1-8.08-8.4 18.29 18.29 0 0 1-1.12-6.51c0-2.36.38-4.53 1.12-6.5.75-1.97 1.8-3.67 3.17-5.1a14.32 14.32 0 0 1 4.9-3.34c1.92-.8 4.03-1.19 6.34-1.19 2.32 0 4.43.4 6.34 1.19 1.92.8 3.56 1.9 4.93 3.34a14.87 14.87 0 0 1 3.17 5.1 18.1 18.1 0 0 1 1.12 6.5zm-4.38 0c0-1.94-.26-3.68-.8-5.22a10.91 10.91 0 0 0-2.24-3.89 9.68 9.68 0 0 0-3.52-2.46 11.95 11.95 0 0 0-4.62-.86c-1.68 0-3.21.28-4.6.86a9.88 9.88 0 0 0-3.54 2.46 10.91 10.91 0 0 0-2.24 3.9c-.53 1.53-.8 3.27-.8 5.2 0 1.94.27 3.68.8 5.22a11.17 11.17 0 0 0 2.24 3.9 10.01 10.01 0 0 0 3.55 2.44c1.38.56 2.9.83 4.6.83s3.24-.27 4.61-.83a9.8 9.8 0 0 0 3.52-2.44 11.17 11.17 0 0 0 2.25-3.9c.53-1.54.8-3.28.8-5.21zm26.22-6.54V48H60.5c-.56 0-.9-.27-1.05-.81l-.31-2.4a12.45 12.45 0 0 1-3.26 2.6c-1.2.64-2.58.96-4.13.96-1.22 0-2.3-.2-3.24-.6a6.52 6.52 0 0 1-2.33-1.7 7.37 7.37 0 0 1-1.43-2.67c-.3-1.04-.46-2.2-.46-3.45V25.7h3.91v14.22c0 1.68.38 2.99 1.15 3.91.77.93 1.96 1.39 3.54 1.39 1.16 0 2.24-.27 3.23-.82a10.42 10.42 0 0 0 2.8-2.28V25.7h3.91zm8.61 4.47a9.94 9.94 0 0 1 2.6-3.56 5.64 5.64 0 0 1 3.76-1.3c.47 0 .92.05 1.34.15.44.1.83.27 1.17.49l-.3 2.92c-.09.37-.3.55-.66.55-.2 0-.5-.04-.9-.13a6.21 6.21 0 0 0-3.24.18 4.23 4.23 0 0 0-1.47.92c-.42.4-.81.9-1.17 1.5-.33.58-.64 1.26-.92 2.02V48H67.7V25.71h2.25c.42 0 .72.08.88.25.16.16.27.44.33.83l.26 3.39zm61.16-13.7L122.75 48h-3.82l-7.99-24.05a21.95 21.95 0 0 1-.42-1.58 38.36 38.36 0 0 1-.44 1.58L102.05 48h-3.83L88.4 16.47h3.54c.38 0 .7.1.95.29.26.2.43.43.5.73l6.52 21.9.28 1.28.29 1.46.3-1.46.38-1.27 7.41-21.91c.1-.25.26-.48.51-.69.27-.22.58-.33.95-.33h1.23c.38 0 .69.1.92.29a1.77 1.77 0 0 1 .53.73l7.4 21.9a28.4 28.4 0 0 1 .68 2.62 29.52 29.52 0 0 1 .52-2.61l6.54-21.91a1.31 1.31 0 0 1 .48-.7c.27-.21.58-.32.95-.32h3.32zm9.35 8.88c1.63 0 3.1.27 4.4.82a9.43 9.43 0 0 1 5.46 5.94c.5 1.4.74 2.98.74 4.73 0 1.76-.25 3.34-.74 4.75a9.43 9.43 0 0 1-5.46 5.92c-1.3.52-2.77.79-4.4.79-1.64 0-3.12-.27-4.44-.8a9.42 9.42 0 0 1-3.35-2.3c-.92-1-1.63-2.2-2.13-3.61-.49-1.41-.73-3-.73-4.75s.24-3.33.73-4.73c.5-1.43 1.2-2.64 2.13-3.63.93-1 2.04-1.77 3.35-2.31 1.32-.55 2.8-.82 4.44-.82zm0 19.89c2.2 0 3.84-.73 4.93-2.2 1.08-1.48 1.63-3.54 1.63-6.18 0-2.66-.55-4.72-1.63-6.2-1.09-1.49-2.73-2.23-4.93-2.23-1.12 0-2.09.2-2.93.57a5.71 5.71 0 0 0-2.06 1.65c-.55.72-.96 1.61-1.24 2.67-.26 1.04-.4 2.22-.4 3.54 0 2.64.55 4.7 1.64 6.18 1.1 1.47 2.76 2.2 4.99 2.2zm17.97-15.07a9.94 9.94 0 0 1 2.6-3.56 5.64 5.64 0 0 1 3.76-1.3c.47 0 .91.05 1.34.15.44.1.83.27 1.16.49l-.28 2.92c-.09.37-.31.55-.66.55-.2 0-.5-.04-.9-.13a6.2 6.2 0 0 0-3.24.18 4.23 4.23 0 0 0-1.47.92c-.43.4-.82.9-1.17 1.5a13.1 13.1 0 0 0-.92 2.02V48h-3.94V25.71h2.24c.43 0 .72.08.88.25.17.16.28.44.33.83l.27 3.39zm15.04-14.59V48h-3.92V15.6h3.92zm19.55 15.43a6.22 6.22 0 0 0-2.38-2.05 6.7 6.7 0 0 0-2.86-.6c-2.07 0-3.66.75-4.77 2.23-1.12 1.48-1.68 3.6-1.68 6.33 0 1.46.13 2.7.38 3.74a7.29 7.29 0 0 0 1.1 2.56 4.35 4.35 0 0 0 1.78 1.45c.7.3 1.5.46 2.4.46 1.29 0 2.41-.3 3.36-.88a9.6 9.6 0 0 0 2.67-2.49V31.02zm3.91-15.43V48h-2.33c-.56 0-.9-.27-1.06-.81l-.35-2.71a12.13 12.13 0 0 1-3.25 2.77 8.28 8.28 0 0 1-4.23 1.06 7.31 7.31 0 0 1-6.14-2.9c-.73-.96-1.3-2.15-1.69-3.57a18.35 18.35 0 0 1 .07-9.48 11.29 11.29 0 0 1 1.89-3.7 8.7 8.7 0 0 1 7.06-3.34 7.96 7.96 0 0 1 6.12 2.62V15.59h3.91zM46.61 70.71V93H42.7V70.71h3.91zm.84-7c0 .39-.08.75-.24 1.09-.15.32-.35.61-.62.88-.25.25-.55.44-.9.59a2.67 2.67 0 0 1-2.16 0 2.9 2.9 0 0 1-1.45-1.47 2.67 2.67 0 0 1 0-2.16c.15-.35.35-.65.6-.9.25-.27.53-.47.85-.62a2.67 2.67 0 0 1 2.16 0c.35.15.65.35.9.62.27.25.47.55.62.9.16.34.24.7.24 1.08zm7.97 10.24c.49-.54 1-1.04 1.54-1.48a9.85 9.85 0 0 1 3.66-1.84 8.96 8.96 0 0 1 5.43.35c.94.4 1.72.97 2.33 1.71.63.74 1.11 1.62 1.43 2.67.32 1.04.49 2.19.49 3.45V93h-3.94V78.81c0-1.69-.4-3-1.17-3.92-.76-.93-1.93-1.4-3.5-1.4-1.15 0-2.24.27-3.25.83-1 .56-1.92 1.31-2.77 2.27V93h-3.94V70.71h2.35c.56 0 .9.28 1.04.82l.3 2.42zm57.7 3.3c0 2.36-.37 4.5-1.11 6.44a14.3 14.3 0 0 1-3.17 4.98c-1.37 1.37-3 2.45-4.93 3.2-1.9.76-4.02 1.13-6.33 1.13H85.8V61.47h11.77c2.31 0 4.42.39 6.33 1.15a13.8 13.8 0 0 1 8.1 8.18 17.75 17.75 0 0 1 1.12 6.45zm-4.37 0c0-1.94-.26-3.67-.8-5.2a10.94 10.94 0 0 0-2.23-3.87 9.57 9.57 0 0 0-3.53-2.42 12.23 12.23 0 0 0-4.61-.83h-7.5v24.62h7.5c1.7 0 3.24-.28 4.61-.84a9.7 9.7 0 0 0 3.53-2.4 10.94 10.94 0 0 0 2.24-3.87c.53-1.53.8-3.26.8-5.2zm19.8 5.72c-1.8.06-3.34.2-4.62.44-1.26.22-2.3.51-3.1.88-.8.36-1.37.8-1.74 1.3-.35.5-.53 1.05-.53 1.67 0 .58.1 1.1.3 1.52a3 3 0 0 0 .76 1.05c.34.27.73.46 1.17.6a6.13 6.13 0 0 0 1.45.17 7.28 7.28 0 0 0 3.5-.81 11.95 11.95 0 0 0 2.82-2.2v-4.62zm-12.65-9.11a12.73 12.73 0 0 1 3.98-2.66c1.43-.59 3-.88 4.73-.88 1.25 0 2.36.2 3.33.61a6.81 6.81 0 0 1 3.94 4.38c.33 1.04.5 2.19.5 3.43V93h-1.74a1.8 1.8 0 0 1-.88-.18c-.2-.13-.36-.38-.48-.74l-.44-2.12-1.72 1.46a9.48 9.48 0 0 1-3.74 1.7c-.69.15-1.46.23-2.3.23-.87 0-1.69-.12-2.45-.35a5.34 5.34 0 0 1-3.34-2.93 6.64 6.64 0 0 1-.49-2.64c0-.88.25-1.72.73-2.53a6.33 6.33 0 0 1 2.35-2.17c1.09-.63 2.5-1.15 4.25-1.54 1.75-.41 3.89-.65 6.42-.7v-1.75c0-1.73-.37-3.03-1.12-3.91-.75-.9-1.84-1.34-3.28-1.34-.97 0-1.78.12-2.44.37-.64.23-1.2.5-1.7.81l-1.23.82c-.33.23-.67.35-1 .35-.27 0-.5-.07-.69-.2a2.1 2.1 0 0 1-.48-.53l-.7-1.25zm27.67 19.5c-1.76 0-3.12-.5-4.07-1.48-.94-.98-1.41-2.4-1.41-4.25V74h-2.68a.9.9 0 0 1-.6-.2c-.16-.14-.24-.36-.24-.66v-1.56l3.65-.46.9-6.89c.05-.22.14-.4.29-.52a.88.88 0 0 1 .62-.22H142v7.67h6.44V74H142v13.38c0 .94.22 1.63.68 2.09.45.45 1.04.68 1.76.68a3.21 3.21 0 0 0 1.85-.53l.55-.35c.16-.12.3-.18.41-.18.2 0 .4.13.55.38l1.15 1.87a7.45 7.45 0 0 1-2.44 1.5 8.53 8.53 0 0 1-2.95.52zm19.68-10.4c-1.8.07-3.34.21-4.62.45-1.26.22-2.3.51-3.1.88-.8.36-1.37.8-1.74 1.3-.35.5-.53 1.05-.53 1.67 0 .58.1 1.1.3 1.52a2.9 2.9 0 0 0 .76 1.05c.34.27.73.46 1.17.6a6.13 6.13 0 0 0 1.45.17 7.3 7.3 0 0 0 3.5-.81 12.04 12.04 0 0 0 2.82-2.2v-4.62zm-12.65-9.1a12.72 12.72 0 0 1 3.99-2.66c1.42-.59 3-.88 4.72-.88 1.25 0 2.36.2 3.33.61a6.81 6.81 0 0 1 3.94 4.38c.33 1.04.5 2.19.5 3.43V93h-1.74a1.8 1.8 0 0 1-.88-.18c-.2-.13-.36-.38-.48-.74l-.44-2.12-1.72 1.46a9.48 9.48 0 0 1-3.74 1.7c-.69.15-1.46.23-2.3.23-.87 0-1.69-.12-2.45-.35a5.33 5.33 0 0 1-3.34-2.93 6.62 6.62 0 0 1-.49-2.64c0-.88.25-1.72.73-2.53a6.33 6.33 0 0 1 2.35-2.17c1.09-.63 2.5-1.15 4.25-1.54 1.74-.41 3.89-.65 6.42-.7v-1.75c0-1.73-.37-3.03-1.12-3.91-.75-.9-1.84-1.34-3.28-1.34-.97 0-1.78.12-2.44.37-.64.23-1.2.5-1.7.81l-1.22.82c-.34.23-.68.35-1.02.35-.26 0-.49-.07-.68-.2a1.88 1.88 0 0 1-.48-.53l-.7-1.25zM40.98 32.25c0 2.36-.38 4.53-1.12 6.51a14.26 14.26 0 0 1-8.1 8.4c-1.9.78-4.02 1.17-6.34 1.17-2.31 0-4.42-.39-6.33-1.17a14.31 14.31 0 0 1-8.08-8.4 18.29 18.29 0 0 1-1.12-6.51c0-2.36.38-4.53 1.12-6.5.75-1.97 1.8-3.67 3.17-5.1a14.32 14.32 0 0 1 4.9-3.34c1.92-.8 4.03-1.19 6.34-1.19 2.32 0 4.43.4 6.34 1.19 1.92.8 3.56 1.9 4.93 3.34a14.87 14.87 0 0 1 3.17 5.1 18.1 18.1 0 0 1 1.12 6.5zm-4.38 0c0-1.94-.26-3.68-.8-5.22a10.91 10.91 0 0 0-2.24-3.89 9.68 9.68 0 0 0-3.52-2.46 11.95 11.95 0 0 0-4.62-.86c-1.68 0-3.21.28-4.6.86a9.88 9.88 0 0 0-3.54 2.46 10.91 10.91 0 0 0-2.24 3.9c-.53 1.53-.8 3.27-.8 5.2 0 1.94.27 3.68.8 5.22a11.17 11.17 0 0 0 2.24 3.9 10.01 10.01 0 0 0 3.55 2.44c1.38.56 2.9.83 4.6.83s3.24-.27 4.61-.83a9.8 9.8 0 0 0 3.52-2.44 11.17 11.17 0 0 0 2.25-3.9c.53-1.54.8-3.28.8-5.21zm26.22-6.54V48H60.5c-.56 0-.9-.27-1.05-.81l-.31-2.4a12.45 12.45 0 0 1-3.26 2.6c-1.2.64-2.58.96-4.13.96-1.22 0-2.3-.2-3.24-.6a6.52 6.52 0 0 1-2.33-1.7 7.37 7.37 0 0 1-1.43-2.67c-.3-1.04-.46-2.2-.46-3.45V25.7h3.91v14.22c0 1.68.38 2.99 1.15 3.91.77.93 1.96 1.39 3.54 1.39 1.16 0 2.24-.27 3.23-.82a10.42 10.42 0 0 0 2.8-2.28V25.7h3.91zm8.61 4.47a9.94 9.94 0 0 1 2.6-3.56 5.64 5.64 0 0 1 3.76-1.3c.47 0 .92.05 1.34.15.44.1.83.27 1.17.49l-.3 2.92c-.09.37-.3.55-.66.55-.2 0-.5-.04-.9-.13a6.21 6.21 0 0 0-3.24.18 4.23 4.23 0 0 0-1.47.92c-.42.4-.81.9-1.17 1.5-.33.58-.64 1.26-.92 2.02V48H67.7V25.71h2.25c.42 0 .72.08.88.25.16.16.27.44.33.83l.26 3.39zm61.16-13.7L122.75 48h-3.82l-7.99-24.05a21.95 21.95 0 0 1-.42-1.58 38.36 38.36 0 0 1-.44 1.58L102.05 48h-3.83L88.4 16.47h3.54c.38 0 .7.1.95.29.26.2.43.43.5.73l6.52 21.9.28 1.28.29 1.46.3-1.46.38-1.27 7.41-21.91c.1-.25.26-.48.51-.69.27-.22.58-.33.95-.33h1.23c.38 0 .69.1.92.29a1.77 1.77 0 0 1 .53.73l7.4 21.9a28.4 28.4 0 0 1 .68 2.62 29.52 29.52 0 0 1 .52-2.61l6.54-21.91a1.31 1.31 0 0 1 .48-.7c.27-.21.58-.32.95-.32h3.32zm9.35 8.88c1.63 0 3.1.27 4.4.82a9.43 9.43 0 0 1 5.46 5.94c.5 1.4.74 2.98.74 4.73 0 1.76-.25 3.34-.74 4.75a9.43 9.43 0 0 1-5.46 5.92c-1.3.52-2.77.79-4.4.79-1.64 0-3.12-.27-4.44-.8a9.42 9.42 0 0 1-3.35-2.3c-.92-1-1.63-2.2-2.13-3.61-.49-1.41-.73-3-.73-4.75s.24-3.33.73-4.73c.5-1.43 1.2-2.64 2.13-3.63.93-1 2.04-1.77 3.35-2.31 1.32-.55 2.8-.82 4.44-.82zm0 19.89c2.2 0 3.84-.73 4.93-2.2 1.08-1.48 1.63-3.54 1.63-6.18 0-2.66-.55-4.72-1.63-6.2-1.09-1.49-2.73-2.23-4.93-2.23-1.12 0-2.09.2-2.93.57a5.71 5.71 0 0 0-2.06 1.65c-.55.72-.96 1.61-1.24 2.67-.26 1.04-.4 2.22-.4 3.54 0 2.64.55 4.7 1.64 6.18 1.1 1.47 2.76 2.2 4.99 2.2zm17.97-15.07a9.94 9.94 0 0 1 2.6-3.56 5.64 5.64 0 0 1 3.76-1.3c.47 0 .91.05 1.34.15.44.1.83.27 1.16.49l-.28 2.92c-.09.37-.31.55-.66.55-.2 0-.5-.04-.9-.13a6.2 6.2 0 0 0-3.24.18 4.23 4.23 0 0 0-1.47.92c-.43.4-.82.9-1.17 1.5a13.1 13.1 0 0 0-.92 2.02V48h-3.94V25.71h2.24c.43 0 .72.08.88.25.17.16.28.44.33.83l.27 3.39zm15.04-14.59V48h-3.92V15.6h3.92zm19.55 15.43a6.22 6.22 0 0 0-2.38-2.05 6.7 6.7 0 0 0-2.86-.6c-2.07 0-3.66.75-4.77 2.23-1.12 1.48-1.68 3.6-1.68 6.33 0 1.46.13 2.7.38 3.74a7.29 7.29 0 0 0 1.1 2.56 4.35 4.35 0 0 0 1.78 1.45c.7.3 1.5.46 2.4.46 1.29 0 2.41-.3 3.36-.88a9.6 9.6 0 0 0 2.67-2.49V31.02zm3.91-15.43V48h-2.33c-.56 0-.9-.27-1.06-.81l-.35-2.71a12.13 12.13 0 0 1-3.25 2.77 8.28 8.28 0 0 1-4.23 1.06 7.31 7.31 0 0 1-6.14-2.9c-.73-.96-1.3-2.15-1.69-3.57a18.35 18.35 0 0 1 .07-9.48 11.29 11.29 0 0 1 1.89-3.7 8.7 8.7 0 0 1 7.06-3.34 7.96 7.96 0 0 1 6.12 2.62V15.59h3.91zM46.61 70.71V93H42.7V70.71h3.91zm.84-7c0 .39-.08.75-.24 1.09-.15.32-.35.61-.62.88-.25.25-.55.44-.9.59a2.67 2.67 0 0 1-2.16 0 2.9 2.9 0 0 1-1.45-1.47 2.67 2.67 0 0 1 0-2.16c.15-.35.35-.65.6-.9.25-.27.53-.47.85-.62a2.67 2.67 0 0 1 2.16 0c.35.15.65.35.9.62.27.25.47.55.62.9.16.34.24.7.24 1.08zm7.97 10.24c.49-.54 1-1.04 1.54-1.48a9.85 9.85 0 0 1 3.66-1.84 8.96 8.96 0 0 1 5.43.35c.94.4 1.72.97 2.33 1.71.63.74 1.11 1.62 1.43 2.67.32 1.04.49 2.19.49 3.45V93h-3.94V78.81c0-1.69-.4-3-1.17-3.92-.76-.93-1.93-1.4-3.5-1.4-1.15 0-2.24.27-3.25.83-1 .56-1.92 1.31-2.77 2.27V93h-3.94V70.71h2.35c.56 0 .9.28 1.04.82l.3 2.42zm57.7 3.3c0 2.36-.37 4.5-1.11 6.44a14.3 14.3 0 0 1-3.17 4.98c-1.37 1.37-3 2.45-4.93 3.2-1.9.76-4.02 1.13-6.33 1.13H85.8V61.47h11.77c2.31 0 4.42.39 6.33 1.15a13.8 13.8 0 0 1 8.1 8.18 17.75 17.75 0 0 1 1.12 6.45zm-4.37 0c0-1.94-.26-3.67-.8-5.2a10.94 10.94 0 0 0-2.23-3.87 9.57 9.57 0 0 0-3.53-2.42 12.23 12.23 0 0 0-4.61-.83h-7.5v24.62h7.5c1.7 0 3.24-.28 4.61-.84a9.7 9.7 0 0 0 3.53-2.4 10.94 10.94 0 0 0 2.24-3.87c.53-1.53.8-3.26.8-5.2zm19.8 5.72c-1.8.06-3.34.2-4.62.44-1.26.22-2.3.51-3.1.88-.8.36-1.37.8-1.74 1.3-.35.5-.53 1.05-.53 1.67 0 .58.1 1.1.3 1.52a3 3 0 0 0 .76 1.05c.34.27.73.46 1.17.6a6.13 6.13 0 0 0 1.45.17 7.28 7.28 0 0 0 3.5-.81 11.95 11.95 0 0 0 2.82-2.2v-4.62zm-12.65-9.11a12.73 12.73 0 0 1 3.98-2.66c1.43-.59 3-.88 4.73-.88 1.25 0 2.36.2 3.33.61a6.81 6.81 0 0 1 3.94 4.38c.33 1.04.5 2.19.5 3.43V93h-1.74a1.8 1.8 0 0 1-.88-.18c-.2-.13-.36-.38-.48-.74l-.44-2.12-1.72 1.46a9.48 9.48 0 0 1-3.74 1.7c-.69.15-1.46.23-2.3.23-.87 0-1.69-.12-2.45-.35a5.34 5.34 0 0 1-3.34-2.93 6.64 6.64 0 0 1-.49-2.64c0-.88.25-1.72.73-2.53a6.33 6.33 0 0 1 2.35-2.17c1.09-.63 2.5-1.15 4.25-1.54 1.75-.41 3.89-.65 6.42-.7v-1.75c0-1.73-.37-3.03-1.12-3.91-.75-.9-1.84-1.34-3.28-1.34-.97 0-1.78.12-2.44.37-.64.23-1.2.5-1.7.81l-1.23.82c-.33.23-.67.35-1 .35-.27 0-.5-.07-.69-.2a2.1 2.1 0 0 1-.48-.53l-.7-1.25zm27.67 19.5c-1.76 0-3.12-.5-4.07-1.48-.94-.98-1.41-2.4-1.41-4.25V74h-2.68a.9.9 0 0 1-.6-.2c-.16-.14-.24-.36-.24-.66v-1.56l3.65-.46.9-6.89c.05-.22.14-.4.29-.52a.88.88 0 0 1 .62-.22H142v7.67h6.44V74H142v13.38c0 .94.22 1.63.68 2.09.45.45 1.04.68 1.76.68a3.21 3.21 0 0 0 1.85-.53l.55-.35c.16-.12.3-.18.41-.18.2 0 .4.13.55.38l1.15 1.87a7.45 7.45 0 0 1-2.44 1.5 8.53 8.53 0 0 1-2.95.52zm19.68-10.4c-1.8.07-3.34.21-4.62.45-1.26.22-2.3.51-3.1.88-.8.36-1.37.8-1.74 1.3-.35.5-.53 1.05-.53 1.67 0 .58.1 1.1.3 1.52a2.9 2.9 0 0 0 .76 1.05c.34.27.73.46 1.17.6a6.13 6.13 0 0 0 1.45.17 7.3 7.3 0 0 0 3.5-.81 12.04 12.04 0 0 0 2.82-2.2v-4.62zm-12.65-9.1a12.72 12.72 0 0 1 3.99-2.66c1.42-.59 3-.88 4.72-.88 1.25 0 2.36.2 3.33.61a6.81 6.81 0 0 1 3.94 4.38c.33 1.04.5 2.19.5 3.43V93h-1.74a1.8 1.8 0 0 1-.88-.18c-.2-.13-.36-.38-.48-.74l-.44-2.12-1.72 1.46a9.48 9.48 0 0 1-3.74 1.7c-.69.15-1.46.23-2.3.23-.87 0-1.69-.12-2.45-.35a5.33 5.33 0 0 1-3.34-2.93 6.62 6.62 0 0 1-.49-2.64c0-.88.25-1.72.73-2.53a6.33 6.33 0 0 1 2.35-2.17c1.09-.63 2.5-1.15 4.25-1.54 1.74-.41 3.89-.65 6.42-.7v-1.75c0-1.73-.37-3.03-1.12-3.91-.75-.9-1.84-1.34-3.28-1.34-.97 0-1.78.12-2.44.37-.64.23-1.2.5-1.7.81l-1.22.82c-.34.23-.68.35-1.02.35-.26 0-.49-.07-.68-.2a1.88 1.88 0 0 1-.48-.53l-.7-1.25zM40.98 32.25c0 2.36-.38 4.53-1.12 6.51a14.26 14.26 0 0 1-8.1 8.4c-1.9.78-4.02 1.17-6.34 1.17-2.31 0-4.42-.39-6.33-1.17a14.31 14.31 0 0 1-8.08-8.4 18.29 18.29 0 0 1-1.12-6.51c0-2.36.38-4.53 1.12-6.5.75-1.97 1.8-3.67 3.17-5.1a14.32 14.32 0 0 1 4.9-3.34c1.92-.8 4.03-1.19 6.34-1.19 2.32 0 4.43.4 6.34 1.19 1.92.8 3.56 1.9 4.93 3.34a14.87 14.87 0 0 1 3.17 5.1 18.1 18.1 0 0 1 1.12 6.5zm-4.38 0c0-1.94-.26-3.68-.8-5.22a10.91 10.91 0 0 0-2.24-3.89 9.68 9.68 0 0 0-3.52-2.46 11.95 11.95 0 0 0-4.62-.86c-1.68 0-3.21.28-4.6.86a9.88 9.88 0 0 0-3.54 2.46 10.91 10.91 0 0 0-2.24 3.9c-.53 1.53-.8 3.27-.8 5.2 0 1.94.27 3.68.8 5.22a11.17 11.17 0 0 0 2.24 3.9 10.01 10.01 0 0 0 3.55 2.44c1.38.56 2.9.83 4.6.83s3.24-.27 4.61-.83a9.8 9.8 0 0 0 3.52-2.44 11.17 11.17 0 0 0 2.25-3.9c.53-1.54.8-3.28.8-5.21zm26.22-6.54V48H60.5c-.56 0-.9-.27-1.05-.81l-.31-2.4a12.45 12.45 0 0 1-3.26 2.6c-1.2.64-2.58.96-4.13.96-1.22 0-2.3-.2-3.24-.6a6.52 6.52 0 0 1-2.33-1.7 7.37 7.37 0 0 1-1.43-2.67c-.3-1.04-.46-2.2-.46-3.45V25.7h3.91v14.22c0 1.68.38 2.99 1.15 3.91.77.93 1.96 1.39 3.54 1.39 1.16 0 2.24-.27 3.23-.82a10.42 10.42 0 0 0 2.8-2.28V25.7h3.91zm8.61 4.47a9.94 9.94 0 0 1 2.6-3.56 5.64 5.64 0 0 1 3.76-1.3c.47 0 .92.05 1.34.15.44.1.83.27 1.17.49l-.3 2.92c-.09.37-.3.55-.66.55-.2 0-.5-.04-.9-.13a6.21 6.21 0 0 0-3.24.18 4.23 4.23 0 0 0-1.47.92c-.42.4-.81.9-1.17 1.5-.33.58-.64 1.26-.92 2.02V48H67.7V25.71h2.25c.42 0 .72.08.88.25.16.16.27.44.33.83l.26 3.39zm61.16-13.7L122.75 48h-3.82l-7.99-24.05a21.95 21.95 0 0 1-.42-1.58 38.36 38.36 0 0 1-.44 1.58L102.05 48h-3.83L88.4 16.47h3.54c.38 0 .7.1.95.29.26.2.43.43.5.73l6.52 21.9.28 1.28.29 1.46.3-1.46.38-1.27 7.41-21.91c.1-.25.26-.48.51-.69.27-.22.58-.33.95-.33h1.23c.38 0 .69.1.92.29a1.77 1.77 0 0 1 .53.73l7.4 21.9a28.4 28.4 0 0 1 .68 2.62 29.52 29.52 0 0 1 .52-2.61l6.54-21.91a1.31 1.31 0 0 1 .48-.7c.27-.21.58-.32.95-.32h3.32zm9.35 8.88c1.63 0 3.1.27 4.4.82a9.43 9.43 0 0 1 5.46 5.94c.5 1.4.74 2.98.74 4.73 0 1.76-.25 3.34-.74 4.75a9.43 9.43 0 0 1-5.46 5.92c-1.3.52-2.77.79-4.4.79-1.64 0-3.12-.27-4.44-.8a9.42 9.42 0 0 1-3.35-2.3c-.92-1-1.63-2.2-2.13-3.61-.49-1.41-.73-3-.73-4.75s.24-3.33.73-4.73c.5-1.43 1.2-2.64 2.13-3.63.93-1 2.04-1.77 3.35-2.31 1.32-.55 2.8-.82 4.44-.82zm0 19.89c2.2 0 3.84-.73 4.93-2.2 1.08-1.48 1.63-3.54 1.63-6.18 0-2.66-.55-4.72-1.63-6.2-1.09-1.49-2.73-2.23-4.93-2.23-1.12 0-2.09.2-2.93.57a5.71 5.71 0 0 0-2.06 1.65c-.55.72-.96 1.61-1.24 2.67-.26 1.04-.4 2.22-.4 3.54 0 2.64.55 4.7 1.64 6.18 1.1 1.47 2.76 2.2 4.99 2.2zm17.97-15.07a9.94 9.94 0 0 1 2.6-3.56 5.64 5.64 0 0 1 3.76-1.3c.47 0 .91.05 1.34.15.44.1.83.27 1.16.49l-.28 2.92c-.09.37-.31.55-.66.55-.2 0-.5-.04-.9-.13a6.2 6.2 0 0 0-3.24.18 4.23 4.23 0 0 0-1.47.92c-.43.4-.82.9-1.17 1.5a13.1 13.1 0 0 0-.92 2.02V48h-3.94V25.71h2.24c.43 0 .72.08.88.25.17.16.28.44.33.83l.27 3.39zm15.04-14.59V48h-3.92V15.6h3.92zm19.55 15.43a6.22 6.22 0 0 0-2.38-2.05 6.7 6.7 0 0 0-2.86-.6c-2.07 0-3.66.75-4.77 2.23-1.12 1.48-1.68 3.6-1.68 6.33 0 1.46.13 2.7.38 3.74a7.29 7.29 0 0 0 1.1 2.56 4.35 4.35 0 0 0 1.78 1.45c.7.3 1.5.46 2.4.46 1.29 0 2.41-.3 3.36-.88a9.6 9.6 0 0 0 2.67-2.49V31.02zm3.91-15.43V48h-2.33c-.56 0-.9-.27-1.06-.81l-.35-2.71a12.13 12.13 0 0 1-3.25 2.77 8.28 8.28 0 0 1-4.23 1.06 7.31 7.31 0 0 1-6.14-2.9c-.73-.96-1.3-2.15-1.69-3.57a18.35 18.35 0 0 1 .07-9.48 11.29 11.29 0 0 1 1.89-3.7 8.7 8.7 0 0 1 7.06-3.34 7.96 7.96 0 0 1 6.12 2.62V15.59h3.91zM46.61 70.71V93H42.7V70.71h3.91zm.84-7c0 .39-.08.75-.24 1.09-.15.32-.35.61-.62.88-.25.25-.55.44-.9.59a2.67 2.67 0 0 1-2.16 0 2.9 2.9 0 0 1-1.45-1.47 2.67 2.67 0 0 1 0-2.16c.15-.35.35-.65.6-.9.25-.27.53-.47.85-.62a2.67 2.67 0 0 1 2.16 0c.35.15.65.35.9.62.27.25.47.55.62.9.16.34.24.7.24 1.08zm7.97 10.24c.49-.54 1-1.04 1.54-1.48a9.85 9.85 0 0 1 3.66-1.84 8.96 8.96 0 0 1 5.43.35c.94.4 1.72.97 2.33 1.71.63.74 1.11 1.62 1.43 2.67.32 1.04.49 2.19.49 3.45V93h-3.94V78.81c0-1.69-.4-3-1.17-3.92-.76-.93-1.93-1.4-3.5-1.4-1.15 0-2.24.27-3.25.83-1 .56-1.92 1.31-2.77 2.27V93h-3.94V70.71h2.35c.56 0 .9.28 1.04.82l.3 2.42zm57.7 3.3c0 2.36-.37 4.5-1.11 6.44a14.3 14.3 0 0 1-3.17 4.98c-1.37 1.37-3 2.45-4.93 3.2-1.9.76-4.02 1.13-6.33 1.13H85.8V61.47h11.77c2.31 0 4.42.39 6.33 1.15a13.8 13.8 0 0 1 8.1 8.18 17.75 17.75 0 0 1 1.12 6.45zm-4.37 0c0-1.94-.26-3.67-.8-5.2a10.94 10.94 0 0 0-2.23-3.87 9.57 9.57 0 0 0-3.53-2.42 12.23 12.23 0 0 0-4.61-.83h-7.5v24.62h7.5c1.7 0 3.24-.28 4.61-.84a9.7 9.7 0 0 0 3.53-2.4 10.94 10.94 0 0 0 2.24-3.87c.53-1.53.8-3.26.8-5.2zm19.8 5.72c-1.8.06-3.34.2-4.62.44-1.26.22-2.3.51-3.1.88-.8.36-1.37.8-1.74 1.3-.35.5-.53 1.05-.53 1.67 0 .58.1 1.1.3 1.52a3 3 0 0 0 .76 1.05c.34.27.73.46 1.17.6a6.13 6.13 0 0 0 1.45.17 7.28 7.28 0 0 0 3.5-.81 11.95 11.95 0 0 0 2.82-2.2v-4.62zm-12.65-9.11a12.73 12.73 0 0 1 3.98-2.66c1.43-.59 3-.88 4.73-.88 1.25 0 2.36.2 3.33.61a6.81 6.81 0 0 1 3.94 4.38c.33 1.04.5 2.19.5 3.43V93h-1.74a1.8 1.8 0 0 1-.88-.18c-.2-.13-.36-.38-.48-.74l-.44-2.12-1.72 1.46a9.48 9.48 0 0 1-3.74 1.7c-.69.15-1.46.23-2.3.23-.87 0-1.69-.12-2.45-.35a5.34 5.34 0 0 1-3.34-2.93 6.64 6.64 0 0 1-.49-2.64c0-.88.25-1.72.73-2.53a6.33 6.33 0 0 1 2.35-2.17c1.09-.63 2.5-1.15 4.25-1.54 1.75-.41 3.89-.65 6.42-.7v-1.75c0-1.73-.37-3.03-1.12-3.91-.75-.9-1.84-1.34-3.28-1.34-.97 0-1.78.12-2.44.37-.64.23-1.2.5-1.7.81l-1.23.82c-.33.23-.67.35-1 .35-.27 0-.5-.07-.69-.2a2.1 2.1 0 0 1-.48-.53l-.7-1.25zm27.67 19.5c-1.76 0-3.12-.5-4.07-1.48-.94-.98-1.41-2.4-1.41-4.25V74h-2.68a.9.9 0 0 1-.6-.2c-.16-.14-.24-.36-.24-.66v-1.56l3.65-.46.9-6.89c.05-.22.14-.4.29-.52a.88.88 0 0 1 .62-.22H142v7.67h6.44V74H142v13.38c0 .94.22 1.63.68 2.09.45.45 1.04.68 1.76.68a3.21 3.21 0 0 0 1.85-.53l.55-.35c.16-.12.3-.18.41-.18.2 0 .4.13.55.38l1.15 1.87a7.45 7.45 0 0 1-2.44 1.5 8.53 8.53 0 0 1-2.95.52zm19.68-10.4c-1.8.07-3.34.21-4.62.45-1.26.22-2.3.51-3.1.88-.8.36-1.37.8-1.74 1.3-.35.5-.53 1.05-.53 1.67 0 .58.1 1.1.3 1.52a2.9 2.9 0 0 0 .76 1.05c.34.27.73.46 1.17.6a6.13 6.13 0 0 0 1.45.17 7.3 7.3 0 0 0 3.5-.81 12.04 12.04 0 0 0 2.82-2.2v-4.62zm-12.65-9.1a12.72 12.72 0 0 1 3.99-2.66c1.42-.59 3-.88 4.72-.88 1.25 0 2.36.2 3.33.61a6.81 6.81 0 0 1 3.94 4.38c.33 1.04.5 2.19.5 3.43V93h-1.74a1.8 1.8 0 0 1-.88-.18c-.2-.13-.36-.38-.48-.74l-.44-2.12-1.72 1.46a9.48 9.48 0 0 1-3.74 1.7c-.69.15-1.46.23-2.3.23-.87 0-1.69-.12-2.45-.35a5.33 5.33 0 0 1-3.34-2.93 6.62 6.62 0 0 1-.49-2.64c0-.88.25-1.72.73-2.53a6.33 6.33 0 0 1 2.35-2.17c1.09-.63 2.5-1.15 4.25-1.54 1.74-.41 3.89-.65 6.42-.7v-1.75c0-1.73-.37-3.03-1.12-3.91-.75-.9-1.84-1.34-3.28-1.34-.97 0-1.78.12-2.44.37-.64.23-1.2.5-1.7.81l-1.22.82c-.34.23-.68.35-1.02.35-.26 0-.49-.07-.68-.2a1.88 1.88 0 0 1-.48-.53l-.7-1.25z"
    fill="#fff"
  />
  <path fill="#D42B21" d="M0 106.79h210V120H0z" />
</g>
<defs>
  <clipPath id="clip0"><path fill="#fff" d="M0 0h210v120H0z" /></clipPath>
</defs>
</svg></g><a href="https://ourworldindata.org/explorers/coronavirus-data-explorer?zoomToSelection=true&amp;time=2020-03-01..latest&amp;facet=none&amp;pickerSort=desc&amp;pickerMetric=new_cases_smoothed_per_million&amp;Metric=Confirmed+cases&amp;Interval=7-day+rolling+average&amp;Relative+to+Population=true&amp;Color+by+test+positivity=false&amp;country=~OWID_WRL" style="font-family:&quot;Playfair Display&quot;, Georgia, &quot;Times New Roman&quot;, serif" target="_blank" rel="noopener"><text font-size="25.20" x="15.0" y="36.9" fill="#555"><tspan x="15" y="36.924">Daily new confirmed COVID-19 cases per million people</tspan></text></a><text x="15.0" y="58.2" style="font-size:14.4px;line-height:1.2" fill="#666"><tspan x="15" y="58.2">7-day rolling average. Due to limited testing, the number of confirmed cases is lower than the true number of</tspan><tspan x="15" y="75.4">infections.</tspan></text></g><g class="LineChart"><defs><clipPath id="boundsClip-2"><rect x="37.216" y="84.76" width="840" height="471.38"></rect></clipPath></defs><rect x="15" y="94.76" width="820" height="451.38" fill="transparent"></rect><g class="DualAxisView"><g class="HorizontalAxis"><line x1="47.2" y1="524.94" x2="47.2" y2="529.94" stroke="#999"></line><line x1="764.8" y1="524.94" x2="764.8" y2="529.94" stroke="#999"></line><line x1="331.1" y1="524.94" x2="331.1" y2="529.94" stroke="#999"></line><line x1="488.8" y1="524.94" x2="488.8" y2="529.94" stroke="#999"></line><text x="47.216" y="546.14" fill="#666" text-anchor="start" font-size="16.2">Mar 1, 2020</text><text x="764.765" y="546.14" fill="#666" text-anchor="end" font-size="16.2">Aug 28, 2022</text><text x="331.1" y="546.14" fill="#666" text-anchor="middle" font-size="16.2">Feb 24, 2021</text><text x="488.8" y="546.14" fill="#666" text-anchor="middle" font-size="16.2">Sep 12, 2021</text></g><g class="VerticalAxis"><text x="42.22" y="524.9" dy=".32em" text-anchor="end" fill="#666" font-size="16.2">0</text><text x="42.22" y="425.9" dy=".32em" text-anchor="end" fill="#666" font-size="16.2">100</text><text x="42.22" y="326.9" dy=".32em" text-anchor="end" fill="#666" font-size="16.2">200</text><text x="42.22" y="227.9" dy=".32em" text-anchor="end" fill="#666" font-size="16.2">300</text><text x="42.22" y="128.9" dy=".32em" text-anchor="end" fill="#666" font-size="16.2">400</text></g><g class="AxisGridLines horizontalLines"><line x1="47.22" y1="524.9" x2="764.76" y2="524.9" stroke="#999"></line><line x1="47.22" y1="425.9" x2="764.76" y2="425.9" stroke="#ddd" stroke-dasharray="3,2"></line><line x1="47.22" y1="326.9" x2="764.76" y2="326.9" stroke="#ddd" stroke-dasharray="3,2"></line><line x1="47.22" y1="227.9" x2="764.76" y2="227.9" stroke="#ddd" stroke-dasharray="3,2"></line><line x1="47.22" y1="128.9" x2="764.76" y2="128.9" stroke="#ddd" stroke-dasharray="3,2"></line></g></g><g clip-path="url(#boundsClip-2)"><g class="LineLabels" style="cursor:default"><g class="legendMark"><rect x="764.765" y="430.55" width="70.235" height="13.5" fill="#fff" opacity="0"></rect><text font-size="13.50" font-weight="400" x="768.8" y="442.3" fill="#00823f"><tspan x="768.765" y="442.295">World</tspan></text></g></g><g class="Lines"><rect x="47" y="95" width="718" height="430" fill="rgba(255,255,255,0)" opacity="0"></rect><g><path stroke-linecap="round" stroke-linejoin="round" stroke="#ddd" d="M47.2 524.8L48 524.7L48.8 524.7L49.6 524.7L50.4 524.7L51.2 524.6L51.9 524.6L52.7 524.6L53.5 524.5L54.3 524.5L55.1 524.4L55.9 524.3L56.7 524.1L57.5 524L58.3 523.9L59 523.7L59.8 523.5L60.6 523.3L61.4 523L62.2 522.7L63 522.3L63.8 521.9L64.6 521.4L65.4 520.9L66.1 520.3L66.9 519.7L67.7 519.1L68.5 518.4L69.3 518L70.1 517.6L70.9 517L71.7 516.3L72.4 516L73.2 515.6L74 515.5L74.8 515.2L75.6 515L76.4 515.1L77.2 515.2L78 515.1L78.8 515.1L79.5 515.1L80.3 514.3L81.1 514.3L81.9 514.1L82.7 514.2L83.5 514L84.3 514L85.1 514L85.9 514.7L86.6 514.6L87.4 514.8L88.2 514.7L89 514.9L89.8 514.8L90.6 514.7L91.4 514.8L92.2 514.9L92.9 514.9L93.7 515L94.5 515L95.3 515.1L96.1 515.1L96.9 515.1L97.7 515L98.5 514.9L99.3 514.7L100 514.6L100.8 514.5L101.6 514.4L102.4 514.4L103.2 514.4L104 514.3L104.8 514.4L105.6 514.3L106.4 514.3L107.1 514.1L107.9 514L108.7 513.8L109.5 513.6L110.3 513.2L111.1 513L111.9 512.9L112.7 512.7L113.5 512.4L114.2 512.4L115 512.5L115.8 512.5L116.6 512.3L117.4 512L118.2 511.5L119 511.3L119.8 511.1L120.5 510.5L121.3 510.3L122.1 510L122.9 509.8L123.7 509.9L124.5 509.7L125.3 509.7L126.1 509.6L126.9 509.2L127.6 509.3L128.4 509.4L129.2 509.3L130 508.9L130.8 508.5L131.6 508.2L132.4 508.1L133.2 508L134 507L134.7 506.1L135.5 506.4L136.3 506.1L137.1 505.7L137.9 505.2L138.7 504.5L139.5 504.3L140.3 504.5L141 503.5L141.8 503.3L142.6 503L143.4 502.2L144.2 501.8L145 501.6L145.8 501.4L146.6 501.1L147.4 500.8L148.1 500.3L148.9 500.3L149.7 500L150.5 499.4L151.3 499L152.1 498.9L152.9 498.4L153.7 498.2L154.5 498L155.2 497.6L156 497.5L156.8 497.1L157.6 496.8L158.4 496.5L159.2 496.1L160 495.3L160.8 494.7L161.6 493.9L162.3 493.6L163.1 493.6L163.9 493.1L164.7 492.8L165.5 492.9L166.3 492.8L167.1 492.8L167.9 492.8L168.6 492.5L169.4 493L170.2 493L171 492.9L171.8 492.8L172.6 492.9L173.4 492.5L174.2 492.5L175 492L175.7 492L176.5 492L177.3 491.9L178.1 491.5L178.9 491.8L179.7 492.2L180.5 492.6L181.3 492.7L182.1 492.6L182.8 493L183.6 493.8L184.4 493.5L185.2 493.7L186 493.4L186.8 493.6L187.6 493.6L188.4 493.3L189.1 492.9L189.9 492.9L190.7 492.6L191.5 492L192.3 491.6L193.1 491.6L193.9 491.6L194.7 491.3L195.5 491.1L196.2 490.9L197 491.6L197.8 492L198.6 491.9L199.4 491.6L200.2 491.3L201 491L201.8 490.7L202.6 489.9L203.3 489.3L204.1 489L204.9 488.8L205.7 488.6L206.5 488.5L207.3 488.4L208.1 488.5L208.9 488.5L209.7 488.3L210.4 488.2L211.2 488.2L212 488.3L212.8 488.5L213.6 488.4L214.4 488.4L215.2 488.2L216 488.2L216.7 488.3L217.5 488L218.3 487.8L219.1 486.9L219.9 486.3L220.7 485.9L221.5 485.2L222.3 484.6L223.1 483.6L223.8 483.1L224.6 483.4L225.4 483.4L226.2 482.8L227 482L227.8 481.1L228.6 480.8L229.4 480L230.2 478.5L230.9 477.3L231.7 476.2L232.5 474.9L233.3 473.4L234.1 471.9L234.9 471.4L235.7 469.5L236.5 468L237.2 466.6L238 465.3L238.8 463.9L239.6 463.6L240.4 462.2L241.2 461L242 459.3L242.8 459L243.6 457.8L244.3 456.9L245.1 454.6L245.9 453.7L246.7 454.4L247.5 454.3L248.3 452.7L249.1 452.3L249.9 451.7L250.7 451.9L251.4 451.9L252.2 451.6L253 451.1L253.8 451.1L254.6 450.9L255.4 450.6L256.2 450.5L257 450.4L257.7 450.2L258.5 450.4L259.3 450.5L260.1 451.7L260.9 451.3L261.7 451L262.5 451.1L263.3 451.6L264.1 451.2L264.8 450.7L265.6 448.9L266.4 448.9L267.2 448.3L268 447.4L268.8 446.9L269.6 446.6L270.4 446.2L271.2 446.5L271.9 446.3L272.7 446.2L273.5 446.3L274.3 446L275.1 445.7L275.9 444.8L276.7 443.6L277.5 443.3L278.3 443.5L279 443.4L279.8 443.5L280.6 443.4L281.4 444.1L282.2 444.9L283 448.5L283.8 450.8L284.6 453.2L285.3 454L286.1 453.7L286.9 452.9L287.7 450.3L288.5 449.1L289.3 447.7L290.1 445.8L290.9 444.8L291.7 443.5L292.4 442.4L293.2 441.8L294 437.4L294.8 434.2L295.6 432.8L296.4 431.8L297.2 432.6L298 433.5L298.8 435.5L299.5 436.4L300.3 438.2L301.1 439.5L301.9 441.2L302.7 443L303.5 444L304.3 445.6L305.1 447.8L305.8 449.2L306.6 450.4L307.4 451L308.2 451.6L309 453.1L309.8 454.1L310.6 455.4L311.4 456.5L312.2 457.7L312.9 458.4L313.7 460.1L314.5 461.5L315.3 464L316.1 465L316.9 466.4L317.7 467.2L318.5 469L319.3 470.1L320 471.6L320.8 472.1L321.6 474L322.4 475L323.2 475.8L324 476.8L324.8 477.7L325.6 478.6L326.4 479.2L327.1 479.6L327.9 479.7L328.7 479.5L329.5 479.2L330.3 478.6L331.1 477.6L331.9 476.8L332.7 476.2L333.4 475.9L334.2 476.1L335 475.9L335.8 476L336.6 476L337.4 475.9L338.2 475.8L339 475.5L339.8 474.3L340.5 474.3L341.3 473.8L342.1 473.5L342.9 473L343.7 472.3L344.5 471.5L345.3 471.7L346.1 470.8L346.9 469.9L347.6 468.3L348.4 467.3L349.2 466L350 465.2L350.8 463.8L351.6 462.6L352.4 461.9L353.2 460.4L353.9 458.5L354.7 457.1L355.5 455.6L356.3 454.6L357.1 454L357.9 453L358.7 452.2L359.5 451.2L360.3 451.1L361 451.9L361.8 450.7L362.6 450L363.4 449.2L364.2 449.4L365 447.2L365.8 445.2L366.6 442.9L367.4 440.2L368.1 438.1L368.9 435.4L369.7 432.7L370.5 433L371.3 431L372.1 428.8L372.9 429L373.7 427.6L374.4 426.3L375.2 424.9L376 423.5L376.8 422.6L377.6 422.1L378.4 421.6L379.2 421.6L380 421.6L380.8 421.4L381.5 421.5L382.3 421.8L383.1 422.4L383.9 423.1L384.7 423.1L385.5 424L386.3 425.1L387.1 425.4L387.9 426.4L388.6 426.6L389.4 427.2L390.2 428.4L391 429.5L391.8 430.8L392.6 433.3L393.4 435.5L394.2 438.3L395 440.1L395.7 441.6L396.5 443.5L397.3 445.2L398.1 447L398.9 448.5L399.7 449.6L400.5 450.7L401.3 452.4L402 454L402.8 455.8L403.6 457.3L404.4 459.5L405.2 461.1L406 462.8L406.8 463.9L407.6 465.2L408.4 466.7L409.1 467.9L409.9 469.3L410.7 470.8L411.5 472L412.3 473.2L413.1 474.8L413.9 476L414.7 476.5L415.5 476.6L416.2 477.1L417 477.4L417.8 477.6L418.6 477.6L419.4 478.1L420.2 479.1L421 479.4L421.8 479.8L422.5 479.8L423.3 480L424.1 479.4L424.9 479.2L425.7 479L426.5 478.7L427.3 478.5L428.1 478.4L428.9 477.7L429.6 478.2L430.4 478.2L431.2 477.7L432 477.3L432.8 477.1L433.6 476.8L434.4 476L435.2 474.7L436 473.6L436.7 472.7L437.5 471.5L438.3 470.6L439.1 469.9L439.9 468.9L440.7 467.5L441.5 466.2L442.3 464.5L443.1 463.1L443.8 461.8L444.6 460.9L445.4 460L446.2 459.8L447 459.5L447.8 459.7L448.6 457.4L449.4 457.3L450.1 456.9L450.9 455.9L451.7 454.6L452.5 452.9L453.3 451.5L454.1 451.5L454.9 451L455.7 450.3L456.5 449.8L457.2 449.3L458 448.7L458.8 448L459.6 446.4L460.4 445.6L461.2 445.9L462 445L462.8 444.8L463.6 443.9L464.3 443.6L465.1 443.9L465.9 444L466.7 444L467.5 443.2L468.3 442.6L469.1 442.5L469.9 442.4L470.6 442.7L471.4 442.5L472.2 442.8L473 442.6L473.8 442.7L474.6 442.6L475.4 442.2L476.2 442.8L477 442.8L477.7 442.8L478.5 443.1L479.3 444.1L480.1 444.4L480.9 445.4L481.7 445.9L482.5 447L483.3 447L484.1 450.5L484.8 449.8L485.6 451.3L486.4 452L487.2 453.1L488 453.6L488.8 455L489.6 453.2L490.4 455.1L491.2 456.4L491.9 457.3L492.7 457.9L493.5 459.2L494.3 459.4L495.1 460.2L495.9 461.3L496.7 461.9L497.5 462.6L498.2 463.9L499 464.4L499.8 464.5L500.6 465.3L501.4 466L502.2 466.8L503 467.8L503.8 468.3L504.6 468.7L505.3 469.6L506.1 470.2L506.9 470.7L507.7 470.4L508.5 470.9L509.3 471.8L510.1 471.9L510.9 471.8L511.7 472.9L512.4 472.6L513.2 473.5L514 473.6L514.8 473.9L515.6 473.9L516.4 473.9L517.2 473.3L518 473.4L518.7 473L519.5 472.9L520.3 472.3L521.1 471.7L521.9 471.7L522.7 471.4L523.5 471.5L524.3 470.8L525.1 470.4L525.8 470.4L526.6 470.2L527.4 469.4L528.2 469.5L529 469.9L529.8 469.7L530.6 469.1L531.4 468.6L532.2 467.8L532.9 467.8L533.7 467L534.5 465.8L535.3 464.9L536.1 464.9L536.9 463.5L537.7 463.5L538.5 463.2L539.2 462.2L540 461.5L540.8 460.8L541.6 459L542.4 458.7L543.2 457.6L544 456.9L544.8 455.6L545.6 454.3L546.3 453.6L547.1 454L547.9 454L548.7 454.3L549.5 454.1L550.3 453.5L551.1 453.1L551.9 452.3L552.7 450.3L553.4 448.2L554.2 447.3L555 446.8L555.8 447.4L556.6 446.7L557.4 446.5L558.2 446.7L559 447.4L559.8 447.7L560.5 447.7L561.3 447.5L562.1 447.6L562.9 447.1L563.7 446.2L564.5 444.9L565.3 444L566.1 443L566.8 440.7L567.6 438.5L568.4 435.4L569.2 430.6L570 428.4L570.8 426L571.6 424.7L572.4 415.2L573.2 404.8L573.9 390.7L574.7 373.9L575.5 358.7L576.3 349.3L577.1 343.1L577.9 323.8L578.7 302.7L579.5 287L580.3 274.1L581 252.5L581.8 235.3L582.6 215.4L583.4 201.1L584.2 191.8L585 176.4L585.8 167.2L586.6 160.7L587.3 155L588.1 152.4L588.9 161.6L589.7 148.5L590.5 137.1L591.3 127.4L592.1 118.3L592.9 113.4L593.7 108.4L594.4 94.8L595.2 96.8L596 102.6L596.8 103.1L597.6 106.1L598.4 106.7L599.2 109.8L600 122L600.8 131.4L601.5 141.8L602.3 151L603.1 163.7L603.9 171.3L604.7 178.5L605.5 180.4L606.3 189.8L607.1 203.2L607.9 210L608.6 219.5L609.4 226.4L610.2 232.9L611 249.2L611.8 262.2L612.6 265.6L613.4 279L614.2 286.8L614.9 291.6L615.7 295.5L616.5 301L617.3 304.6L618.1 310.4L618.9 315.3L619.7 321.2L620.5 325L621.3 327.7L622 329L622.8 330.3L623.6 334.9L624.4 335.2L625.2 333.3L626 332.7L626.8 331.5L627.6 329.6L628.4 327.1L629.1 323.9L629.9 322.2L630.7 320.2L631.5 314.6L632.3 313.5L633.1 310.3L633.9 309.1L634.7 302L635.4 298.3L636.2 297.9L637 299L637.8 302.4L638.6 304.7L639.4 301.6L640.2 309.3L641 314.6L641.8 316.9L642.5 323.4L643.3 325.8L644.1 325.9L644.9 329.9L645.7 333.6L646.5 333L647.3 343.6L648.1 349.1L648.9 351.8L649.6 361.8L650.4 368.7L651.2 371.9L652 381.9L652.8 382.2L653.6 387.1L654.4 390.9L655.2 390.4L655.9 395.3L656.7 401.7L657.5 407L658.3 415.1L659.1 418.6L659.9 421.5L660.7 429.9L661.5 432.7L662.3 434.6L663 435.7L663.8 433.7L664.6 435.3L665.4 436L666.2 434.2L667 439.6L667.8 442L668.6 445L669.4 448.1L670.1 450.8L670.9 452.1L671.7 454.3L672.5 453.9L673.3 457.4L674.1 459.9L674.9 460.1L675.7 460.4L676.5 461L677.2 456.4L678 457L678.8 455.8L679.6 455L680.4 455.9L681.2 454.2L682 452.5L682.8 454.4L683.5 455.1L684.3 454L685.1 454.8L685.9 453.9L686.7 455.2L687.5 456L688.3 457.2L689.1 457.5L689.9 459.5L690.6 460.9L691.4 461.9L692.2 463.3L693 464.3L693.8 466.6L694.6 465.9L695.4 464.9L696.2 464.6L697 465.1L697.7 465.7L698.5 465.9L699.3 465.3L700.1 464.8L700.9 464.6L701.7 463.9L702.5 463.9L703.3 463.3L704 464.5L704.8 462.2L705.6 458.7L706.4 458.4L707.2 459.2L708 458.4L708.8 459.4L709.6 458.1L710.4 454.1L711.1 454.6L711.9 453.1L712.7 448.6L713.5 445.5L714.3 443.9L715.1 443.7L715.9 441.3L716.7 439.2L717.5 437L718.2 431.8L719 428.7L719.8 427.9L720.6 426.6L721.4 427.1L722.2 422.5L723 417.1L723.8 417.5L724.6 416.7L725.3 414.1L726.1 412.9L726.9 409.2L727.7 409L728.5 405.1L729.3 406.5L730.1 405.9L730.9 405L731.6 404.4L732.4 402.2L733.2 396.3L734 393.6L734.8 390.7L735.6 389.5L736.4 388L737.2 386.4L738 390.1L738.7 396.4L739.5 399.8L740.3 400.3L741.1 395.4L741.9 396.5L742.7 396.6L743.5 398.7L744.3 398.6L745.1 403.4L745.8 397L746.6 405.4L747.4 394.6L748.2 395.5L749 396.7L749.8 399.2L750.6 401.5L751.4 409.6L752.1 412.2L752.9 421.9L753.7 422.5L754.5 422L755.3 421.1L756.1 421.7L756.9 422.8L757.7 422.1L758.5 423.2L759.2 422.8L760 425.3L760.8 429L761.6 431.7L762.4 432.5L763.2 433.8L764 435.9L764.8 437.3" fill="none" stroke-width="1"></path></g><g><path fill="none" stroke-linecap="butt" stroke-linejoin="round" stroke="#fff" stroke-width="2.5" d="M47.2 524.8L48 524.7L48.8 524.7L49.6 524.7L50.4 524.7L51.2 524.6L51.9 524.6L52.7 524.6L53.5 524.5L54.3 524.5L55.1 524.4L55.9 524.3L56.7 524.1L57.5 524L58.3 523.9L59 523.7L59.8 523.5L60.6 523.3L61.4 523L62.2 522.7L63 522.3L63.8 521.9L64.6 521.4L65.4 520.9L66.1 520.3L66.9 519.7L67.7 519.1L68.5 518.4L69.3 518L70.1 517.6L70.9 517L71.7 516.3L72.4 516L73.2 515.6L74 515.5L74.8 515.2L75.6 515L76.4 515.1L77.2 515.2L78 515.1L78.8 515.1L79.5 515.1L80.3 514.3L81.1 514.3L81.9 514.1L82.7 514.2L83.5 514L84.3 514L85.1 514L85.9 514.7L86.6 514.6L87.4 514.8L88.2 514.7L89 514.9L89.8 514.8L90.6 514.7L91.4 514.8L92.2 514.9L92.9 514.9L93.7 515L94.5 515L95.3 515.1L96.1 515.1L96.9 515.1L97.7 515L98.5 514.9L99.3 514.7L100 514.6L100.8 514.5L101.6 514.4L102.4 514.4L103.2 514.4L104 514.3L104.8 514.4L105.6 514.3L106.4 514.3L107.1 514.1L107.9 514L108.7 513.8L109.5 513.6L110.3 513.2L111.1 513L111.9 512.9L112.7 512.7L113.5 512.4L114.2 512.4L115 512.5L115.8 512.5L116.6 512.3L117.4 512L118.2 511.5L119 511.3L119.8 511.1L120.5 510.5L121.3 510.3L122.1 510L122.9 509.8L123.7 509.9L124.5 509.7L125.3 509.7L126.1 509.6L126.9 509.2L127.6 509.3L128.4 509.4L129.2 509.3L130 508.9L130.8 508.5L131.6 508.2L132.4 508.1L133.2 508L134 507L134.7 506.1L135.5 506.4L136.3 506.1L137.1 505.7L137.9 505.2L138.7 504.5L139.5 504.3L140.3 504.5L141 503.5L141.8 503.3L142.6 503L143.4 502.2L144.2 501.8L145 501.6L145.8 501.4L146.6 501.1L147.4 500.8L148.1 500.3L148.9 500.3L149.7 500L150.5 499.4L151.3 499L152.1 498.9L152.9 498.4L153.7 498.2L154.5 498L155.2 497.6L156 497.5L156.8 497.1L157.6 496.8L158.4 496.5L159.2 496.1L160 495.3L160.8 494.7L161.6 493.9L162.3 493.6L163.1 493.6L163.9 493.1L164.7 492.8L165.5 492.9L166.3 492.8L167.1 492.8L167.9 492.8L168.6 492.5L169.4 493L170.2 493L171 492.9L171.8 492.8L172.6 492.9L173.4 492.5L174.2 492.5L175 492L175.7 492L176.5 492L177.3 491.9L178.1 491.5L178.9 491.8L179.7 492.2L180.5 492.6L181.3 492.7L182.1 492.6L182.8 493L183.6 493.8L184.4 493.5L185.2 493.7L186 493.4L186.8 493.6L187.6 493.6L188.4 493.3L189.1 492.9L189.9 492.9L190.7 492.6L191.5 492L192.3 491.6L193.1 491.6L193.9 491.6L194.7 491.3L195.5 491.1L196.2 490.9L197 491.6L197.8 492L198.6 491.9L199.4 491.6L200.2 491.3L201 491L201.8 490.7L202.6 489.9L203.3 489.3L204.1 489L204.9 488.8L205.7 488.6L206.5 488.5L207.3 488.4L208.1 488.5L208.9 488.5L209.7 488.3L210.4 488.2L211.2 488.2L212 488.3L212.8 488.5L213.6 488.4L214.4 488.4L215.2 488.2L216 488.2L216.7 488.3L217.5 488L218.3 487.8L219.1 486.9L219.9 486.3L220.7 485.9L221.5 485.2L222.3 484.6L223.1 483.6L223.8 483.1L224.6 483.4L225.4 483.4L226.2 482.8L227 482L227.8 481.1L228.6 480.8L229.4 480L230.2 478.5L230.9 477.3L231.7 476.2L232.5 474.9L233.3 473.4L234.1 471.9L234.9 471.4L235.7 469.5L236.5 468L237.2 466.6L238 465.3L238.8 463.9L239.6 463.6L240.4 462.2L241.2 461L242 459.3L242.8 459L243.6 457.8L244.3 456.9L245.1 454.6L245.9 453.7L246.7 454.4L247.5 454.3L248.3 452.7L249.1 452.3L249.9 451.7L250.7 451.9L251.4 451.9L252.2 451.6L253 451.1L253.8 451.1L254.6 450.9L255.4 450.6L256.2 450.5L257 450.4L257.7 450.2L258.5 450.4L259.3 450.5L260.1 451.7L260.9 451.3L261.7 451L262.5 451.1L263.3 451.6L264.1 451.2L264.8 450.7L265.6 448.9L266.4 448.9L267.2 448.3L268 447.4L268.8 446.9L269.6 446.6L270.4 446.2L271.2 446.5L271.9 446.3L272.7 446.2L273.5 446.3L274.3 446L275.1 445.7L275.9 444.8L276.7 443.6L277.5 443.3L278.3 443.5L279 443.4L279.8 443.5L280.6 443.4L281.4 444.1L282.2 444.9L283 448.5L283.8 450.8L284.6 453.2L285.3 454L286.1 453.7L286.9 452.9L287.7 450.3L288.5 449.1L289.3 447.7L290.1 445.8L290.9 444.8L291.7 443.5L292.4 442.4L293.2 441.8L294 437.4L294.8 434.2L295.6 432.8L296.4 431.8L297.2 432.6L298 433.5L298.8 435.5L299.5 436.4L300.3 438.2L301.1 439.5L301.9 441.2L302.7 443L303.5 444L304.3 445.6L305.1 447.8L305.8 449.2L306.6 450.4L307.4 451L308.2 451.6L309 453.1L309.8 454.1L310.6 455.4L311.4 456.5L312.2 457.7L312.9 458.4L313.7 460.1L314.5 461.5L315.3 464L316.1 465L316.9 466.4L317.7 467.2L318.5 469L319.3 470.1L320 471.6L320.8 472.1L321.6 474L322.4 475L323.2 475.8L324 476.8L324.8 477.7L325.6 478.6L326.4 479.2L327.1 479.6L327.9 479.7L328.7 479.5L329.5 479.2L330.3 478.6L331.1 477.6L331.9 476.8L332.7 476.2L333.4 475.9L334.2 476.1L335 475.9L335.8 476L336.6 476L337.4 475.9L338.2 475.8L339 475.5L339.8 474.3L340.5 474.3L341.3 473.8L342.1 473.5L342.9 473L343.7 472.3L344.5 471.5L345.3 471.7L346.1 470.8L346.9 469.9L347.6 468.3L348.4 467.3L349.2 466L350 465.2L350.8 463.8L351.6 462.6L352.4 461.9L353.2 460.4L353.9 458.5L354.7 457.1L355.5 455.6L356.3 454.6L357.1 454L357.9 453L358.7 452.2L359.5 451.2L360.3 451.1L361 451.9L361.8 450.7L362.6 450L363.4 449.2L364.2 449.4L365 447.2L365.8 445.2L366.6 442.9L367.4 440.2L368.1 438.1L368.9 435.4L369.7 432.7L370.5 433L371.3 431L372.1 428.8L372.9 429L373.7 427.6L374.4 426.3L375.2 424.9L376 423.5L376.8 422.6L377.6 422.1L378.4 421.6L379.2 421.6L380 421.6L380.8 421.4L381.5 421.5L382.3 421.8L383.1 422.4L383.9 423.1L384.7 423.1L385.5 424L386.3 425.1L387.1 425.4L387.9 426.4L388.6 426.6L389.4 427.2L390.2 428.4L391 429.5L391.8 430.8L392.6 433.3L393.4 435.5L394.2 438.3L395 440.1L395.7 441.6L396.5 443.5L397.3 445.2L398.1 447L398.9 448.5L399.7 449.6L400.5 450.7L401.3 452.4L402 454L402.8 455.8L403.6 457.3L404.4 459.5L405.2 461.1L406 462.8L406.8 463.9L407.6 465.2L408.4 466.7L409.1 467.9L409.9 469.3L410.7 470.8L411.5 472L412.3 473.2L413.1 474.8L413.9 476L414.7 476.5L415.5 476.6L416.2 477.1L417 477.4L417.8 477.6L418.6 477.6L419.4 478.1L420.2 479.1L421 479.4L421.8 479.8L422.5 479.8L423.3 480L424.1 479.4L424.9 479.2L425.7 479L426.5 478.7L427.3 478.5L428.1 478.4L428.9 477.7L429.6 478.2L430.4 478.2L431.2 477.7L432 477.3L432.8 477.1L433.6 476.8L434.4 476L435.2 474.7L436 473.6L436.7 472.7L437.5 471.5L438.3 470.6L439.1 469.9L439.9 468.9L440.7 467.5L441.5 466.2L442.3 464.5L443.1 463.1L443.8 461.8L444.6 460.9L445.4 460L446.2 459.8L447 459.5L447.8 459.7L448.6 457.4L449.4 457.3L450.1 456.9L450.9 455.9L451.7 454.6L452.5 452.9L453.3 451.5L454.1 451.5L454.9 451L455.7 450.3L456.5 449.8L457.2 449.3L458 448.7L458.8 448L459.6 446.4L460.4 445.6L461.2 445.9L462 445L462.8 444.8L463.6 443.9L464.3 443.6L465.1 443.9L465.9 444L466.7 444L467.5 443.2L468.3 442.6L469.1 442.5L469.9 442.4L470.6 442.7L471.4 442.5L472.2 442.8L473 442.6L473.8 442.7L474.6 442.6L475.4 442.2L476.2 442.8L477 442.8L477.7 442.8L478.5 443.1L479.3 444.1L480.1 444.4L480.9 445.4L481.7 445.9L482.5 447L483.3 447L484.1 450.5L484.8 449.8L485.6 451.3L486.4 452L487.2 453.1L488 453.6L488.8 455L489.6 453.2L490.4 455.1L491.2 456.4L491.9 457.3L492.7 457.9L493.5 459.2L494.3 459.4L495.1 460.2L495.9 461.3L496.7 461.9L497.5 462.6L498.2 463.9L499 464.4L499.8 464.5L500.6 465.3L501.4 466L502.2 466.8L503 467.8L503.8 468.3L504.6 468.7L505.3 469.6L506.1 470.2L506.9 470.7L507.7 470.4L508.5 470.9L509.3 471.8L510.1 471.9L510.9 471.8L511.7 472.9L512.4 472.6L513.2 473.5L514 473.6L514.8 473.9L515.6 473.9L516.4 473.9L517.2 473.3L518 473.4L518.7 473L519.5 472.9L520.3 472.3L521.1 471.7L521.9 471.7L522.7 471.4L523.5 471.5L524.3 470.8L525.1 470.4L525.8 470.4L526.6 470.2L527.4 469.4L528.2 469.5L529 469.9L529.8 469.7L530.6 469.1L531.4 468.6L532.2 467.8L532.9 467.8L533.7 467L534.5 465.8L535.3 464.9L536.1 464.9L536.9 463.5L537.7 463.5L538.5 463.2L539.2 462.2L540 461.5L540.8 460.8L541.6 459L542.4 458.7L543.2 457.6L544 456.9L544.8 455.6L545.6 454.3L546.3 453.6L547.1 454L547.9 454L548.7 454.3L549.5 454.1L550.3 453.5L551.1 453.1L551.9 452.3L552.7 450.3L553.4 448.2L554.2 447.3L555 446.8L555.8 447.4L556.6 446.7L557.4 446.5L558.2 446.7L559 447.4L559.8 447.7L560.5 447.7L561.3 447.5L562.1 447.6L562.9 447.1L563.7 446.2L564.5 444.9L565.3 444L566.1 443L566.8 440.7L567.6 438.5L568.4 435.4L569.2 430.6L570 428.4L570.8 426L571.6 424.7L572.4 415.2L573.2 404.8L573.9 390.7L574.7 373.9L575.5 358.7L576.3 349.3L577.1 343.1L577.9 323.8L578.7 302.7L579.5 287L580.3 274.1L581 252.5L581.8 235.3L582.6 215.4L583.4 201.1L584.2 191.8L585 176.4L585.8 167.2L586.6 160.7L587.3 155L588.1 152.4L588.9 161.6L589.7 148.5L590.5 137.1L591.3 127.4L592.1 118.3L592.9 113.4L593.7 108.4L594.4 94.8L595.2 96.8L596 102.6L596.8 103.1L597.6 106.1L598.4 106.7L599.2 109.8L600 122L600.8 131.4L601.5 141.8L602.3 151L603.1 163.7L603.9 171.3L604.7 178.5L605.5 180.4L606.3 189.8L607.1 203.2L607.9 210L608.6 219.5L609.4 226.4L610.2 232.9L611 249.2L611.8 262.2L612.6 265.6L613.4 279L614.2 286.8L614.9 291.6L615.7 295.5L616.5 301L617.3 304.6L618.1 310.4L618.9 315.3L619.7 321.2L620.5 325L621.3 327.7L622 329L622.8 330.3L623.6 334.9L624.4 335.2L625.2 333.3L626 332.7L626.8 331.5L627.6 329.6L628.4 327.1L629.1 323.9L629.9 322.2L630.7 320.2L631.5 314.6L632.3 313.5L633.1 310.3L633.9 309.1L634.7 302L635.4 298.3L636.2 297.9L637 299L637.8 302.4L638.6 304.7L639.4 301.6L640.2 309.3L641 314.6L641.8 316.9L642.5 323.4L643.3 325.8L644.1 325.9L644.9 329.9L645.7 333.6L646.5 333L647.3 343.6L648.1 349.1L648.9 351.8L649.6 361.8L650.4 368.7L651.2 371.9L652 381.9L652.8 382.2L653.6 387.1L654.4 390.9L655.2 390.4L655.9 395.3L656.7 401.7L657.5 407L658.3 415.1L659.1 418.6L659.9 421.5L660.7 429.9L661.5 432.7L662.3 434.6L663 435.7L663.8 433.7L664.6 435.3L665.4 436L666.2 434.2L667 439.6L667.8 442L668.6 445L669.4 448.1L670.1 450.8L670.9 452.1L671.7 454.3L672.5 453.9L673.3 457.4L674.1 459.9L674.9 460.1L675.7 460.4L676.5 461L677.2 456.4L678 457L678.8 455.8L679.6 455L680.4 455.9L681.2 454.2L682 452.5L682.8 454.4L683.5 455.1L684.3 454L685.1 454.8L685.9 453.9L686.7 455.2L687.5 456L688.3 457.2L689.1 457.5L689.9 459.5L690.6 460.9L691.4 461.9L692.2 463.3L693 464.3L693.8 466.6L694.6 465.9L695.4 464.9L696.2 464.6L697 465.1L697.7 465.7L698.5 465.9L699.3 465.3L700.1 464.8L700.9 464.6L701.7 463.9L702.5 463.9L703.3 463.3L704 464.5L704.8 462.2L705.6 458.7L706.4 458.4L707.2 459.2L708 458.4L708.8 459.4L709.6 458.1L710.4 454.1L711.1 454.6L711.9 453.1L712.7 448.6L713.5 445.5L714.3 443.9L715.1 443.7L715.9 441.3L716.7 439.2L717.5 437L718.2 431.8L719 428.7L719.8 427.9L720.6 426.6L721.4 427.1L722.2 422.5L723 417.1L723.8 417.5L724.6 416.7L725.3 414.1L726.1 412.9L726.9 409.2L727.7 409L728.5 405.1L729.3 406.5L730.1 405.9L730.9 405L731.6 404.4L732.4 402.2L733.2 396.3L734 393.6L734.8 390.7L735.6 389.5L736.4 388L737.2 386.4L738 390.1L738.7 396.4L739.5 399.8L740.3 400.3L741.1 395.4L741.9 396.5L742.7 396.6L743.5 398.7L744.3 398.6L745.1 403.4L745.8 397L746.6 405.4L747.4 394.6L748.2 395.5L749 396.7L749.8 399.2L750.6 401.5L751.4 409.6L752.1 412.2L752.9 421.9L753.7 422.5L754.5 422L755.3 421.1L756.1 421.7L756.9 422.8L757.7 422.1L758.5 423.2L759.2 422.8L760 425.3L760.8 429L761.6 431.7L762.4 432.5L763.2 433.8L764 435.9L764.8 437.3"></path><polyline points="47.20,524.80 48.00,524.70 48.80,524.70 49.60,524.70 50.40,524.70 51.20,524.60 51.90,524.60 52.70,524.60 53.50,524.50 54.30,524.50 55.10,524.40 55.90,524.30 56.70,524.10 57.50,524.00 58.30,523.90 59.00,523.70 59.80,523.50 60.60,523.30 61.40,523.00 62.20,522.70 63.00,522.30 63.80,521.90 64.60,521.40 65.40,520.90 66.10,520.30 66.90,519.70 67.70,519.10 68.50,518.40 69.30,518.00 70.10,517.60 70.90,517.00 71.70,516.30 72.40,516.00 73.20,515.60 74.00,515.50 74.80,515.20 75.60,515.00 76.40,515.10 77.20,515.20 78.00,515.10 78.80,515.10 79.50,515.10 80.30,514.30 81.10,514.30 81.90,514.10 82.70,514.20 83.50,514.00 84.30,514.00 85.10,514.00 85.90,514.70 86.60,514.60 87.40,514.80 88.20,514.70 89.00,514.90 89.80,514.80 90.60,514.70 91.40,514.80 92.20,514.90 92.90,514.90 93.70,515.00 94.50,515.00 95.30,515.10 96.10,515.10 96.90,515.10 97.70,515.00 98.50,514.90 99.30,514.70 100.00,514.60 100.80,514.50 101.60,514.40 102.40,514.40 103.20,514.40 104.00,514.30 104.80,514.40 105.60,514.30 106.40,514.30 107.10,514.10 107.90,514.00 108.70,513.80 109.50,513.60 110.30,513.20 111.10,513.00 111.90,512.90 112.70,512.70 113.50,512.40 114.20,512.40 115.00,512.50 115.80,512.50 116.60,512.30 117.40,512.00 118.20,511.50 119.00,511.30 119.80,511.10 120.50,510.50 121.30,510.30 122.10,510.00 122.90,509.80 123.70,509.90 124.50,509.70 125.30,509.70 126.10,509.60 126.90,509.20 127.60,509.30 128.40,509.40 129.20,509.30 130.00,508.90 130.80,508.50 131.60,508.20 132.40,508.10 133.20,508.00 134.00,507.00 134.70,506.10 135.50,506.40 136.30,506.10 137.10,505.70 137.90,505.20 138.70,504.50 139.50,504.30 140.30,504.50 141.00,503.50 141.80,503.30 142.60,503.00 143.40,502.20 144.20,501.80 145.00,501.60 145.80,501.40 146.60,501.10 147.40,500.80 148.10,500.30 148.90,500.30 149.70,500.00 150.50,499.40 151.30,499.00 152.10,498.90 152.90,498.40 153.70,498.20 154.50,498.00 155.20,497.60 156.00,497.50 156.80,497.10 157.60,496.80 158.40,496.50 159.20,496.10 160.00,495.30 160.80,494.70 161.60,493.90 162.30,493.60 163.10,493.60 163.90,493.10 164.70,492.80 165.50,492.90 166.30,492.80 167.10,492.80 167.90,492.80 168.60,492.50 169.40,493.00 170.20,493.00 171.00,492.90 171.80,492.80 172.60,492.90 173.40,492.50 174.20,492.50 175.00,492.00 175.70,492.00 176.50,492.00 177.30,491.90 178.10,491.50 178.90,491.80 179.70,492.20 180.50,492.60 181.30,492.70 182.10,492.60 182.80,493.00 183.60,493.80 184.40,493.50 185.20,493.70 186.00,493.40 186.80,493.60 187.60,493.60 188.40,493.30 189.10,492.90 189.90,492.90 190.70,492.60 191.50,492.00 192.30,491.60 193.10,491.60 193.90,491.60 194.70,491.30 195.50,491.10 196.20,490.90 197.00,491.60 197.80,492.00 198.60,491.90 199.40,491.60 200.20,491.30 201.00,491.00 201.80,490.70 202.60,489.90 203.30,489.30 204.10,489.00 204.90,488.80 205.70,488.60 206.50,488.50 207.30,488.40 208.10,488.50 208.90,488.50 209.70,488.30 210.40,488.20 211.20,488.20 212.00,488.30 212.80,488.50 213.60,488.40 214.40,488.40 215.20,488.20 216.00,488.20 216.70,488.30 217.50,488.00 218.30,487.80 219.10,486.90 219.90,486.30 220.70,485.90 221.50,485.20 222.30,484.60 223.10,483.60 223.80,483.10 224.60,483.40 225.40,483.40 226.20,482.80 227.00,482.00 227.80,481.10 228.60,480.80 229.40,480.00 230.20,478.50 230.90,477.30 231.70,476.20 232.50,474.90 233.30,473.40 234.10,471.90 234.90,471.40 235.70,469.50 236.50,468.00 237.20,466.60 238.00,465.30 238.80,463.90 239.60,463.60 240.40,462.20 241.20,461.00 242.00,459.30 242.80,459.00 243.60,457.80 244.30,456.90 245.10,454.60 245.90,453.70 246.70,454.40 247.50,454.30 248.30,452.70 249.10,452.30 249.90,451.70 250.70,451.90 251.40,451.90 252.20,451.60 253.00,451.10 253.80,451.10 254.60,450.90 255.40,450.60 256.20,450.50 257.00,450.40 257.70,450.20 258.50,450.40 259.30,450.50 260.10,451.70 260.90,451.30 261.70,451.00 262.50,451.10 263.30,451.60 264.10,451.20 264.80,450.70 265.60,448.90 266.40,448.90 267.20,448.30 268.00,447.40 268.80,446.90 269.60,446.60 270.40,446.20 271.20,446.50 271.90,446.30 272.70,446.20 273.50,446.30 274.30,446.00 275.10,445.70 275.90,444.80 276.70,443.60 277.50,443.30 278.30,443.50 279.00,443.40 279.80,443.50 280.60,443.40 281.40,444.10 282.20,444.90 283.00,448.50 283.80,450.80 284.60,453.20 285.30,454.00 286.10,453.70 286.90,452.90 287.70,450.30 288.50,449.10 289.30,447.70 290.10,445.80 290.90,444.80 291.70,443.50 292.40,442.40 293.20,441.80 294.00,437.40 294.80,434.20 295.60,432.80 296.40,431.80 297.20,432.60 298.00,433.50 298.80,435.50 299.50,436.40 300.30,438.20 301.10,439.50 301.90,441.20 302.70,443.00 303.50,444.00 304.30,445.60 305.10,447.80 305.80,449.20 306.60,450.40 307.40,451.00 308.20,451.60 309.00,453.10 309.80,454.10 310.60,455.40 311.40,456.50 312.20,457.70 312.90,458.40 313.70,460.10 314.50,461.50 315.30,464.00 316.10,465.00 316.90,466.40 317.70,467.20 318.50,469.00 319.30,470.10 320.00,471.60 320.80,472.10 321.60,474.00 322.40,475.00 323.20,475.80 324.00,476.80 324.80,477.70 325.60,478.60 326.40,479.20 327.10,479.60 327.90,479.70 328.70,479.50 329.50,479.20 330.30,478.60 331.10,477.60 331.90,476.80 332.70,476.20 333.40,475.90 334.20,476.10 335.00,475.90 335.80,476.00 336.60,476.00 337.40,475.90 338.20,475.80 339.00,475.50 339.80,474.30 340.50,474.30 341.30,473.80 342.10,473.50 342.90,473.00 343.70,472.30 344.50,471.50 345.30,471.70 346.10,470.80 346.90,469.90 347.60,468.30 348.40,467.30 349.20,466.00 350.00,465.20 350.80,463.80 351.60,462.60 352.40,461.90 353.20,460.40 353.90,458.50 354.70,457.10 355.50,455.60 356.30,454.60 357.10,454.00 357.90,453.00 358.70,452.20 359.50,451.20 360.30,451.10 361.00,451.90 361.80,450.70 362.60,450.00 363.40,449.20 364.20,449.40 365.00,447.20 365.80,445.20 366.60,442.90 367.40,440.20 368.10,438.10 368.90,435.40 369.70,432.70 370.50,433.00 371.30,431.00 372.10,428.80 372.90,429.00 373.70,427.60 374.40,426.30 375.20,424.90 376.00,423.50 376.80,422.60 377.60,422.10 378.40,421.60 379.20,421.60 380.00,421.60 380.80,421.40 381.50,421.50 382.30,421.80 383.10,422.40 383.90,423.10 384.70,423.10 385.50,424.00 386.30,425.10 387.10,425.40 387.90,426.40 388.60,426.60 389.40,427.20 390.20,428.40 391.00,429.50 391.80,430.80 392.60,433.30 393.40,435.50 394.20,438.30 395.00,440.10 395.70,441.60 396.50,443.50 397.30,445.20 398.10,447.00 398.90,448.50 399.70,449.60 400.50,450.70 401.30,452.40 402.00,454.00 402.80,455.80 403.60,457.30 404.40,459.50 405.20,461.10 406.00,462.80 406.80,463.90 407.60,465.20 408.40,466.70 409.10,467.90 409.90,469.30 410.70,470.80 411.50,472.00 412.30,473.20 413.10,474.80 413.90,476.00 414.70,476.50 415.50,476.60 416.20,477.10 417.00,477.40 417.80,477.60 418.60,477.60 419.40,478.10 420.20,479.10 421.00,479.40 421.80,479.80 422.50,479.80 423.30,480.00 424.10,479.40 424.90,479.20 425.70,479.00 426.50,478.70 427.30,478.50 428.10,478.40 428.90,477.70 429.60,478.20 430.40,478.20 431.20,477.70 432.00,477.30 432.80,477.10 433.60,476.80 434.40,476.00 435.20,474.70 436.00,473.60 436.70,472.70 437.50,471.50 438.30,470.60 439.10,469.90 439.90,468.90 440.70,467.50 441.50,466.20 442.30,464.50 443.10,463.10 443.80,461.80 444.60,460.90 445.40,460.00 446.20,459.80 447.00,459.50 447.80,459.70 448.60,457.40 449.40,457.30 450.10,456.90 450.90,455.90 451.70,454.60 452.50,452.90 453.30,451.50 454.10,451.50 454.90,451.00 455.70,450.30 456.50,449.80 457.20,449.30 458.00,448.70 458.80,448.00 459.60,446.40 460.40,445.60 461.20,445.90 462.00,445.00 462.80,444.80 463.60,443.90 464.30,443.60 465.10,443.90 465.90,444.00 466.70,444.00 467.50,443.20 468.30,442.60 469.10,442.50 469.90,442.40 470.60,442.70 471.40,442.50 472.20,442.80 473.00,442.60 473.80,442.70 474.60,442.60 475.40,442.20 476.20,442.80 477.00,442.80 477.70,442.80 478.50,443.10 479.30,444.10 480.10,444.40 480.90,445.40 481.70,445.90 482.50,447.00 483.30,447.00 484.10,450.50 484.80,449.80 485.60,451.30 486.40,452.00 487.20,453.10 488.00,453.60 488.80,455.00 489.60,453.20 490.40,455.10 491.20,456.40 491.90,457.30 492.70,457.90 493.50,459.20 494.30,459.40 495.10,460.20 495.90,461.30 496.70,461.90 497.50,462.60 498.20,463.90 499.00,464.40 499.80,464.50 500.60,465.30 501.40,466.00 502.20,466.80 503.00,467.80 503.80,468.30 504.60,468.70 505.30,469.60 506.10,470.20 506.90,470.70 507.70,470.40 508.50,470.90 509.30,471.80 510.10,471.90 510.90,471.80 511.70,472.90 512.40,472.60 513.20,473.50 514.00,473.60 514.80,473.90 515.60,473.90 516.40,473.90 517.20,473.30 518.00,473.40 518.70,473.00 519.50,472.90 520.30,472.30 521.10,471.70 521.90,471.70 522.70,471.40 523.50,471.50 524.30,470.80 525.10,470.40 525.80,470.40 526.60,470.20 527.40,469.40 528.20,469.50 529.00,469.90 529.80,469.70 530.60,469.10 531.40,468.60 532.20,467.80 532.90,467.80 533.70,467.00 534.50,465.80 535.30,464.90 536.10,464.90 536.90,463.50 537.70,463.50 538.50,463.20 539.20,462.20 540.00,461.50 540.80,460.80 541.60,459.00 542.40,458.70 543.20,457.60 544.00,456.90 544.80,455.60 545.60,454.30 546.30,453.60 547.10,454.00 547.90,454.00 548.70,454.30 549.50,454.10 550.30,453.50 551.10,453.10 551.90,452.30 552.70,450.30 553.40,448.20 554.20,447.30 555.00,446.80 555.80,447.40 556.60,446.70 557.40,446.50 558.20,446.70 559.00,447.40 559.80,447.70 560.50,447.70 561.30,447.50 562.10,447.60 562.90,447.10 563.70,446.20 564.50,444.90 565.30,444.00 566.10,443.00 566.80,440.70 567.60,438.50 568.40,435.40 569.20,430.60 570.00,428.40 570.80,426.00 571.60,424.70 572.40,415.20 573.20,404.80 573.90,390.70 574.70,373.90 575.50,358.70 576.30,349.30 577.10,343.10 577.90,323.80 578.70,302.70 579.50,287.00 580.30,274.10 581.00,252.50 581.80,235.30 582.60,215.40 583.40,201.10 584.20,191.80 585.00,176.40 585.80,167.20 586.60,160.70 587.30,155.00 588.10,152.40 588.90,161.60 589.70,148.50 590.50,137.10 591.30,127.40 592.10,118.30 592.90,113.40 593.70,108.40 594.40,94.80 595.20,96.80 596.00,102.60 596.80,103.10 597.60,106.10 598.40,106.70 599.20,109.80 600.00,122.00 600.80,131.40 601.50,141.80 602.30,151.00 603.10,163.70 603.90,171.30 604.70,178.50 605.50,180.40 606.30,189.80 607.10,203.20 607.90,210.00 608.60,219.50 609.40,226.40 610.20,232.90 611.00,249.20 611.80,262.20 612.60,265.60 613.40,279.00 614.20,286.80 614.90,291.60 615.70,295.50 616.50,301.00 617.30,304.60 618.10,310.40 618.90,315.30 619.70,321.20 620.50,325.00 621.30,327.70 622.00,329.00 622.80,330.30 623.60,334.90 624.40,335.20 625.20,333.30 626.00,332.70 626.80,331.50 627.60,329.60 628.40,327.10 629.10,323.90 629.90,322.20 630.70,320.20 631.50,314.60 632.30,313.50 633.10,310.30 633.90,309.10 634.70,302.00 635.40,298.30 636.20,297.90 637.00,299.00 637.80,302.40 638.60,304.70 639.40,301.60 640.20,309.30 641.00,314.60 641.80,316.90 642.50,323.40 643.30,325.80 644.10,325.90 644.90,329.90 645.70,333.60 646.50,333.00 647.30,343.60 648.10,349.10 648.90,351.80 649.60,361.80 650.40,368.70 651.20,371.90 652.00,381.90 652.80,382.20 653.60,387.10 654.40,390.90 655.20,390.40 655.90,395.30 656.70,401.70 657.50,407.00 658.30,415.10 659.10,418.60 659.90,421.50 660.70,429.90 661.50,432.70 662.30,434.60 663.00,435.70 663.80,433.70 664.60,435.30 665.40,436.00 666.20,434.20 667.00,439.60 667.80,442.00 668.60,445.00 669.40,448.10 670.10,450.80 670.90,452.10 671.70,454.30 672.50,453.90 673.30,457.40 674.10,459.90 674.90,460.10 675.70,460.40 676.50,461.00 677.20,456.40 678.00,457.00 678.80,455.80 679.60,455.00 680.40,455.90 681.20,454.20 682.00,452.50 682.80,454.40 683.50,455.10 684.30,454.00 685.10,454.80 685.90,453.90 686.70,455.20 687.50,456.00 688.30,457.20 689.10,457.50 689.90,459.50 690.60,460.90 691.40,461.90 692.20,463.30 693.00,464.30 693.80,466.60 694.60,465.90 695.40,464.90 696.20,464.60 697.00,465.10 697.70,465.70 698.50,465.90 699.30,465.30 700.10,464.80 700.90,464.60 701.70,463.90 702.50,463.90 703.30,463.30 704.00,464.50 704.80,462.20 705.60,458.70 706.40,458.40 707.20,459.20 708.00,458.40 708.80,459.40 709.60,458.10 710.40,454.10 711.10,454.60 711.90,453.10 712.70,448.60 713.50,445.50 714.30,443.90 715.10,443.70 715.90,441.30 716.70,439.20 717.50,437.00 718.20,431.80 719.00,428.70 719.80,427.90 720.60,426.60 721.40,427.10 722.20,422.50 723.00,417.10 723.80,417.50 724.60,416.70 725.30,414.10 726.10,412.90 726.90,409.20 727.70,409.00 728.50,405.10 729.30,406.50 730.10,405.90 730.90,405.00 731.60,404.40 732.40,402.20 733.20,396.30 734.00,393.60 734.80,390.70 735.60,389.50 736.40,388.00 737.20,386.40 738.00,390.10 738.70,396.40 739.50,399.80 740.30,400.30 741.10,395.40 741.90,396.50 742.70,396.60 743.50,398.70 744.30,398.60 745.10,403.40 745.80,397.00 746.60,405.40 747.40,394.60 748.20,395.50 749.00,396.70 749.80,399.20 750.60,401.50 751.40,409.60 752.10,412.20 752.90,421.90 753.70,422.50 754.50,422.00 755.30,421.10 756.10,421.70 756.90,422.80 757.70,422.10 758.50,423.20 759.20,422.80 760.00,425.30 760.80,429.00 761.60,431.70 762.40,432.50 763.20,433.80 764.00,435.90 764.80,437.30" stroke-linejoin="round" stroke-width="1.5" stroke="#00823F" fill="none" stroke-linecap="butt"></polyline></g></g></g></g><g class="SourcesFooter" style="fill:#777"><g style="fill:#777"><text font-size="12.60" x="15.0" y="582.7"><tspan x="15" y="582.732">Source: Johns Hopkins University CSSE COVID-19 Data</tspan></text></g><text font-size="12.60" x="796.4" y="582.7"><tspan x="796.444" y="582.732"><a style="fill: #777;" class="cclogo" href="http://creativecommons.org/licenses/by/4.0/deed.en_US" target="_blank">CC BY</a></tspan></text></g></svg>