<svg xmlns="http://www.w3.org/2000/svg" version="1.1" style="font-family:Lato, &#x27;Helvetica Neue&#x27;, Helvetica, Arial, sans-serif;font-size:18px;background-color:white;text-rendering:geometricPrecision;-webkit-font-smoothing:antialiased" width="850" height="600" viewBox="0 0 850 600"><g class="HeaderView"><g transform="translate(774, 15) scale(0.29)"><svg className="owidLog" width="210" height="120" viewBox="0 0 210 120" fill="none" xmlns="http://www.w3.org/2000/svg">
<g clip-path="url(#clip0)">
  <path d="M0 0h210v107.89H0V0z" fill="#002147" />
  <path
    d="M40.98 32.25c0 2.36-.38 4.53-1.12 6.51a14.26 14.26 0 0 1-8.1 8.4c-1.9.78-4.02 1.17-6.34 1.17-2.31 0-4.42-.39-6.33-1.17a14.31 14.31 0 0 1-8.08-8.4 18.29 18.29 0 0 1-1.12-6.51c0-2.36.38-4.53 1.12-6.5.75-1.97 1.8-3.67 3.17-5.1a14.32 14.32 0 0 1 4.9-3.34c1.92-.8 4.03-1.19 6.34-1.19 2.32 0 4.43.4 6.34 1.19 1.92.8 3.56 1.9 4.93 3.34a14.87 14.87 0 0 1 3.17 5.1 18.1 18.1 0 0 1 1.12 6.5zm-4.38 0c0-1.94-.26-3.68-.8-5.22a10.91 10.91 0 0 0-2.24-3.89 9.68 9.68 0 0 0-3.52-2.46 11.95 11.95 0 0 0-4.62-.86c-1.68 0-3.21.28-4.6.86a9.88 9.88 0 0 0-3.54 2.46 10.91 10.91 0 0 0-2.24 3.9c-.53 1.53-.8 3.27-.8 5.2 0 1.94.27 3.68.8 5.22a11.17 11.17 0 0 0 2.24 3.9 10.01 10.01 0 0 0 3.55 2.44c1.38.56 2.9.83 4.6.83s3.24-.27 4.61-.83a9.8 9.8 0 0 0 3.52-2.44 11.17 11.17 0 0 0 2.25-3.9c.53-1.54.8-3.28.8-5.21zm26.22-6.54V48H60.5c-.56 0-.9-.27-1.05-.81l-.31-2.4a12.45 12.45 0 0 1-3.26 2.6c-1.2.64-2.58.96-4.13.96-1.22 0-2.3-.2-3.24-.6a6.52 6.52 0 0 1-2.33-1.7 7.37 7.37 0 0 1-1.43-2.67c-.3-1.04-.46-2.2-.46-3.45V25.7h3.91v14.22c0 1.68.38 2.99 1.15 3.91.77.93 1.96 1.39 3.54 1.39 1.16 0 2.24-.27 3.23-.82a10.42 10.42 0 0 0 2.8-2.28V25.7h3.91zm8.61 4.47a9.94 9.94 0 0 1 2.6-3.56 5.64 5.64 0 0 1 3.76-1.3c.47 0 .92.05 1.34.15.44.1.83.27 1.17.49l-.3 2.92c-.09.37-.3.55-.66.55-.2 0-.5-.04-.9-.13a6.21 6.21 0 0 0-3.24.18 4.23 4.23 0 0 0-1.47.92c-.42.4-.81.9-1.17 1.5-.33.58-.64 1.26-.92 2.02V48H67.7V25.71h2.25c.42 0 .72.08.88.25.16.16.27.44.33.83l.26 3.39zm61.16-13.7L122.75 48h-3.82l-7.99-24.05a21.95 21.95 0 0 1-.42-1.58 38.36 38.36 0 0 1-.44 1.58L102.05 48h-3.83L88.4 16.47h3.54c.38 0 .7.1.95.29.26.2.43.43.5.73l6.52 21.9.28 1.28.29 1.46.3-1.46.38-1.27 7.41-21.91c.1-.25.26-.48.51-.69.27-.22.58-.33.95-.33h1.23c.38 0 .69.1.92.29a1.77 1.77 0 0 1 .53.73l7.4 21.9a28.4 28.4 0 0 1 .68 2.62 29.52 29.52 0 0 1 .52-2.61l6.54-21.91a1.31 1.31 0 0 1 .48-.7c.27-.21.58-.32.95-.32h3.32zm9.35 8.88c1.63 0 3.1.27 4.4.82a9.43 9.43 0 0 1 5.46 5.94c.5 1.4.74 2.98.74 4.73 0 1.76-.25 3.34-.74 4.75a9.43 9.43 0 0 1-5.46 5.92c-1.3.52-2.77.79-4.4.79-1.64 0-3.12-.27-4.44-.8a9.42 9.42 0 0 1-3.35-2.3c-.92-1-1.63-2.2-2.13-3.61-.49-1.41-.73-3-.73-4.75s.24-3.33.73-4.73c.5-1.43 1.2-2.64 2.13-3.63.93-1 2.04-1.77 3.35-2.31 1.32-.55 2.8-.82 4.44-.82zm0 19.89c2.2 0 3.84-.73 4.93-2.2 1.08-1.48 1.63-3.54 1.63-6.18 0-2.66-.55-4.72-1.63-6.2-1.09-1.49-2.73-2.23-4.93-2.23-1.12 0-2.09.2-2.93.57a5.71 5.71 0 0 0-2.06 1.65c-.55.72-.96 1.61-1.24 2.67-.26 1.04-.4 2.22-.4 3.54 0 2.64.55 4.7 1.64 6.18 1.1 1.47 2.76 2.2 4.99 2.2zm17.97-15.07a9.94 9.94 0 0 1 2.6-3.56 5.64 5.64 0 0 1 3.76-1.3c.47 0 .91.05 1.34.15.44.1.83.27 1.16.49l-.28 2.92c-.09.37-.31.55-.66.55-.2 0-.5-.04-.9-.13a6.2 6.2 0 0 0-3.24.18 4.23 4.23 0 0 0-1.47.92c-.43.4-.82.9-1.17 1.5a13.1 13.1 0 0 0-.92 2.02V48h-3.94V25.71h2.24c.43 0 .72.08.88.25.17.16.28.44.33.83l.27 3.39zm15.04-14.59V48h-3.92V15.6h3.92zm19.55 15.43a6.22 6.22 0 0 0-2.38-2.05 6.7 6.7 0 0 0-2.86-.6c-2.07 0-3.66.75-4.77 2.23-1.12 1.48-1.68 3.6-1.68 6.33 0 1.46.13 2.7.38 3.74a7.29 7.29 0 0 0 1.1 2.56 4.35 4.35 0 0 0 1.78 1.45c.7.3 1.5.46 2.4.46 1.29 0 2.41-.3 3.36-.88a9.6 9.6 0 0 0 2.67-2.49V31.02zm3.91-15.43V48h-2.33c-.56 0-.9-.27-1.06-.81l-.35-2.71a12.13 12.13 0 0 1-3.25 2.77 8.28 8.28 0 0 1-4.23 1.06 7.31 7.31 0 0 1-6.14-2.9c-.73-.96-1.3-2.15-1.69-3.57a18.35 18.35 0 0 1 .07-9.48 11.29 11.29 0 0 1 1.89-3.7 8.7 8.7 0 0 1 7.06-3.34 7.96 7.96 0 0 1 6.12 2.62V15.59h3.91zM46.61 70.71V93H42.7V70.71h3.91zm.84-7c0 .39-.08.75-.24 1.09-.15.32-.35.61-.62.88-.25.25-.55.44-.9.59a2.67 2.67 0 0 1-2.16 0 2.9 2.9 0 0 1-1.45-1.47 2.67 2.67 0 0 1 0-2.16c.15-.35.35-.65.6-.9.25-.27.53-.47.85-.62a2.67 2.67 0 0 1 2.16 0c.35.15.65.35.9.62.27.25.47.55.62.9.16.34.24.7.24 1.08zm7.97 10.24c.49-.54 1-1.04 1.54-1.48a9.85 9.85 0 0 1 3.66-1.84 8.96 8.96 0 0 1 5.43.35c.94.4 1.72.97 2.33 1.71.63.74 1.11 1.62 1.43 2.67.32 1.04.49 2.19.49 3.45V93h-3.94V78.81c0-1.69-.4-3-1.17-3.92-.76-.93-1.93-1.4-3.5-1.4-1.15 0-2.24.27-3.25.83-1 .56-1.92 1.31-2.77 2.27V93h-3.94V70.71h2.35c.56 0 .9.28 1.04.82l.3 2.42zm57.7 3.3c0 2.36-.37 4.5-1.11 6.44a14.3 14.3 0 0 1-3.17 4.98c-1.37 1.37-3 2.45-4.93 3.2-1.9.76-4.02 1.13-6.33 1.13H85.8V61.47h11.77c2.31 0 4.42.39 6.33 1.15a13.8 13.8 0 0 1 8.1 8.18 17.75 17.75 0 0 1 1.12 6.45zm-4.37 0c0-1.94-.26-3.67-.8-5.2a10.94 10.94 0 0 0-2.23-3.87 9.57 9.57 0 0 0-3.53-2.42 12.23 12.23 0 0 0-4.61-.83h-7.5v24.62h7.5c1.7 0 3.24-.28 4.61-.84a9.7 9.7 0 0 0 3.53-2.4 10.94 10.94 0 0 0 2.24-3.87c.53-1.53.8-3.26.8-5.2zm19.8 5.72c-1.8.06-3.34.2-4.62.44-1.26.22-2.3.51-3.1.88-.8.36-1.37.8-1.74 1.3-.35.5-.53 1.05-.53 1.67 0 .58.1 1.1.3 1.52a3 3 0 0 0 .76 1.05c.34.27.73.46 1.17.6a6.13 6.13 0 0 0 1.45.17 7.28 7.28 0 0 0 3.5-.81 11.95 11.95 0 0 0 2.82-2.2v-4.62zm-12.65-9.11a12.73 12.73 0 0 1 3.98-2.66c1.43-.59 3-.88 4.73-.88 1.25 0 2.36.2 3.33.61a6.81 6.81 0 0 1 3.94 4.38c.33 1.04.5 2.19.5 3.43V93h-1.74a1.8 1.8 0 0 1-.88-.18c-.2-.13-.36-.38-.48-.74l-.44-2.12-1.72 1.46a9.48 9.48 0 0 1-3.74 1.7c-.69.15-1.46.23-2.3.23-.87 0-1.69-.12-2.45-.35a5.34 5.34 0 0 1-3.34-2.93 6.64 6.64 0 0 1-.49-2.64c0-.88.25-1.72.73-2.53a6.33 6.33 0 0 1 2.35-2.17c1.09-.63 2.5-1.15 4.25-1.54 1.75-.41 3.89-.65 6.42-.7v-1.75c0-1.73-.37-3.03-1.12-3.91-.75-.9-1.84-1.34-3.28-1.34-.97 0-1.78.12-2.44.37-.64.23-1.2.5-1.7.81l-1.23.82c-.33.23-.67.35-1 .35-.27 0-.5-.07-.69-.2a2.1 2.1 0 0 1-.48-.53l-.7-1.25zm27.67 19.5c-1.76 0-3.12-.5-4.07-1.48-.94-.98-1.41-2.4-1.41-4.25V74h-2.68a.9.9 0 0 1-.6-.2c-.16-.14-.24-.36-.24-.66v-1.56l3.65-.46.9-6.89c.05-.22.14-.4.29-.52a.88.88 0 0 1 .62-.22H142v7.67h6.44V74H142v13.38c0 .94.22 1.63.68 2.09.45.45 1.04.68 1.76.68a3.21 3.21 0 0 0 1.85-.53l.55-.35c.16-.12.3-.18.41-.18.2 0 .4.13.55.38l1.15 1.87a7.45 7.45 0 0 1-2.44 1.5 8.53 8.53 0 0 1-2.95.52zm19.68-10.4c-1.8.07-3.34.21-4.62.45-1.26.22-2.3.51-3.1.88-.8.36-1.37.8-1.74 1.3-.35.5-.53 1.05-.53 1.67 0 .58.1 1.1.3 1.52a2.9 2.9 0 0 0 .76 1.05c.34.27.73.46 1.17.6a6.13 6.13 0 0 0 1.45.17 7.3 7.3 0 0 0 3.5-.81 12.04 12.04 0 0 0 2.82-2.2v-4.62zm-12.65-9.1a12.72 12.72 0 0 1 3.99-2.66c1.42-.59 3-.88 4.72-.88 1.25 0 2.36.2 3.33.61a6.81 6.81 0 0 1 3.94 4.38c.33 1.04.5 2.19.5 3.43V93h-1.74a1.8 1.8 0 0 1-.88-.18c-.2-.13-.36-.38-.48-.74l-.44-2.12-1.72 1.46a9.48 9.48 0 0 1-3.74 1.7c-.69.15-1.46.23-2.3.23-.87 0-1.69-.12-2.45-.35a5.33 5.33 0 0 1-3.34-2.93 6.62 6.62 0 0 1-.49-2.64c0-.88.25-1.72.73-2.53a6.33 6.33 0 0 1 2.35-2.17c1.09-.63 2.5-1.15 4.25-1.54 1.74-.41 3.89-.65 6.42-.7v-1.75c0-1.73-.37-3.03-1.12-3.91-.75-.9-1.84-1.34-3.28-1.34-.97 0-1.78.12-2.44.37-.64.23-1.2.5-1.7.81l-1.22.82c-.34.23-.68.35-1.02.35-.26 0-.49-.07-.68-.2a1.88 1.88 0 0 1-.48-.53l-.7-1.25zM40.98 32.25c0 2.36-.38 4.53-1.12 6.51a14.26 14.26 0 0 1-8.1 8.4c-1.9.78-4.02 1.17-6.34 1.17-2.31 0-4.42-.39-6.33-1.17a14.31 14.31 0 0 1-8.08-8.4 18.29 18.29 0 0 1-1.12-6.51c0-2.36.38-4.53 1.12-6.5.75-1.97 1.8-3.67 3.17-5.1a14.32 14.32 0 0 1 4.9-3.34c1.92-.8 4.03-1.19 6.34-1.19 2.32 0 4.43.4 6.34 1.19 1.92.8 3.56 1.9 4.93 3.34a14.87 14.87 0 0 1 3.17 5.1 18.1 18.1 0 0 1 1.12 6.5zm-4.38 0c0-1.94-.26-3.68-.8-5.22a10.91 10.91 0 0 0-2.24-3.89 9.68 9.68 0 0 0-3.52-2.46 11.95 11.95 0 0 0-4.62-.86c-1.68 0-3.21.28-4.6.86a9.88 9.88 0 0 0-3.54 2.46 10.91 10.91 0 0 0-2.24 3.9c-.53 1.53-.8 3.27-.8 5.2 0 1.94.27 3.68.8 5.22a11.17 11.17 0 0 0 2.24 3.9 10.01 10.01 0 0 0 3.55 2.44c1.38.56 2.9.83 4.6.83s3.24-.27 4.61-.83a9.8 9.8 0 0 0 3.52-2.44 11.17 11.17 0 0 0 2.25-3.9c.53-1.54.8-3.28.8-5.21zm26.22-6.54V48H60.5c-.56 0-.9-.27-1.05-.81l-.31-2.4a12.45 12.45 0 0 1-3.26 2.6c-1.2.64-2.58.96-4.13.96-1.22 0-2.3-.2-3.24-.6a6.52 6.52 0 0 1-2.33-1.7 7.37 7.37 0 0 1-1.43-2.67c-.3-1.04-.46-2.2-.46-3.45V25.7h3.91v14.22c0 1.68.38 2.99 1.15 3.91.77.93 1.96 1.39 3.54 1.39 1.16 0 2.24-.27 3.23-.82a10.42 10.42 0 0 0 2.8-2.28V25.7h3.91zm8.61 4.47a9.94 9.94 0 0 1 2.6-3.56 5.64 5.64 0 0 1 3.76-1.3c.47 0 .92.05 1.34.15.44.1.83.27 1.17.49l-.3 2.92c-.09.37-.3.55-.66.55-.2 0-.5-.04-.9-.13a6.21 6.21 0 0 0-3.24.18 4.23 4.23 0 0 0-1.47.92c-.42.4-.81.9-1.17 1.5-.33.58-.64 1.26-.92 2.02V48H67.7V25.71h2.25c.42 0 .72.08.88.25.16.16.27.44.33.83l.26 3.39zm61.16-13.7L122.75 48h-3.82l-7.99-24.05a21.95 21.95 0 0 1-.42-1.58 38.36 38.36 0 0 1-.44 1.58L102.05 48h-3.83L88.4 16.47h3.54c.38 0 .7.1.95.29.26.2.43.43.5.73l6.52 21.9.28 1.28.29 1.46.3-1.46.38-1.27 7.41-21.91c.1-.25.26-.48.51-.69.27-.22.58-.33.95-.33h1.23c.38 0 .69.1.92.29a1.77 1.77 0 0 1 .53.73l7.4 21.9a28.4 28.4 0 0 1 .68 2.62 29.52 29.52 0 0 1 .52-2.61l6.54-21.91a1.31 1.31 0 0 1 .48-.7c.27-.21.58-.32.95-.32h3.32zm9.35 8.88c1.63 0 3.1.27 4.4.82a9.43 9.43 0 0 1 5.46 5.94c.5 1.4.74 2.98.74 4.73 0 1.76-.25 3.34-.74 4.75a9.43 9.43 0 0 1-5.46 5.92c-1.3.52-2.77.79-4.4.79-1.64 0-3.12-.27-4.44-.8a9.42 9.42 0 0 1-3.35-2.3c-.92-1-1.63-2.2-2.13-3.61-.49-1.41-.73-3-.73-4.75s.24-3.33.73-4.73c.5-1.43 1.2-2.64 2.13-3.63.93-1 2.04-1.77 3.35-2.31 1.32-.55 2.8-.82 4.44-.82zm0 19.89c2.2 0 3.84-.73 4.93-2.2 1.08-1.48 1.63-3.54 1.63-6.18 0-2.66-.55-4.72-1.63-6.2-1.09-1.49-2.73-2.23-4.93-2.23-1.12 0-2.09.2-2.93.57a5.71 5.71 0 0 0-2.06 1.65c-.55.72-.96 1.61-1.24 2.67-.26 1.04-.4 2.22-.4 3.54 0 2.64.55 4.7 1.64 6.18 1.1 1.47 2.76 2.2 4.99 2.2zm17.97-15.07a9.94 9.94 0 0 1 2.6-3.56 5.64 5.64 0 0 1 3.76-1.3c.47 0 .91.05 1.34.15.44.1.83.27 1.16.49l-.28 2.92c-.09.37-.31.55-.66.55-.2 0-.5-.04-.9-.13a6.2 6.2 0 0 0-3.24.18 4.23 4.23 0 0 0-1.47.92c-.43.4-.82.9-1.17 1.5a13.1 13.1 0 0 0-.92 2.02V48h-3.94V25.71h2.24c.43 0 .72.08.88.25.17.16.28.44.33.83l.27 3.39zm15.04-14.59V48h-3.92V15.6h3.92zm19.55 15.43a6.22 6.22 0 0 0-2.38-2.05 6.7 6.7 0 0 0-2.86-.6c-2.07 0-3.66.75-4.77 2.23-1.12 1.48-1.68 3.6-1.68 6.33 0 1.46.13 2.7.38 3.74a7.29 7.29 0 0 0 1.1 2.56 4.35 4.35 0 0 0 1.78 1.45c.7.3 1.5.46 2.4.46 1.29 0 2.41-.3 3.36-.88a9.6 9.6 0 0 0 2.67-2.49V31.02zm3.91-15.43V48h-2.33c-.56 0-.9-.27-1.06-.81l-.35-2.71a12.13 12.13 0 0 1-3.25 2.77 8.28 8.28 0 0 1-4.23 1.06 7.31 7.31 0 0 1-6.14-2.9c-.73-.96-1.3-2.15-1.69-3.57a18.35 18.35 0 0 1 .07-9.48 11.29 11.29 0 0 1 1.89-3.7 8.7 8.7 0 0 1 7.06-3.34 7.96 7.96 0 0 1 6.12 2.62V15.59h3.91zM46.61 70.71V93H42.7V70.71h3.91zm.84-7c0 .39-.08.75-.24 1.09-.15.32-.35.61-.62.88-.25.25-.55.44-.9.59a2.67 2.67 0 0 1-2.16 0 2.9 2.9 0 0 1-1.45-1.47 2.67 2.67 0 0 1 0-2.16c.15-.35.35-.65.6-.9.25-.27.53-.47.85-.62a2.67 2.67 0 0 1 2.16 0c.35.15.65.35.9.62.27.25.47.55.62.9.16.34.24.7.24 1.08zm7.97 10.24c.49-.54 1-1.04 1.54-1.48a9.85 9.85 0 0 1 3.66-1.84 8.96 8.96 0 0 1 5.43.35c.94.4 1.72.97 2.33 1.71.63.74 1.11 1.62 1.43 2.67.32 1.04.49 2.19.49 3.45V93h-3.94V78.81c0-1.69-.4-3-1.17-3.92-.76-.93-1.93-1.4-3.5-1.4-1.15 0-2.24.27-3.25.83-1 .56-1.92 1.31-2.77 2.27V93h-3.94V70.71h2.35c.56 0 .9.28 1.04.82l.3 2.42zm57.7 3.3c0 2.36-.37 4.5-1.11 6.44a14.3 14.3 0 0 1-3.17 4.98c-1.37 1.37-3 2.45-4.93 3.2-1.9.76-4.02 1.13-6.33 1.13H85.8V61.47h11.77c2.31 0 4.42.39 6.33 1.15a13.8 13.8 0 0 1 8.1 8.18 17.75 17.75 0 0 1 1.12 6.45zm-4.37 0c0-1.94-.26-3.67-.8-5.2a10.94 10.94 0 0 0-2.23-3.87 9.57 9.57 0 0 0-3.53-2.42 12.23 12.23 0 0 0-4.61-.83h-7.5v24.62h7.5c1.7 0 3.24-.28 4.61-.84a9.7 9.7 0 0 0 3.53-2.4 10.94 10.94 0 0 0 2.24-3.87c.53-1.53.8-3.26.8-5.2zm19.8 5.72c-1.8.06-3.34.2-4.62.44-1.26.22-2.3.51-3.1.88-.8.36-1.37.8-1.74 1.3-.35.5-.53 1.05-.53 1.67 0 .58.1 1.1.3 1.52a3 3 0 0 0 .76 1.05c.34.27.73.46 1.17.6a6.13 6.13 0 0 0 1.45.17 7.28 7.28 0 0 0 3.5-.81 11.95 11.95 0 0 0 2.82-2.2v-4.62zm-12.65-9.11a12.73 12.73 0 0 1 3.98-2.66c1.43-.59 3-.88 4.73-.88 1.25 0 2.36.2 3.33.61a6.81 6.81 0 0 1 3.94 4.38c.33 1.04.5 2.19.5 3.43V93h-1.74a1.8 1.8 0 0 1-.88-.18c-.2-.13-.36-.38-.48-.74l-.44-2.12-1.72 1.46a9.48 9.48 0 0 1-3.74 1.7c-.69.15-1.46.23-2.3.23-.87 0-1.69-.12-2.45-.35a5.34 5.34 0 0 1-3.34-2.93 6.64 6.64 0 0 1-.49-2.64c0-.88.25-1.72.73-2.53a6.33 6.33 0 0 1 2.35-2.17c1.09-.63 2.5-1.15 4.25-1.54 1.75-.41 3.89-.65 6.42-.7v-1.75c0-1.73-.37-3.03-1.12-3.91-.75-.9-1.84-1.34-3.28-1.34-.97 0-1.78.12-2.44.37-.64.23-1.2.5-1.7.81l-1.23.82c-.33.23-.67.35-1 .35-.27 0-.5-.07-.69-.2a2.1 2.1 0 0 1-.48-.53l-.7-1.25zm27.67 19.5c-1.76 0-3.12-.5-4.07-1.48-.94-.98-1.41-2.4-1.41-4.25V74h-2.68a.9.9 0 0 1-.6-.2c-.16-.14-.24-.36-.24-.66v-1.56l3.65-.46.9-6.89c.05-.22.14-.4.29-.52a.88.88 0 0 1 .62-.22H142v7.67h6.44V74H142v13.38c0 .94.22 1.63.68 2.09.45.45 1.04.68 1.76.68a3.21 3.21 0 0 0 1.85-.53l.55-.35c.16-.12.3-.18.41-.18.2 0 .4.13.55.38l1.15 1.87a7.45 7.45 0 0 1-2.44 1.5 8.53 8.53 0 0 1-2.95.52zm19.68-10.4c-1.8.07-3.34.21-4.62.45-1.26.22-2.3.51-3.1.88-.8.36-1.37.8-1.74 1.3-.35.5-.53 1.05-.53 1.67 0 .58.1 1.1.3 1.52a2.9 2.9 0 0 0 .76 1.05c.34.27.73.46 1.17.6a6.13 6.13 0 0 0 1.45.17 7.3 7.3 0 0 0 3.5-.81 12.04 12.04 0 0 0 2.82-2.2v-4.62zm-12.65-9.1a12.72 12.72 0 0 1 3.99-2.66c1.42-.59 3-.88 4.72-.88 1.25 0 2.36.2 3.33.61a6.81 6.81 0 0 1 3.94 4.38c.33 1.04.5 2.19.5 3.43V93h-1.74a1.8 1.8 0 0 1-.88-.18c-.2-.13-.36-.38-.48-.74l-.44-2.12-1.72 1.46a9.48 9.48 0 0 1-3.74 1.7c-.69.15-1.46.23-2.3.23-.87 0-1.69-.12-2.45-.35a5.33 5.33 0 0 1-3.34-2.93 6.62 6.62 0 0 1-.49-2.64c0-.88.25-1.72.73-2.53a6.33 6.33 0 0 1 2.35-2.17c1.09-.63 2.5-1.15 4.25-1.54 1.74-.41 3.89-.65 6.42-.7v-1.75c0-1.73-.37-3.03-1.12-3.91-.75-.9-1.84-1.34-3.28-1.34-.97 0-1.78.12-2.44.37-.64.23-1.2.5-1.7.81l-1.22.82c-.34.23-.68.35-1.02.35-.26 0-.49-.07-.68-.2a1.88 1.88 0 0 1-.48-.53l-.7-1.25zM40.98 32.25c0 2.36-.38 4.53-1.12 6.51a14.26 14.26 0 0 1-8.1 8.4c-1.9.78-4.02 1.17-6.34 1.17-2.31 0-4.42-.39-6.33-1.17a14.31 14.31 0 0 1-8.08-8.4 18.29 18.29 0 0 1-1.12-6.51c0-2.36.38-4.53 1.12-6.5.75-1.97 1.8-3.67 3.17-5.1a14.32 14.32 0 0 1 4.9-3.34c1.92-.8 4.03-1.19 6.34-1.19 2.32 0 4.43.4 6.34 1.19 1.92.8 3.56 1.9 4.93 3.34a14.87 14.87 0 0 1 3.17 5.1 18.1 18.1 0 0 1 1.12 6.5zm-4.38 0c0-1.94-.26-3.68-.8-5.22a10.91 10.91 0 0 0-2.24-3.89 9.68 9.68 0 0 0-3.52-2.46 11.95 11.95 0 0 0-4.62-.86c-1.68 0-3.21.28-4.6.86a9.88 9.88 0 0 0-3.54 2.46 10.91 10.91 0 0 0-2.24 3.9c-.53 1.53-.8 3.27-.8 5.2 0 1.94.27 3.68.8 5.22a11.17 11.17 0 0 0 2.24 3.9 10.01 10.01 0 0 0 3.55 2.44c1.38.56 2.9.83 4.6.83s3.24-.27 4.61-.83a9.8 9.8 0 0 0 3.52-2.44 11.17 11.17 0 0 0 2.25-3.9c.53-1.54.8-3.28.8-5.21zm26.22-6.54V48H60.5c-.56 0-.9-.27-1.05-.81l-.31-2.4a12.45 12.45 0 0 1-3.26 2.6c-1.2.64-2.58.96-4.13.96-1.22 0-2.3-.2-3.24-.6a6.52 6.52 0 0 1-2.33-1.7 7.37 7.37 0 0 1-1.43-2.67c-.3-1.04-.46-2.2-.46-3.45V25.7h3.91v14.22c0 1.68.38 2.99 1.15 3.91.77.93 1.96 1.39 3.54 1.39 1.16 0 2.24-.27 3.23-.82a10.42 10.42 0 0 0 2.8-2.28V25.7h3.91zm8.61 4.47a9.94 9.94 0 0 1 2.6-3.56 5.64 5.64 0 0 1 3.76-1.3c.47 0 .92.05 1.34.15.44.1.83.27 1.17.49l-.3 2.92c-.09.37-.3.55-.66.55-.2 0-.5-.04-.9-.13a6.21 6.21 0 0 0-3.24.18 4.23 4.23 0 0 0-1.47.92c-.42.4-.81.9-1.17 1.5-.33.58-.64 1.26-.92 2.02V48H67.7V25.71h2.25c.42 0 .72.08.88.25.16.16.27.44.33.83l.26 3.39zm61.16-13.7L122.75 48h-3.82l-7.99-24.05a21.95 21.95 0 0 1-.42-1.58 38.36 38.36 0 0 1-.44 1.58L102.05 48h-3.83L88.4 16.47h3.54c.38 0 .7.1.95.29.26.2.43.43.5.73l6.52 21.9.28 1.28.29 1.46.3-1.46.38-1.27 7.41-21.91c.1-.25.26-.48.51-.69.27-.22.58-.33.95-.33h1.23c.38 0 .69.1.92.29a1.77 1.77 0 0 1 .53.73l7.4 21.9a28.4 28.4 0 0 1 .68 2.62 29.52 29.52 0 0 1 .52-2.61l6.54-21.91a1.31 1.31 0 0 1 .48-.7c.27-.21.58-.32.95-.32h3.32zm9.35 8.88c1.63 0 3.1.27 4.4.82a9.43 9.43 0 0 1 5.46 5.94c.5 1.4.74 2.98.74 4.73 0 1.76-.25 3.34-.74 4.75a9.43 9.43 0 0 1-5.46 5.92c-1.3.52-2.77.79-4.4.79-1.64 0-3.12-.27-4.44-.8a9.42 9.42 0 0 1-3.35-2.3c-.92-1-1.63-2.2-2.13-3.61-.49-1.41-.73-3-.73-4.75s.24-3.33.73-4.73c.5-1.43 1.2-2.64 2.13-3.63.93-1 2.04-1.77 3.35-2.31 1.32-.55 2.8-.82 4.44-.82zm0 19.89c2.2 0 3.84-.73 4.93-2.2 1.08-1.48 1.63-3.54 1.63-6.18 0-2.66-.55-4.72-1.63-6.2-1.09-1.49-2.73-2.23-4.93-2.23-1.12 0-2.09.2-2.93.57a5.71 5.71 0 0 0-2.06 1.65c-.55.72-.96 1.61-1.24 2.67-.26 1.04-.4 2.22-.4 3.54 0 2.64.55 4.7 1.64 6.18 1.1 1.47 2.76 2.2 4.99 2.2zm17.97-15.07a9.94 9.94 0 0 1 2.6-3.56 5.64 5.64 0 0 1 3.76-1.3c.47 0 .91.05 1.34.15.44.1.83.27 1.16.49l-.28 2.92c-.09.37-.31.55-.66.55-.2 0-.5-.04-.9-.13a6.2 6.2 0 0 0-3.24.18 4.23 4.23 0 0 0-1.47.92c-.43.4-.82.9-1.17 1.5a13.1 13.1 0 0 0-.92 2.02V48h-3.94V25.71h2.24c.43 0 .72.08.88.25.17.16.28.44.33.83l.27 3.39zm15.04-14.59V48h-3.92V15.6h3.92zm19.55 15.43a6.22 6.22 0 0 0-2.38-2.05 6.7 6.7 0 0 0-2.86-.6c-2.07 0-3.66.75-4.77 2.23-1.12 1.48-1.68 3.6-1.68 6.33 0 1.46.13 2.7.38 3.74a7.29 7.29 0 0 0 1.1 2.56 4.35 4.35 0 0 0 1.78 1.45c.7.3 1.5.46 2.4.46 1.29 0 2.41-.3 3.36-.88a9.6 9.6 0 0 0 2.67-2.49V31.02zm3.91-15.43V48h-2.33c-.56 0-.9-.27-1.06-.81l-.35-2.71a12.13 12.13 0 0 1-3.25 2.77 8.28 8.28 0 0 1-4.23 1.06 7.31 7.31 0 0 1-6.14-2.9c-.73-.96-1.3-2.15-1.69-3.57a18.35 18.35 0 0 1 .07-9.48 11.29 11.29 0 0 1 1.89-3.7 8.7 8.7 0 0 1 7.06-3.34 7.96 7.96 0 0 1 6.12 2.62V15.59h3.91zM46.61 70.71V93H42.7V70.71h3.91zm.84-7c0 .39-.08.75-.24 1.09-.15.32-.35.61-.62.88-.25.25-.55.44-.9.59a2.67 2.67 0 0 1-2.16 0 2.9 2.9 0 0 1-1.45-1.47 2.67 2.67 0 0 1 0-2.16c.15-.35.35-.65.6-.9.25-.27.53-.47.85-.62a2.67 2.67 0 0 1 2.16 0c.35.15.65.35.9.62.27.25.47.55.62.9.16.34.24.7.24 1.08zm7.97 10.24c.49-.54 1-1.04 1.54-1.48a9.85 9.85 0 0 1 3.66-1.84 8.96 8.96 0 0 1 5.43.35c.94.4 1.72.97 2.33 1.71.63.74 1.11 1.62 1.43 2.67.32 1.04.49 2.19.49 3.45V93h-3.94V78.81c0-1.69-.4-3-1.17-3.92-.76-.93-1.93-1.4-3.5-1.4-1.15 0-2.24.27-3.25.83-1 .56-1.92 1.31-2.77 2.27V93h-3.94V70.71h2.35c.56 0 .9.28 1.04.82l.3 2.42zm57.7 3.3c0 2.36-.37 4.5-1.11 6.44a14.3 14.3 0 0 1-3.17 4.98c-1.37 1.37-3 2.45-4.93 3.2-1.9.76-4.02 1.13-6.33 1.13H85.8V61.47h11.77c2.31 0 4.42.39 6.33 1.15a13.8 13.8 0 0 1 8.1 8.18 17.75 17.75 0 0 1 1.12 6.45zm-4.37 0c0-1.94-.26-3.67-.8-5.2a10.94 10.94 0 0 0-2.23-3.87 9.57 9.57 0 0 0-3.53-2.42 12.23 12.23 0 0 0-4.61-.83h-7.5v24.62h7.5c1.7 0 3.24-.28 4.61-.84a9.7 9.7 0 0 0 3.53-2.4 10.94 10.94 0 0 0 2.24-3.87c.53-1.53.8-3.26.8-5.2zm19.8 5.72c-1.8.06-3.34.2-4.62.44-1.26.22-2.3.51-3.1.88-.8.36-1.37.8-1.74 1.3-.35.5-.53 1.05-.53 1.67 0 .58.1 1.1.3 1.52a3 3 0 0 0 .76 1.05c.34.27.73.46 1.17.6a6.13 6.13 0 0 0 1.45.17 7.28 7.28 0 0 0 3.5-.81 11.95 11.95 0 0 0 2.82-2.2v-4.62zm-12.65-9.11a12.73 12.73 0 0 1 3.98-2.66c1.43-.59 3-.88 4.73-.88 1.25 0 2.36.2 3.33.61a6.81 6.81 0 0 1 3.94 4.38c.33 1.04.5 2.19.5 3.43V93h-1.74a1.8 1.8 0 0 1-.88-.18c-.2-.13-.36-.38-.48-.74l-.44-2.12-1.72 1.46a9.48 9.48 0 0 1-3.74 1.7c-.69.15-1.46.23-2.3.23-.87 0-1.69-.12-2.45-.35a5.34 5.34 0 0 1-3.34-2.93 6.64 6.64 0 0 1-.49-2.64c0-.88.25-1.72.73-2.53a6.33 6.33 0 0 1 2.35-2.17c1.09-.63 2.5-1.15 4.25-1.54 1.75-.41 3.89-.65 6.42-.7v-1.75c0-1.73-.37-3.03-1.12-3.91-.75-.9-1.84-1.34-3.28-1.34-.97 0-1.78.12-2.44.37-.64.23-1.2.5-1.7.81l-1.23.82c-.33.23-.67.35-1 .35-.27 0-.5-.07-.69-.2a2.1 2.1 0 0 1-.48-.53l-.7-1.25zm27.67 19.5c-1.76 0-3.12-.5-4.07-1.48-.94-.98-1.41-2.4-1.41-4.25V74h-2.68a.9.9 0 0 1-.6-.2c-.16-.14-.24-.36-.24-.66v-1.56l3.65-.46.9-6.89c.05-.22.14-.4.29-.52a.88.88 0 0 1 .62-.22H142v7.67h6.44V74H142v13.38c0 .94.22 1.63.68 2.09.45.45 1.04.68 1.76.68a3.21 3.21 0 0 0 1.85-.53l.55-.35c.16-.12.3-.18.41-.18.2 0 .4.13.55.38l1.15 1.87a7.45 7.45 0 0 1-2.44 1.5 8.53 8.53 0 0 1-2.95.52zm19.68-10.4c-1.8.07-3.34.21-4.62.45-1.26.22-2.3.51-3.1.88-.8.36-1.37.8-1.74 1.3-.35.5-.53 1.05-.53 1.67 0 .58.1 1.1.3 1.52a2.9 2.9 0 0 0 .76 1.05c.34.27.73.46 1.17.6a6.13 6.13 0 0 0 1.45.17 7.3 7.3 0 0 0 3.5-.81 12.04 12.04 0 0 0 2.82-2.2v-4.62zm-12.65-9.1a12.72 12.72 0 0 1 3.99-2.66c1.42-.59 3-.88 4.72-.88 1.25 0 2.36.2 3.33.61a6.81 6.81 0 0 1 3.94 4.38c.33 1.04.5 2.19.5 3.43V93h-1.74a1.8 1.8 0 0 1-.88-.18c-.2-.13-.36-.38-.48-.74l-.44-2.12-1.72 1.46a9.48 9.48 0 0 1-3.74 1.7c-.69.15-1.46.23-2.3.23-.87 0-1.69-.12-2.45-.35a5.33 5.33 0 0 1-3.34-2.93 6.62 6.62 0 0 1-.49-2.64c0-.88.25-1.72.73-2.53a6.33 6.33 0 0 1 2.35-2.17c1.09-.63 2.5-1.15 4.25-1.54 1.74-.41 3.89-.65 6.42-.7v-1.75c0-1.73-.37-3.03-1.12-3.91-.75-.9-1.84-1.34-3.28-1.34-.97 0-1.78.12-2.44.37-.64.23-1.2.5-1.7.81l-1.22.82c-.34.23-.68.35-1.02.35-.26 0-.49-.07-.68-.2a1.88 1.88 0 0 1-.48-.53l-.7-1.25z"
    fill="#fff"
  />
  <path fill="#D42B21" d="M0 106.79h210V120H0z" />
</g>
<defs>
  <clipPath id="clip0"><path fill="#fff" d="M0 0h210v120H0z" /></clipPath>
</defs>
</svg></g><a href="https://ourworldindata.org/explorers/coronavirus-data-explorer?zoomToSelection=true&amp;time=2020-03-01..latest&amp;facet=none&amp;pickerSort=desc&amp;pickerMetric=new_cases_smoothed_per_million&amp;Metric=Confirmed+cases&amp;Interval=7-day+rolling+average&amp;Relative+to+Population=true&amp;Color+by+test+positivity=false&amp;country=~Europe" style="font-family:&quot;Playfair Display&quot;, Georgia, &quot;Times New Roman&quot;, serif" target="_blank" rel="noopener"><text font-size="25.20" x="15.0" y="36.9" fill="#555"><tspan x="15" y="36.924">Daily new confirmed COVID-19 cases per million people</tspan></text></a><text x="15.0" y="58.2" style="font-size:14.4px;line-height:1.2" fill="#666"><tspan x="15" y="58.2">7-day rolling average. Due to limited testing, the number of confirmed cases is lower than the true number of</tspan><tspan x="15" y="75.4">infections.</tspan></text></g><g class="LineChart"><defs><clipPath id="boundsClip-2"><rect x="50.824" y="84.76" width="840" height="471.38"></rect></clipPath></defs><rect x="15" y="94.76" width="820" height="451.38" fill="transparent"></rect><g class="DualAxisView"><g class="HorizontalAxis"><line x1="60.8" y1="524.94" x2="60.8" y2="529.94" stroke="#999"></line><line x1="756.3" y1="524.94" x2="756.3" y2="529.94" stroke="#999"></line><line x1="335.9" y1="524.94" x2="335.9" y2="529.94" stroke="#999"></line><line x1="488.8" y1="524.94" x2="488.8" y2="529.94" stroke="#999"></line><text x="60.824" y="546.14" fill="#666" text-anchor="start" font-size="16.2">Mar 1, 2020</text><text x="756.26" y="546.14" fill="#666" text-anchor="end" font-size="16.2">Aug 28, 2022</text><text x="335.9" y="546.14" fill="#666" text-anchor="middle" font-size="16.2">Feb 24, 2021</text><text x="488.8" y="546.14" fill="#666" text-anchor="middle" font-size="16.2">Sep 12, 2021</text></g><g class="VerticalAxis"><text x="55.82" y="524.9" dy=".32em" text-anchor="end" fill="#666" font-size="16.2">0</text><text x="55.82" y="421.5" dy=".32em" text-anchor="end" fill="#666" font-size="16.2">500</text><text x="55.82" y="318" dy=".32em" text-anchor="end" fill="#666" font-size="16.2">1,000</text><text x="55.82" y="214.6" dy=".32em" text-anchor="end" fill="#666" font-size="16.2">1,500</text><text x="55.82" y="111.1" dy=".32em" text-anchor="end" fill="#666" font-size="16.2">2,000</text></g><g class="AxisGridLines horizontalLines"><line x1="60.82" y1="524.9" x2="756.26" y2="524.9" stroke="#999"></line><line x1="60.82" y1="421.5" x2="756.26" y2="421.5" stroke="#ddd" stroke-dasharray="3,2"></line><line x1="60.82" y1="318" x2="756.26" y2="318" stroke="#ddd" stroke-dasharray="3,2"></line><line x1="60.82" y1="214.6" x2="756.26" y2="214.6" stroke="#ddd" stroke-dasharray="3,2"></line><line x1="60.82" y1="111.1" x2="756.26" y2="111.1" stroke="#ddd" stroke-dasharray="3,2"></line></g></g><g clip-path="url(#boundsClip-2)"><g class="LineLabels" style="cursor:default"><g class="legendMark"><rect x="756.26" y="471.15" width="78.74000000000001" height="13.5" fill="#fff" opacity="0"></rect><text font-size="13.50" font-weight="400" x="760.3" y="482.9" fill="#00823f"><tspan x="760.26" y="482.895">Europe</tspan></text></g></g><g class="Lines"><rect x="61" y="95" width="695" height="430" fill="rgba(255,255,255,0)" opacity="0"></rect><g><path stroke-linecap="round" stroke-linejoin="round" stroke="#ddd" d="M60.8 524.9L61.6 524.8L62.4 524.8L63.1 524.8L63.9 524.7L64.6 524.7L65.4 524.6L66.2 524.5L66.9 524.4L67.7 524.3L68.5 524.2L69.2 524L70 523.7L70.8 523.5L71.5 523.2L72.3 522.9L73.1 522.6L73.8 522.4L74.6 521.8L75.3 521.4L76.1 520.9L76.9 520.5L77.6 519.9L78.4 519.3L79.2 518.5L79.9 518L80.7 517.3L81.5 516.8L82.2 516.4L83 516.1L83.8 515.7L84.5 515.5L85.3 515.4L86 515.3L86.8 515.5L87.6 515.5L88.3 515.7L89.1 516.1L89.9 516.3L90.6 516.3L91.4 516.5L92.2 516.6L92.9 514.8L93.7 514.9L94.4 514.4L95.2 514.5L96 514.1L96.7 514.1L97.5 514.1L98.3 515.8L99 515.9L99.8 516.3L100.6 516.4L101.3 517.1L102.1 517.3L102.9 517.4L103.6 517.8L104.4 517.7L105.1 517.9L105.9 518.1L106.7 518.3L107.4 518.4L108.2 518.5L109 518.6L109.7 518.7L110.5 518.8L111.3 518.6L112 518.5L112.8 518.5L113.6 518.6L114.3 518.6L115.1 518.5L115.8 518.5L116.6 518.8L117.4 519L118.1 519.1L118.9 519.2L119.7 519.4L120.4 519.6L121.2 519.8L122 519.9L122.7 520L123.5 520L124.3 520.1L125 520.1L125.8 520.2L126.5 520.3L127.3 520.4L128.1 520.3L128.8 520.4L129.6 520.4L130.4 520.4L131.1 520.4L131.9 520.5L132.7 520.5L133.4 520.5L134.2 520.5L135 520.5L135.7 520.5L136.5 520.5L137.2 520.5L138 520.5L138.8 520.6L139.5 520.6L140.3 520.6L141.1 520.6L141.8 520.6L142.6 520.6L143.4 520.6L144.1 520.6L144.9 520.6L145.7 520.7L146.4 520.7L147.2 520.8L147.9 520.8L148.7 520.8L149.5 520.9L150.2 520.9L151 520.9L151.8 521L152.5 521L153.3 521.1L154.1 521.2L154.8 521.2L155.6 521.3L156.4 521.3L157.1 521.4L157.9 521.3L158.6 521.4L159.4 521.3L160.2 521.3L160.9 521.3L161.7 521.3L162.5 521.2L163.2 521.2L164 521.2L164.8 521.2L165.5 521.1L166.3 521L167 521.1L167.8 521.1L168.6 520.9L169.3 520.9L170.1 520.8L170.9 520.7L171.6 520.7L172.4 520.6L173.2 520.6L173.9 520.4L174.7 520.4L175.5 520.3L176.2 520.2L177 520.1L177.7 520.1L178.5 520.1L179.3 520L180 519.8L180.8 519.7L181.6 519.6L182.3 519.5L183.1 519.4L183.9 519.4L184.6 519.3L185.4 519.3L186.2 519.2L186.9 519L187.7 518.9L188.4 518.7L189.2 518.6L190 518.5L190.7 518.4L191.5 518.2L192.3 518L193 517.8L193.8 517.8L194.6 517.6L195.3 517.4L196.1 517.2L196.9 517.3L197.6 516.9L198.4 516.7L199.1 516.7L199.9 516.6L200.7 516.3L201.4 516.2L202.2 515.9L203 516L203.7 515.8L204.5 515.5L205.3 515.4L206 515.1L206.8 514.8L207.6 514.6L208.3 514.2L209.1 513.9L209.8 513.6L210.6 513.5L211.4 513.3L212.1 513L212.9 512.6L213.7 512.2L214.4 511.8L215.2 511.5L216 511.1L216.7 510.7L217.5 510.3L218.3 509.9L219 509.5L219.8 509.2L220.5 508.8L221.3 508.6L222.1 508.5L222.8 508.7L223.6 508L224.4 507.8L225.1 507.6L225.9 506.8L226.7 505.6L227.4 505.1L228.2 503.6L229 502.8L229.7 501.3L230.5 499.6L231.2 498.1L232 497.5L232.8 496.4L233.5 495.3L234.3 493.7L235.1 491.9L235.8 490.3L236.6 488.9L237.4 487.2L238.1 485.2L238.9 483.3L239.7 481.1L240.4 478.5L241.2 475.6L241.9 473.1L242.7 472.2L243.5 467.5L244.2 464.9L245 462.5L245.8 460L246.5 457.4L247.3 456.4L248.1 453.8L248.8 451.8L249.6 449.4L250.3 449.4L251.1 448.2L251.9 447.4L252.6 444.5L253.4 444.5L254.2 447.7L254.9 449.5L255.7 448.2L256.5 449L257.2 450.4L258 452.6L258.8 452.9L259.5 453.6L260.3 452.8L261 454.2L261.8 455L262.6 455.7L263.3 456.6L264.1 457.7L264.9 459.4L265.6 460.9L266.4 462.2L267.2 463.4L267.9 464.7L268.7 465.8L269.5 466.7L270.2 467.8L271 469L271.7 469.7L272.5 470.3L273.3 470.7L274 470.9L274.8 470.6L275.6 470.7L276.3 470.9L277.1 470.6L277.9 470.4L278.6 469.9L279.4 469.4L280.2 469.2L280.9 468.9L281.7 468.3L282.4 467.2L283.2 466.2L284 465.7L284.7 465.5L285.5 465.1L286.3 464.4L287 463.4L287.8 463.3L288.6 463.1L289.3 464.9L290.1 467.9L290.9 469.9L291.6 470.4L292.4 469.7L293.1 468.5L293.9 467.3L294.7 466.1L295.4 465.3L296.2 464L297 462.7L297.7 461.5L298.5 461.6L299.3 461.1L300 458.9L300.8 456.1L301.6 454.8L302.3 454.3L303.1 456.3L303.8 456.8L304.6 458.3L305.4 459.6L306.1 461.2L306.9 462.8L307.7 463L308.4 463.9L309.2 464.7L310 465.6L310.7 466.7L311.5 467.3L312.3 467.7L313 468.1L313.8 469.2L314.5 470L315.3 471L316.1 472.1L316.8 473L317.6 473.7L318.4 474.7L319.1 475.4L319.9 476.5L320.7 478.5L321.4 478.7L322.2 479.4L322.9 480.1L323.7 481.8L324.5 483L325.2 484.1L326 484.4L326.8 486.3L327.5 486.7L328.3 487.3L329.1 488.3L329.8 488.6L330.6 488.9L331.4 488.9L332.1 488.7L332.9 488.3L333.6 487.6L334.4 487.5L335.2 487.1L335.9 486.1L336.7 485.5L337.5 485.1L338.2 484.5L339 484.3L339.8 484.3L340.5 484L341.3 483.9L342.1 483.7L342.8 483.3L343.6 483L344.3 482.5L345.1 482.6L345.9 482.2L346.6 481.9L347.4 481.1L348.2 480.6L348.9 479.4L349.7 478.7L350.5 477.9L351.2 476.9L352 475.7L352.8 474.7L353.5 473.7L354.3 473.4L355 472.4L355.8 471.2L356.6 471.5L357.3 470L358.1 468.8L358.9 467.9L359.6 466.9L360.4 466.8L361.2 467.4L361.9 466.4L362.7 466.6L363.5 466.7L364.2 467.4L365 469.5L365.7 468.7L366.5 469.7L367.3 472.2L368 476.3L368.8 475.4L369.6 477L370.3 477.6L371.1 476.2L371.9 475.5L372.6 473.9L373.4 471.4L374.2 474.2L374.9 473.6L375.7 473.2L376.4 477.4L377.2 478.1L378 478.7L378.7 479.4L379.5 480.1L380.3 480.9L381 481.7L381.8 482.4L382.6 483L383.3 483.7L384.1 485.1L384.9 486.3L385.6 487.7L386.4 488.8L387.1 490L387.9 490.8L388.7 492.1L389.4 493.5L390.2 494.4L391 495.2L391.7 495.8L392.5 496.2L393.3 496.5L394 496.9L394.8 497.4L395.6 498.8L396.3 500.1L397.1 501.2L397.8 501.6L398.6 502.1L399.4 502.9L400.1 503.6L400.9 504.7L401.7 505.4L402.4 505.8L403.2 506.3L404 506.9L404.7 507.9L405.5 509.1L406.2 509.1L407 509.5L407.8 509.9L408.5 510.2L409.3 510.3L410.1 510.5L410.8 511.1L411.6 511.1L412.4 511.7L413.1 512.2L413.9 512.5L414.7 512.6L415.4 512.7L416.2 512.7L416.9 513.1L417.7 513.3L418.5 513.3L419.2 513.3L420 513.2L420.8 513.4L421.5 513.6L422.3 514.1L423.1 514.1L423.8 514L424.6 513.9L425.4 513.8L426.1 513.6L426.9 513.2L427.6 512.8L428.4 512.5L429.2 512.1L429.9 511.8L430.7 511L431.5 510.4L432.2 509.7L433 508.7L433.8 507.6L434.5 507.1L435.3 506.4L436.1 505L436.8 504.1L437.6 502.9L438.3 502L439.1 500.6L439.9 499.7L440.6 499L441.4 498.2L442.2 496L442.9 495L443.7 493.3L444.5 491.8L445.2 490.4L446 489.3L446.8 487.8L447.5 487.5L448.3 486.6L449 486.4L449.8 486.9L450.6 487.3L451.3 488.2L452.1 488.8L452.9 489.5L453.6 490L454.4 490.4L455.2 490.7L455.9 491.1L456.7 491.1L457.5 491.3L458.2 491.7L459 491.7L459.7 491.7L460.5 491.7L461.3 491.4L462 491.1L462.8 491.6L463.6 491.3L464.3 491.1L465.1 490.8L465.9 490.6L466.6 490.3L467.4 490.2L468.2 490.2L468.9 490L469.7 489.8L470.4 489.8L471.2 489.6L472 489.3L472.7 489.1L473.5 489.1L474.3 488.8L475 488.7L475.8 488.7L476.6 489.4L477.3 488.8L478.1 488.9L478.8 489.3L479.6 490.3L480.4 490L481.1 490.2L481.9 489.5L482.7 490.2L483.4 490.2L484.2 490.3L485 489.1L485.7 490L486.5 489.9L487.3 490.2L488 490.6L488.8 491L489.5 491L490.3 491.7L491.1 492.3L491.8 492.6L492.6 492.8L493.4 492.6L494.1 492.6L494.9 492.4L495.7 492.4L496.4 492L497.2 492.1L498 492L498.7 492L499.5 491.7L500.2 491.5L501 491L501.8 490.5L502.5 489.9L503.3 489.5L504.1 488.9L504.8 488.8L505.6 488.6L506.4 488.3L507.1 487.7L507.9 487.2L508.7 486.6L509.4 485.7L510.2 485.1L510.9 484.4L511.7 483.7L512.5 483.1L513.2 482.1L514 481.2L514.8 480.5L515.5 479.5L516.3 478.3L517.1 477L517.8 475.1L518.6 473.5L519.4 471.4L520.1 469.7L520.9 468.7L521.6 467.9L522.4 466.8L523.2 465.6L523.9 464.7L524.7 463.9L525.5 463.1L526.2 462.6L527 462.3L527.8 462.9L528.5 461.5L529.3 460L530.1 458.9L530.8 457.5L531.6 456.8L532.3 455L533.1 453L533.9 451.3L534.6 450.1L535.4 448.7L536.2 448.2L536.9 447.1L537.7 445.5L538.5 443.5L539.2 442.1L540 439.7L540.8 438L541.5 435.7L542.3 434.4L543 431.7L543.8 430.7L544.6 428.9L545.3 427.4L546.1 424.8L546.9 424.5L547.6 424.1L548.4 424.6L549.2 423.4L549.9 423L550.7 422.2L551.5 422.1L552.2 421.7L553 421.7L553.7 422.9L554.5 421.7L555.3 422L556 422.6L556.8 423.8L557.6 424.7L558.3 425.3L559.1 424.9L559.9 425.6L560.6 424.8L561.4 424.5L562.1 423.5L562.9 422.1L563.7 421.1L564.4 419.4L565.2 417.6L566 415.5L566.7 411L567.5 410.6L568.3 407.1L569 408.3L569.8 399.4L570.6 387.4L571.3 371.7L572.1 353.7L572.8 336.9L573.6 325.1L574.4 320.6L575.1 305.8L575.9 288.6L576.7 272.9L577.4 269.3L578.2 253.4L579 245.2L579.7 226.6L580.5 225.1L581.3 219.5L582 215.5L582.8 210.5L583.5 208.4L584.3 207.5L585.1 208.1L585.8 206.9L586.6 198.1L587.4 190L588.1 172.6L588.9 161.6L589.7 150.3L590.4 142L591.2 130.8L592 119.5L592.7 112.6L593.5 104.9L594.2 101.7L595 97.5L595.8 94.8L596.5 97.3L597.3 101.9L598.1 104.2L598.8 112.3L599.6 121.4L600.4 125.1L601.1 129.1L601.9 120.7L602.7 132.5L603.4 151.2L604.2 149.9L604.9 156.9L605.7 166.2L606.5 174L607.2 199.6L608 218.4L608.8 219.3L609.5 243.6L610.3 254.3L611.1 262.6L611.8 268.9L612.6 274.5L613.4 281.5L614.1 294.6L614.9 302L615.6 311.3L616.4 320.5L617.2 328.3L617.9 335.1L618.7 334.1L619.5 340.4L620.2 345.4L621 345.1L621.8 345.1L622.5 344.8L623.3 339.6L624.1 340.9L624.8 338.2L625.6 332.5L626.3 329.9L627.1 328.6L627.9 328L628.6 327.5L629.4 322.7L630.2 318.4L630.9 317.8L631.7 314.6L632.5 312.7L633.2 313.6L634 312L634.7 309.9L635.5 309.4L636.3 307.9L637 308.3L637.8 309.9L638.6 310.9L639.3 314.9L640.1 315.7L640.9 319.9L641.6 314L642.4 330.1L643.2 334.5L643.9 337.1L644.7 346.4L645.4 353.9L646.2 353.6L647 372.7L647.7 370.6L648.5 377.5L649.3 381.6L650 377.8L650.8 381.4L651.6 393.9L652.3 397.2L653.1 407.6L653.9 410.5L654.6 412.8L655.4 426.6L656.1 428.4L656.9 426.9L657.7 427.8L658.4 422.2L659.2 423.6L660 424.8L660.7 418.1L661.5 429.3L662.3 430.5L663 436.6L663.8 440.6L664.6 443.8L665.3 445.7L666.1 448.8L666.8 444.8L667.6 454.3L668.4 456.8L669.1 459.4L669.9 460.6L670.7 461.4L671.4 458.6L672.2 462.8L673 463.8L673.7 465.4L674.5 465.6L675.3 465.9L676 466.1L676.8 469.3L677.5 469.6L678.3 469L679.1 471.4L679.8 475.8L680.6 476L681.4 477.9L682.1 478.6L682.9 480.9L683.7 484.3L684.4 487.2L685.2 485.4L686 487.8L686.7 488L687.5 488.8L688.2 489.2L689 488.1L689.8 486.5L690.5 487.8L691.3 487.7L692.1 487.4L692.8 490.2L693.6 487.1L694.4 485.1L695.1 483.8L695.9 482.9L696.7 484L697.4 484.6L698.2 478.8L698.9 471.2L699.7 470.6L700.5 470.8L701.2 467.9L702 467.3L702.8 466.6L703.5 459.7L704.3 461.3L705.1 457.7L705.8 451.4L706.6 447.2L707.4 446L708.1 445.5L708.9 442.2L709.6 437.6L710.4 432.8L711.2 428.5L711.9 424.2L712.7 422.8L713.5 421.7L714.2 419.8L715 413.3L715.8 407L716.5 404.9L717.3 403.8L718 403L718.8 402.4L719.6 398.9L720.3 402.1L721.1 400.8L721.9 408.2L722.6 414.4L723.4 415L724.2 416L724.9 413.7L725.7 402.1L726.5 406.5L727.2 405.3L728 403.8L728.7 404.3L729.5 404.7L730.3 415.7L731 435.2L731.8 435.4L732.6 437.6L733.3 442.6L734.1 442.9L734.9 443.3L735.6 448.2L736.4 446.5L737.2 455.1L737.9 456.4L738.7 458L739.4 458.4L740.2 458.5L741 460.3L741.7 464.4L742.5 466.6L743.3 468.2L744 469.7L744.8 470L745.6 470.1L746.3 473.1L747.1 475.6L747.9 475.5L748.6 476.2L749.4 476.4L750.1 476.1L750.9 475.7L751.7 474L752.4 475L753.2 480.3L754 477.5L754.7 478L755.5 478L756.3 477.9" fill="none" stroke-width="1"></path></g><g><path fill="none" stroke-linecap="butt" stroke-linejoin="round" stroke="#fff" stroke-width="2.5" d="M60.8 524.9L61.6 524.8L62.4 524.8L63.1 524.8L63.9 524.7L64.6 524.7L65.4 524.6L66.2 524.5L66.9 524.4L67.7 524.3L68.5 524.2L69.2 524L70 523.7L70.8 523.5L71.5 523.2L72.3 522.9L73.1 522.6L73.8 522.4L74.6 521.8L75.3 521.4L76.1 520.9L76.9 520.5L77.6 519.9L78.4 519.3L79.2 518.5L79.9 518L80.7 517.3L81.5 516.8L82.2 516.4L83 516.1L83.8 515.7L84.5 515.5L85.3 515.4L86 515.3L86.8 515.5L87.6 515.5L88.3 515.7L89.1 516.1L89.9 516.3L90.6 516.3L91.4 516.5L92.2 516.6L92.9 514.8L93.7 514.9L94.4 514.4L95.2 514.5L96 514.1L96.7 514.1L97.5 514.1L98.3 515.8L99 515.9L99.8 516.3L100.6 516.4L101.3 517.1L102.1 517.3L102.9 517.4L103.6 517.8L104.4 517.7L105.1 517.9L105.9 518.1L106.7 518.3L107.4 518.4L108.2 518.5L109 518.6L109.7 518.7L110.5 518.8L111.3 518.6L112 518.5L112.8 518.5L113.6 518.6L114.3 518.6L115.1 518.5L115.8 518.5L116.6 518.8L117.4 519L118.1 519.1L118.9 519.2L119.7 519.4L120.4 519.6L121.2 519.8L122 519.9L122.7 520L123.5 520L124.3 520.1L125 520.1L125.8 520.2L126.5 520.3L127.3 520.4L128.1 520.3L128.8 520.4L129.6 520.4L130.4 520.4L131.1 520.4L131.9 520.5L132.7 520.5L133.4 520.5L134.2 520.5L135 520.5L135.7 520.5L136.5 520.5L137.2 520.5L138 520.5L138.8 520.6L139.5 520.6L140.3 520.6L141.1 520.6L141.8 520.6L142.6 520.6L143.4 520.6L144.1 520.6L144.9 520.6L145.7 520.7L146.4 520.7L147.2 520.8L147.9 520.8L148.7 520.8L149.5 520.9L150.2 520.9L151 520.9L151.8 521L152.5 521L153.3 521.1L154.1 521.2L154.8 521.2L155.6 521.3L156.4 521.3L157.1 521.4L157.9 521.3L158.6 521.4L159.4 521.3L160.2 521.3L160.9 521.3L161.7 521.3L162.5 521.2L163.2 521.2L164 521.2L164.8 521.2L165.5 521.1L166.3 521L167 521.1L167.8 521.1L168.6 520.9L169.3 520.9L170.1 520.8L170.9 520.7L171.6 520.7L172.4 520.6L173.2 520.6L173.9 520.4L174.7 520.4L175.5 520.3L176.2 520.2L177 520.1L177.7 520.1L178.5 520.1L179.3 520L180 519.8L180.8 519.7L181.6 519.6L182.3 519.5L183.1 519.4L183.9 519.4L184.6 519.3L185.4 519.3L186.2 519.2L186.9 519L187.7 518.9L188.4 518.7L189.2 518.6L190 518.5L190.7 518.4L191.5 518.2L192.3 518L193 517.8L193.8 517.8L194.6 517.6L195.3 517.4L196.1 517.2L196.9 517.3L197.6 516.9L198.4 516.7L199.1 516.7L199.9 516.6L200.7 516.3L201.4 516.2L202.2 515.9L203 516L203.7 515.8L204.5 515.5L205.3 515.4L206 515.1L206.8 514.8L207.6 514.6L208.3 514.2L209.1 513.9L209.8 513.6L210.6 513.5L211.4 513.3L212.1 513L212.9 512.6L213.7 512.2L214.4 511.8L215.2 511.5L216 511.1L216.7 510.7L217.5 510.3L218.3 509.9L219 509.5L219.8 509.2L220.5 508.8L221.3 508.6L222.1 508.5L222.8 508.7L223.6 508L224.4 507.8L225.1 507.6L225.9 506.8L226.7 505.6L227.4 505.1L228.2 503.6L229 502.8L229.7 501.3L230.5 499.6L231.2 498.1L232 497.5L232.8 496.4L233.5 495.3L234.3 493.7L235.1 491.9L235.8 490.3L236.6 488.9L237.4 487.2L238.1 485.2L238.9 483.3L239.7 481.1L240.4 478.5L241.2 475.6L241.9 473.1L242.7 472.2L243.5 467.5L244.2 464.9L245 462.5L245.8 460L246.5 457.4L247.3 456.4L248.1 453.8L248.8 451.8L249.6 449.4L250.3 449.4L251.1 448.2L251.9 447.4L252.6 444.5L253.4 444.5L254.2 447.7L254.9 449.5L255.7 448.2L256.5 449L257.2 450.4L258 452.6L258.8 452.9L259.5 453.6L260.3 452.8L261 454.2L261.8 455L262.6 455.7L263.3 456.6L264.1 457.7L264.9 459.4L265.6 460.9L266.4 462.2L267.2 463.4L267.9 464.7L268.7 465.8L269.5 466.7L270.2 467.8L271 469L271.7 469.7L272.5 470.3L273.3 470.7L274 470.9L274.8 470.6L275.6 470.7L276.3 470.9L277.1 470.6L277.9 470.4L278.6 469.9L279.4 469.4L280.2 469.2L280.9 468.9L281.7 468.3L282.4 467.2L283.2 466.2L284 465.7L284.7 465.5L285.5 465.1L286.3 464.4L287 463.4L287.8 463.3L288.6 463.1L289.3 464.9L290.1 467.9L290.9 469.9L291.6 470.4L292.4 469.7L293.1 468.5L293.9 467.3L294.7 466.1L295.4 465.3L296.2 464L297 462.7L297.7 461.5L298.5 461.6L299.3 461.1L300 458.9L300.8 456.1L301.6 454.8L302.3 454.3L303.1 456.3L303.8 456.8L304.6 458.3L305.4 459.6L306.1 461.2L306.9 462.8L307.7 463L308.4 463.9L309.2 464.7L310 465.6L310.7 466.7L311.5 467.3L312.3 467.7L313 468.1L313.8 469.2L314.5 470L315.3 471L316.1 472.1L316.8 473L317.6 473.7L318.4 474.7L319.1 475.4L319.9 476.5L320.7 478.5L321.4 478.7L322.2 479.4L322.9 480.1L323.7 481.8L324.5 483L325.2 484.1L326 484.4L326.8 486.3L327.5 486.7L328.3 487.3L329.1 488.3L329.8 488.6L330.6 488.9L331.4 488.9L332.1 488.7L332.9 488.3L333.6 487.6L334.4 487.5L335.2 487.1L335.9 486.1L336.7 485.5L337.5 485.1L338.2 484.5L339 484.3L339.8 484.3L340.5 484L341.3 483.9L342.1 483.7L342.8 483.3L343.6 483L344.3 482.5L345.1 482.6L345.9 482.2L346.6 481.9L347.4 481.1L348.2 480.6L348.9 479.4L349.7 478.7L350.5 477.9L351.2 476.9L352 475.7L352.8 474.7L353.5 473.7L354.3 473.4L355 472.4L355.8 471.2L356.6 471.5L357.3 470L358.1 468.8L358.9 467.9L359.6 466.9L360.4 466.8L361.2 467.4L361.9 466.4L362.7 466.6L363.5 466.7L364.2 467.4L365 469.5L365.7 468.7L366.5 469.7L367.3 472.2L368 476.3L368.8 475.4L369.6 477L370.3 477.6L371.1 476.2L371.9 475.5L372.6 473.9L373.4 471.4L374.2 474.2L374.9 473.6L375.7 473.2L376.4 477.4L377.2 478.1L378 478.7L378.7 479.4L379.5 480.1L380.3 480.9L381 481.7L381.8 482.4L382.6 483L383.3 483.7L384.1 485.1L384.9 486.3L385.6 487.7L386.4 488.8L387.1 490L387.9 490.8L388.7 492.1L389.4 493.5L390.2 494.4L391 495.2L391.7 495.8L392.5 496.2L393.3 496.5L394 496.9L394.8 497.4L395.6 498.8L396.3 500.1L397.1 501.2L397.8 501.6L398.6 502.1L399.4 502.9L400.1 503.6L400.9 504.7L401.7 505.4L402.4 505.8L403.2 506.3L404 506.9L404.7 507.9L405.5 509.1L406.2 509.1L407 509.5L407.8 509.9L408.5 510.2L409.3 510.3L410.1 510.5L410.8 511.1L411.6 511.1L412.4 511.7L413.1 512.2L413.9 512.5L414.7 512.6L415.4 512.7L416.2 512.7L416.9 513.1L417.7 513.3L418.5 513.3L419.2 513.3L420 513.2L420.8 513.4L421.5 513.6L422.3 514.1L423.1 514.1L423.8 514L424.6 513.9L425.4 513.8L426.1 513.6L426.9 513.2L427.6 512.8L428.4 512.5L429.2 512.1L429.9 511.8L430.7 511L431.5 510.4L432.2 509.7L433 508.7L433.8 507.6L434.5 507.1L435.3 506.4L436.1 505L436.8 504.1L437.6 502.9L438.3 502L439.1 500.6L439.9 499.7L440.6 499L441.4 498.2L442.2 496L442.9 495L443.7 493.3L444.5 491.8L445.2 490.4L446 489.3L446.8 487.8L447.5 487.5L448.3 486.6L449 486.4L449.8 486.9L450.6 487.3L451.3 488.2L452.1 488.8L452.9 489.5L453.6 490L454.4 490.4L455.2 490.7L455.9 491.1L456.7 491.1L457.5 491.3L458.2 491.7L459 491.7L459.7 491.7L460.5 491.7L461.3 491.4L462 491.1L462.8 491.6L463.6 491.3L464.3 491.1L465.1 490.8L465.9 490.6L466.6 490.3L467.4 490.2L468.2 490.2L468.9 490L469.7 489.8L470.4 489.8L471.2 489.6L472 489.3L472.7 489.1L473.5 489.1L474.3 488.8L475 488.7L475.8 488.7L476.6 489.4L477.3 488.8L478.1 488.9L478.8 489.3L479.6 490.3L480.4 490L481.1 490.2L481.9 489.5L482.7 490.2L483.4 490.2L484.2 490.3L485 489.1L485.7 490L486.5 489.9L487.3 490.2L488 490.6L488.8 491L489.5 491L490.3 491.7L491.1 492.3L491.8 492.6L492.6 492.8L493.4 492.6L494.1 492.6L494.9 492.4L495.7 492.4L496.4 492L497.2 492.1L498 492L498.7 492L499.5 491.7L500.2 491.5L501 491L501.8 490.5L502.5 489.9L503.3 489.5L504.1 488.9L504.8 488.8L505.6 488.6L506.4 488.3L507.1 487.7L507.9 487.2L508.7 486.6L509.4 485.7L510.2 485.1L510.9 484.4L511.7 483.7L512.5 483.1L513.2 482.1L514 481.2L514.8 480.5L515.5 479.5L516.3 478.3L517.1 477L517.8 475.1L518.6 473.5L519.4 471.4L520.1 469.7L520.9 468.7L521.6 467.9L522.4 466.8L523.2 465.6L523.9 464.7L524.7 463.9L525.5 463.1L526.2 462.6L527 462.3L527.8 462.9L528.5 461.5L529.3 460L530.1 458.9L530.8 457.5L531.6 456.8L532.3 455L533.1 453L533.9 451.3L534.6 450.1L535.4 448.7L536.2 448.2L536.9 447.1L537.7 445.5L538.5 443.5L539.2 442.1L540 439.7L540.8 438L541.5 435.7L542.3 434.4L543 431.7L543.8 430.7L544.6 428.9L545.3 427.4L546.1 424.8L546.9 424.5L547.6 424.1L548.4 424.6L549.2 423.4L549.9 423L550.7 422.2L551.5 422.1L552.2 421.7L553 421.7L553.7 422.9L554.5 421.7L555.3 422L556 422.6L556.8 423.8L557.6 424.7L558.3 425.3L559.1 424.9L559.9 425.6L560.6 424.8L561.4 424.5L562.1 423.5L562.9 422.1L563.7 421.1L564.4 419.4L565.2 417.6L566 415.5L566.7 411L567.5 410.6L568.3 407.1L569 408.3L569.8 399.4L570.6 387.4L571.3 371.7L572.1 353.7L572.8 336.9L573.6 325.1L574.4 320.6L575.1 305.8L575.9 288.6L576.7 272.9L577.4 269.3L578.2 253.4L579 245.2L579.7 226.6L580.5 225.1L581.3 219.5L582 215.5L582.8 210.5L583.5 208.4L584.3 207.5L585.1 208.1L585.8 206.9L586.6 198.1L587.4 190L588.1 172.6L588.9 161.6L589.7 150.3L590.4 142L591.2 130.8L592 119.5L592.7 112.6L593.5 104.9L594.2 101.7L595 97.5L595.8 94.8L596.5 97.3L597.3 101.9L598.1 104.2L598.8 112.3L599.6 121.4L600.4 125.1L601.1 129.1L601.9 120.7L602.7 132.5L603.4 151.2L604.2 149.9L604.9 156.9L605.7 166.2L606.5 174L607.2 199.6L608 218.4L608.8 219.3L609.5 243.6L610.3 254.3L611.1 262.6L611.8 268.9L612.6 274.5L613.4 281.5L614.1 294.6L614.9 302L615.6 311.3L616.4 320.5L617.2 328.3L617.9 335.1L618.7 334.1L619.5 340.4L620.2 345.4L621 345.1L621.8 345.1L622.5 344.8L623.3 339.6L624.1 340.9L624.8 338.2L625.6 332.5L626.3 329.9L627.1 328.6L627.9 328L628.6 327.5L629.4 322.7L630.2 318.4L630.9 317.8L631.7 314.6L632.5 312.7L633.2 313.6L634 312L634.7 309.9L635.5 309.4L636.3 307.9L637 308.3L637.8 309.9L638.6 310.9L639.3 314.9L640.1 315.7L640.9 319.9L641.6 314L642.4 330.1L643.2 334.5L643.9 337.1L644.7 346.4L645.4 353.9L646.2 353.6L647 372.7L647.7 370.6L648.5 377.5L649.3 381.6L650 377.8L650.8 381.4L651.6 393.9L652.3 397.2L653.1 407.6L653.9 410.5L654.6 412.8L655.4 426.6L656.1 428.4L656.9 426.9L657.7 427.8L658.4 422.2L659.2 423.6L660 424.8L660.7 418.1L661.5 429.3L662.3 430.5L663 436.6L663.8 440.6L664.6 443.8L665.3 445.7L666.1 448.8L666.8 444.8L667.6 454.3L668.4 456.8L669.1 459.4L669.9 460.6L670.7 461.4L671.4 458.6L672.2 462.8L673 463.8L673.7 465.4L674.5 465.6L675.3 465.9L676 466.1L676.8 469.3L677.5 469.6L678.3 469L679.1 471.4L679.8 475.8L680.6 476L681.4 477.9L682.1 478.6L682.9 480.9L683.7 484.3L684.4 487.2L685.2 485.4L686 487.8L686.7 488L687.5 488.8L688.2 489.2L689 488.1L689.8 486.5L690.5 487.8L691.3 487.7L692.1 487.4L692.8 490.2L693.6 487.1L694.4 485.1L695.1 483.8L695.9 482.9L696.7 484L697.4 484.6L698.2 478.8L698.9 471.2L699.7 470.6L700.5 470.8L701.2 467.9L702 467.3L702.8 466.6L703.5 459.7L704.3 461.3L705.1 457.7L705.8 451.4L706.6 447.2L707.4 446L708.1 445.5L708.9 442.2L709.6 437.6L710.4 432.8L711.2 428.5L711.9 424.2L712.7 422.8L713.5 421.7L714.2 419.8L715 413.3L715.8 407L716.5 404.9L717.3 403.8L718 403L718.8 402.4L719.6 398.9L720.3 402.1L721.1 400.8L721.9 408.2L722.6 414.4L723.4 415L724.2 416L724.9 413.7L725.7 402.1L726.5 406.5L727.2 405.3L728 403.8L728.7 404.3L729.5 404.7L730.3 415.7L731 435.2L731.8 435.4L732.6 437.6L733.3 442.6L734.1 442.9L734.9 443.3L735.6 448.2L736.4 446.5L737.2 455.1L737.9 456.4L738.7 458L739.4 458.4L740.2 458.5L741 460.3L741.7 464.4L742.5 466.6L743.3 468.2L744 469.7L744.8 470L745.6 470.1L746.3 473.1L747.1 475.6L747.9 475.5L748.6 476.2L749.4 476.4L750.1 476.1L750.9 475.7L751.7 474L752.4 475L753.2 480.3L754 477.5L754.7 478L755.5 478L756.3 477.9"></path><polyline points="60.80,524.90 61.60,524.80 62.40,524.80 63.10,524.80 63.90,524.70 64.60,524.70 65.40,524.60 66.20,524.50 66.90,524.40 67.70,524.30 68.50,524.20 69.20,524.00 70.00,523.70 70.80,523.50 71.50,523.20 72.30,522.90 73.10,522.60 73.80,522.40 74.60,521.80 75.30,521.40 76.10,520.90 76.90,520.50 77.60,519.90 78.40,519.30 79.20,518.50 79.90,518.00 80.70,517.30 81.50,516.80 82.20,516.40 83.00,516.10 83.80,515.70 84.50,515.50 85.30,515.40 86.00,515.30 86.80,515.50 87.60,515.50 88.30,515.70 89.10,516.10 89.90,516.30 90.60,516.30 91.40,516.50 92.20,516.60 92.90,514.80 93.70,514.90 94.40,514.40 95.20,514.50 96.00,514.10 96.70,514.10 97.50,514.10 98.30,515.80 99.00,515.90 99.80,516.30 100.60,516.40 101.30,517.10 102.10,517.30 102.90,517.40 103.60,517.80 104.40,517.70 105.10,517.90 105.90,518.10 106.70,518.30 107.40,518.40 108.20,518.50 109.00,518.60 109.70,518.70 110.50,518.80 111.30,518.60 112.00,518.50 112.80,518.50 113.60,518.60 114.30,518.60 115.10,518.50 115.80,518.50 116.60,518.80 117.40,519.00 118.10,519.10 118.90,519.20 119.70,519.40 120.40,519.60 121.20,519.80 122.00,519.90 122.70,520.00 123.50,520.00 124.30,520.10 125.00,520.10 125.80,520.20 126.50,520.30 127.30,520.40 128.10,520.30 128.80,520.40 129.60,520.40 130.40,520.40 131.10,520.40 131.90,520.50 132.70,520.50 133.40,520.50 134.20,520.50 135.00,520.50 135.70,520.50 136.50,520.50 137.20,520.50 138.00,520.50 138.80,520.60 139.50,520.60 140.30,520.60 141.10,520.60 141.80,520.60 142.60,520.60 143.40,520.60 144.10,520.60 144.90,520.60 145.70,520.70 146.40,520.70 147.20,520.80 147.90,520.80 148.70,520.80 149.50,520.90 150.20,520.90 151.00,520.90 151.80,521.00 152.50,521.00 153.30,521.10 154.10,521.20 154.80,521.20 155.60,521.30 156.40,521.30 157.10,521.40 157.90,521.30 158.60,521.40 159.40,521.30 160.20,521.30 160.90,521.30 161.70,521.30 162.50,521.20 163.20,521.20 164.00,521.20 164.80,521.20 165.50,521.10 166.30,521.00 167.00,521.10 167.80,521.10 168.60,520.90 169.30,520.90 170.10,520.80 170.90,520.70 171.60,520.70 172.40,520.60 173.20,520.60 173.90,520.40 174.70,520.40 175.50,520.30 176.20,520.20 177.00,520.10 177.70,520.10 178.50,520.10 179.30,520.00 180.00,519.80 180.80,519.70 181.60,519.60 182.30,519.50 183.10,519.40 183.90,519.40 184.60,519.30 185.40,519.30 186.20,519.20 186.90,519.00 187.70,518.90 188.40,518.70 189.20,518.60 190.00,518.50 190.70,518.40 191.50,518.20 192.30,518.00 193.00,517.80 193.80,517.80 194.60,517.60 195.30,517.40 196.10,517.20 196.90,517.30 197.60,516.90 198.40,516.70 199.10,516.70 199.90,516.60 200.70,516.30 201.40,516.20 202.20,515.90 203.00,516.00 203.70,515.80 204.50,515.50 205.30,515.40 206.00,515.10 206.80,514.80 207.60,514.60 208.30,514.20 209.10,513.90 209.80,513.60 210.60,513.50 211.40,513.30 212.10,513.00 212.90,512.60 213.70,512.20 214.40,511.80 215.20,511.50 216.00,511.10 216.70,510.70 217.50,510.30 218.30,509.90 219.00,509.50 219.80,509.20 220.50,508.80 221.30,508.60 222.10,508.50 222.80,508.70 223.60,508.00 224.40,507.80 225.10,507.60 225.90,506.80 226.70,505.60 227.40,505.10 228.20,503.60 229.00,502.80 229.70,501.30 230.50,499.60 231.20,498.10 232.00,497.50 232.80,496.40 233.50,495.30 234.30,493.70 235.10,491.90 235.80,490.30 236.60,488.90 237.40,487.20 238.10,485.20 238.90,483.30 239.70,481.10 240.40,478.50 241.20,475.60 241.90,473.10 242.70,472.20 243.50,467.50 244.20,464.90 245.00,462.50 245.80,460.00 246.50,457.40 247.30,456.40 248.10,453.80 248.80,451.80 249.60,449.40 250.30,449.40 251.10,448.20 251.90,447.40 252.60,444.50 253.40,444.50 254.20,447.70 254.90,449.50 255.70,448.20 256.50,449.00 257.20,450.40 258.00,452.60 258.80,452.90 259.50,453.60 260.30,452.80 261.00,454.20 261.80,455.00 262.60,455.70 263.30,456.60 264.10,457.70 264.90,459.40 265.60,460.90 266.40,462.20 267.20,463.40 267.90,464.70 268.70,465.80 269.50,466.70 270.20,467.80 271.00,469.00 271.70,469.70 272.50,470.30 273.30,470.70 274.00,470.90 274.80,470.60 275.60,470.70 276.30,470.90 277.10,470.60 277.90,470.40 278.60,469.90 279.40,469.40 280.20,469.20 280.90,468.90 281.70,468.30 282.40,467.20 283.20,466.20 284.00,465.70 284.70,465.50 285.50,465.10 286.30,464.40 287.00,463.40 287.80,463.30 288.60,463.10 289.30,464.90 290.10,467.90 290.90,469.90 291.60,470.40 292.40,469.70 293.10,468.50 293.90,467.30 294.70,466.10 295.40,465.30 296.20,464.00 297.00,462.70 297.70,461.50 298.50,461.60 299.30,461.10 300.00,458.90 300.80,456.10 301.60,454.80 302.30,454.30 303.10,456.30 303.80,456.80 304.60,458.30 305.40,459.60 306.10,461.20 306.90,462.80 307.70,463.00 308.40,463.90 309.20,464.70 310.00,465.60 310.70,466.70 311.50,467.30 312.30,467.70 313.00,468.10 313.80,469.20 314.50,470.00 315.30,471.00 316.10,472.10 316.80,473.00 317.60,473.70 318.40,474.70 319.10,475.40 319.90,476.50 320.70,478.50 321.40,478.70 322.20,479.40 322.90,480.10 323.70,481.80 324.50,483.00 325.20,484.10 326.00,484.40 326.80,486.30 327.50,486.70 328.30,487.30 329.10,488.30 329.80,488.60 330.60,488.90 331.40,488.90 332.10,488.70 332.90,488.30 333.60,487.60 334.40,487.50 335.20,487.10 335.90,486.10 336.70,485.50 337.50,485.10 338.20,484.50 339.00,484.30 339.80,484.30 340.50,484.00 341.30,483.90 342.10,483.70 342.80,483.30 343.60,483.00 344.30,482.50 345.10,482.60 345.90,482.20 346.60,481.90 347.40,481.10 348.20,480.60 348.90,479.40 349.70,478.70 350.50,477.90 351.20,476.90 352.00,475.70 352.80,474.70 353.50,473.70 354.30,473.40 355.00,472.40 355.80,471.20 356.60,471.50 357.30,470.00 358.10,468.80 358.90,467.90 359.60,466.90 360.40,466.80 361.20,467.40 361.90,466.40 362.70,466.60 363.50,466.70 364.20,467.40 365.00,469.50 365.70,468.70 366.50,469.70 367.30,472.20 368.00,476.30 368.80,475.40 369.60,477.00 370.30,477.60 371.10,476.20 371.90,475.50 372.60,473.90 373.40,471.40 374.20,474.20 374.90,473.60 375.70,473.20 376.40,477.40 377.20,478.10 378.00,478.70 378.70,479.40 379.50,480.10 380.30,480.90 381.00,481.70 381.80,482.40 382.60,483.00 383.30,483.70 384.10,485.10 384.90,486.30 385.60,487.70 386.40,488.80 387.10,490.00 387.90,490.80 388.70,492.10 389.40,493.50 390.20,494.40 391.00,495.20 391.70,495.80 392.50,496.20 393.30,496.50 394.00,496.90 394.80,497.40 395.60,498.80 396.30,500.10 397.10,501.20 397.80,501.60 398.60,502.10 399.40,502.90 400.10,503.60 400.90,504.70 401.70,505.40 402.40,505.80 403.20,506.30 404.00,506.90 404.70,507.90 405.50,509.10 406.20,509.10 407.00,509.50 407.80,509.90 408.50,510.20 409.30,510.30 410.10,510.50 410.80,511.10 411.60,511.10 412.40,511.70 413.10,512.20 413.90,512.50 414.70,512.60 415.40,512.70 416.20,512.70 416.90,513.10 417.70,513.30 418.50,513.30 419.20,513.30 420.00,513.20 420.80,513.40 421.50,513.60 422.30,514.10 423.10,514.10 423.80,514.00 424.60,513.90 425.40,513.80 426.10,513.60 426.90,513.20 427.60,512.80 428.40,512.50 429.20,512.10 429.90,511.80 430.70,511.00 431.50,510.40 432.20,509.70 433.00,508.70 433.80,507.60 434.50,507.10 435.30,506.40 436.10,505.00 436.80,504.10 437.60,502.90 438.30,502.00 439.10,500.60 439.90,499.70 440.60,499.00 441.40,498.20 442.20,496.00 442.90,495.00 443.70,493.30 444.50,491.80 445.20,490.40 446.00,489.30 446.80,487.80 447.50,487.50 448.30,486.60 449.00,486.40 449.80,486.90 450.60,487.30 451.30,488.20 452.10,488.80 452.90,489.50 453.60,490.00 454.40,490.40 455.20,490.70 455.90,491.10 456.70,491.10 457.50,491.30 458.20,491.70 459.00,491.70 459.70,491.70 460.50,491.70 461.30,491.40 462.00,491.10 462.80,491.60 463.60,491.30 464.30,491.10 465.10,490.80 465.90,490.60 466.60,490.30 467.40,490.20 468.20,490.20 468.90,490.00 469.70,489.80 470.40,489.80 471.20,489.60 472.00,489.30 472.70,489.10 473.50,489.10 474.30,488.80 475.00,488.70 475.80,488.70 476.60,489.40 477.30,488.80 478.10,488.90 478.80,489.30 479.60,490.30 480.40,490.00 481.10,490.20 481.90,489.50 482.70,490.20 483.40,490.20 484.20,490.30 485.00,489.10 485.70,490.00 486.50,489.90 487.30,490.20 488.00,490.60 488.80,491.00 489.50,491.00 490.30,491.70 491.10,492.30 491.80,492.60 492.60,492.80 493.40,492.60 494.10,492.60 494.90,492.40 495.70,492.40 496.40,492.00 497.20,492.10 498.00,492.00 498.70,492.00 499.50,491.70 500.20,491.50 501.00,491.00 501.80,490.50 502.50,489.90 503.30,489.50 504.10,488.90 504.80,488.80 505.60,488.60 506.40,488.30 507.10,487.70 507.90,487.20 508.70,486.60 509.40,485.70 510.20,485.10 510.90,484.40 511.70,483.70 512.50,483.10 513.20,482.10 514.00,481.20 514.80,480.50 515.50,479.50 516.30,478.30 517.10,477.00 517.80,475.10 518.60,473.50 519.40,471.40 520.10,469.70 520.90,468.70 521.60,467.90 522.40,466.80 523.20,465.60 523.90,464.70 524.70,463.90 525.50,463.10 526.20,462.60 527.00,462.30 527.80,462.90 528.50,461.50 529.30,460.00 530.10,458.90 530.80,457.50 531.60,456.80 532.30,455.00 533.10,453.00 533.90,451.30 534.60,450.10 535.40,448.70 536.20,448.20 536.90,447.10 537.70,445.50 538.50,443.50 539.20,442.10 540.00,439.70 540.80,438.00 541.50,435.70 542.30,434.40 543.00,431.70 543.80,430.70 544.60,428.90 545.30,427.40 546.10,424.80 546.90,424.50 547.60,424.10 548.40,424.60 549.20,423.40 549.90,423.00 550.70,422.20 551.50,422.10 552.20,421.70 553.00,421.70 553.70,422.90 554.50,421.70 555.30,422.00 556.00,422.60 556.80,423.80 557.60,424.70 558.30,425.30 559.10,424.90 559.90,425.60 560.60,424.80 561.40,424.50 562.10,423.50 562.90,422.10 563.70,421.10 564.40,419.40 565.20,417.60 566.00,415.50 566.70,411.00 567.50,410.60 568.30,407.10 569.00,408.30 569.80,399.40 570.60,387.40 571.30,371.70 572.10,353.70 572.80,336.90 573.60,325.10 574.40,320.60 575.10,305.80 575.90,288.60 576.70,272.90 577.40,269.30 578.20,253.40 579.00,245.20 579.70,226.60 580.50,225.10 581.30,219.50 582.00,215.50 582.80,210.50 583.50,208.40 584.30,207.50 585.10,208.10 585.80,206.90 586.60,198.10 587.40,190.00 588.10,172.60 588.90,161.60 589.70,150.30 590.40,142.00 591.20,130.80 592.00,119.50 592.70,112.60 593.50,104.90 594.20,101.70 595.00,97.50 595.80,94.80 596.50,97.30 597.30,101.90 598.10,104.20 598.80,112.30 599.60,121.40 600.40,125.10 601.10,129.10 601.90,120.70 602.70,132.50 603.40,151.20 604.20,149.90 604.90,156.90 605.70,166.20 606.50,174.00 607.20,199.60 608.00,218.40 608.80,219.30 609.50,243.60 610.30,254.30 611.10,262.60 611.80,268.90 612.60,274.50 613.40,281.50 614.10,294.60 614.90,302.00 615.60,311.30 616.40,320.50 617.20,328.30 617.90,335.10 618.70,334.10 619.50,340.40 620.20,345.40 621.00,345.10 621.80,345.10 622.50,344.80 623.30,339.60 624.10,340.90 624.80,338.20 625.60,332.50 626.30,329.90 627.10,328.60 627.90,328.00 628.60,327.50 629.40,322.70 630.20,318.40 630.90,317.80 631.70,314.60 632.50,312.70 633.20,313.60 634.00,312.00 634.70,309.90 635.50,309.40 636.30,307.90 637.00,308.30 637.80,309.90 638.60,310.90 639.30,314.90 640.10,315.70 640.90,319.90 641.60,314.00 642.40,330.10 643.20,334.50 643.90,337.10 644.70,346.40 645.40,353.90 646.20,353.60 647.00,372.70 647.70,370.60 648.50,377.50 649.30,381.60 650.00,377.80 650.80,381.40 651.60,393.90 652.30,397.20 653.10,407.60 653.90,410.50 654.60,412.80 655.40,426.60 656.10,428.40 656.90,426.90 657.70,427.80 658.40,422.20 659.20,423.60 660.00,424.80 660.70,418.10 661.50,429.30 662.30,430.50 663.00,436.60 663.80,440.60 664.60,443.80 665.30,445.70 666.10,448.80 666.80,444.80 667.60,454.30 668.40,456.80 669.10,459.40 669.90,460.60 670.70,461.40 671.40,458.60 672.20,462.80 673.00,463.80 673.70,465.40 674.50,465.60 675.30,465.90 676.00,466.10 676.80,469.30 677.50,469.60 678.30,469.00 679.10,471.40 679.80,475.80 680.60,476.00 681.40,477.90 682.10,478.60 682.90,480.90 683.70,484.30 684.40,487.20 685.20,485.40 686.00,487.80 686.70,488.00 687.50,488.80 688.20,489.20 689.00,488.10 689.80,486.50 690.50,487.80 691.30,487.70 692.10,487.40 692.80,490.20 693.60,487.10 694.40,485.10 695.10,483.80 695.90,482.90 696.70,484.00 697.40,484.60 698.20,478.80 698.90,471.20 699.70,470.60 700.50,470.80 701.20,467.90 702.00,467.30 702.80,466.60 703.50,459.70 704.30,461.30 705.10,457.70 705.80,451.40 706.60,447.20 707.40,446.00 708.10,445.50 708.90,442.20 709.60,437.60 710.40,432.80 711.20,428.50 711.90,424.20 712.70,422.80 713.50,421.70 714.20,419.80 715.00,413.30 715.80,407.00 716.50,404.90 717.30,403.80 718.00,403.00 718.80,402.40 719.60,398.90 720.30,402.10 721.10,400.80 721.90,408.20 722.60,414.40 723.40,415.00 724.20,416.00 724.90,413.70 725.70,402.10 726.50,406.50 727.20,405.30 728.00,403.80 728.70,404.30 729.50,404.70 730.30,415.70 731.00,435.20 731.80,435.40 732.60,437.60 733.30,442.60 734.10,442.90 734.90,443.30 735.60,448.20 736.40,446.50 737.20,455.10 737.90,456.40 738.70,458.00 739.40,458.40 740.20,458.50 741.00,460.30 741.70,464.40 742.50,466.60 743.30,468.20 744.00,469.70 744.80,470.00 745.60,470.10 746.30,473.10 747.10,475.60 747.90,475.50 748.60,476.20 749.40,476.40 750.10,476.10 750.90,475.70 751.70,474.00 752.40,475.00 753.20,480.30 754.00,477.50 754.70,478.00 755.50,478.00 756.30,477.90" stroke-linejoin="round" stroke-width="1.5" stroke="#00823F" fill="none" stroke-linecap="butt"></polyline></g></g></g></g><g class="SourcesFooter" style="fill:#777"><g style="fill:#777"><text font-size="12.60" x="15.0" y="582.7"><tspan x="15" y="582.732">Source: Johns Hopkins University CSSE COVID-19 Data</tspan></text></g><text font-size="12.60" x="796.4" y="582.7"><tspan x="796.444" y="582.732"><a style="fill: #777;" class="cclogo" href="http://creativecommons.org/licenses/by/4.0/deed.en_US" target="_blank">CC BY</a></tspan></text></g></svg>