<svg xmlns="http://www.w3.org/2000/svg" version="1.1" style="font-family:Lato, &#x27;Helvetica Neue&#x27;, Helvetica, Arial, sans-serif;font-size:18px;background-color:white;text-rendering:geometricPrecision;-webkit-font-smoothing:antialiased" width="850" height="600" viewBox="0 0 850 600"><g class="HeaderView"><g transform="translate(774, 15) scale(0.29)"><svg className="owidLog" width="210" height="120" viewBox="0 0 210 120" fill="none" xmlns="http://www.w3.org/2000/svg">
<g clip-path="url(#clip0)">
  <path d="M0 0h210v107.89H0V0z" fill="#002147" />
  <path
    d="M40.98 32.25c0 2.36-.38 4.53-1.12 6.51a14.26 14.26 0 0 1-8.1 8.4c-1.9.78-4.02 1.17-6.34 1.17-2.31 0-4.42-.39-6.33-1.17a14.31 14.31 0 0 1-8.08-8.4 18.29 18.29 0 0 1-1.12-6.51c0-2.36.38-4.53 1.12-6.5.75-1.97 1.8-3.67 3.17-5.1a14.32 14.32 0 0 1 4.9-3.34c1.92-.8 4.03-1.19 6.34-1.19 2.32 0 4.43.4 6.34 1.19 1.92.8 3.56 1.9 4.93 3.34a14.87 14.87 0 0 1 3.17 5.1 18.1 18.1 0 0 1 1.12 6.5zm-4.38 0c0-1.94-.26-3.68-.8-5.22a10.91 10.91 0 0 0-2.24-3.89 9.68 9.68 0 0 0-3.52-2.46 11.95 11.95 0 0 0-4.62-.86c-1.68 0-3.21.28-4.6.86a9.88 9.88 0 0 0-3.54 2.46 10.91 10.91 0 0 0-2.24 3.9c-.53 1.53-.8 3.27-.8 5.2 0 1.94.27 3.68.8 5.22a11.17 11.17 0 0 0 2.24 3.9 10.01 10.01 0 0 0 3.55 2.44c1.38.56 2.9.83 4.6.83s3.24-.27 4.61-.83a9.8 9.8 0 0 0 3.52-2.44 11.17 11.17 0 0 0 2.25-3.9c.53-1.54.8-3.28.8-5.21zm26.22-6.54V48H60.5c-.56 0-.9-.27-1.05-.81l-.31-2.4a12.45 12.45 0 0 1-3.26 2.6c-1.2.64-2.58.96-4.13.96-1.22 0-2.3-.2-3.24-.6a6.52 6.52 0 0 1-2.33-1.7 7.37 7.37 0 0 1-1.43-2.67c-.3-1.04-.46-2.2-.46-3.45V25.7h3.91v14.22c0 1.68.38 2.99 1.15 3.91.77.93 1.96 1.39 3.54 1.39 1.16 0 2.24-.27 3.23-.82a10.42 10.42 0 0 0 2.8-2.28V25.7h3.91zm8.61 4.47a9.94 9.94 0 0 1 2.6-3.56 5.64 5.64 0 0 1 3.76-1.3c.47 0 .92.05 1.34.15.44.1.83.27 1.17.49l-.3 2.92c-.09.37-.3.55-.66.55-.2 0-.5-.04-.9-.13a6.21 6.21 0 0 0-3.24.18 4.23 4.23 0 0 0-1.47.92c-.42.4-.81.9-1.17 1.5-.33.58-.64 1.26-.92 2.02V48H67.7V25.71h2.25c.42 0 .72.08.88.25.16.16.27.44.33.83l.26 3.39zm61.16-13.7L122.75 48h-3.82l-7.99-24.05a21.95 21.95 0 0 1-.42-1.58 38.36 38.36 0 0 1-.44 1.58L102.05 48h-3.83L88.4 16.47h3.54c.38 0 .7.1.95.29.26.2.43.43.5.73l6.52 21.9.28 1.28.29 1.46.3-1.46.38-1.27 7.41-21.91c.1-.25.26-.48.51-.69.27-.22.58-.33.95-.33h1.23c.38 0 .69.1.92.29a1.77 1.77 0 0 1 .53.73l7.4 21.9a28.4 28.4 0 0 1 .68 2.62 29.52 29.52 0 0 1 .52-2.61l6.54-21.91a1.31 1.31 0 0 1 .48-.7c.27-.21.58-.32.95-.32h3.32zm9.35 8.88c1.63 0 3.1.27 4.4.82a9.43 9.43 0 0 1 5.46 5.94c.5 1.4.74 2.98.74 4.73 0 1.76-.25 3.34-.74 4.75a9.43 9.43 0 0 1-5.46 5.92c-1.3.52-2.77.79-4.4.79-1.64 0-3.12-.27-4.44-.8a9.42 9.42 0 0 1-3.35-2.3c-.92-1-1.63-2.2-2.13-3.61-.49-1.41-.73-3-.73-4.75s.24-3.33.73-4.73c.5-1.43 1.2-2.64 2.13-3.63.93-1 2.04-1.77 3.35-2.31 1.32-.55 2.8-.82 4.44-.82zm0 19.89c2.2 0 3.84-.73 4.93-2.2 1.08-1.48 1.63-3.54 1.63-6.18 0-2.66-.55-4.72-1.63-6.2-1.09-1.49-2.73-2.23-4.93-2.23-1.12 0-2.09.2-2.93.57a5.71 5.71 0 0 0-2.06 1.65c-.55.72-.96 1.61-1.24 2.67-.26 1.04-.4 2.22-.4 3.54 0 2.64.55 4.7 1.64 6.18 1.1 1.47 2.76 2.2 4.99 2.2zm17.97-15.07a9.94 9.94 0 0 1 2.6-3.56 5.64 5.64 0 0 1 3.76-1.3c.47 0 .91.05 1.34.15.44.1.83.27 1.16.49l-.28 2.92c-.09.37-.31.55-.66.55-.2 0-.5-.04-.9-.13a6.2 6.2 0 0 0-3.24.18 4.23 4.23 0 0 0-1.47.92c-.43.4-.82.9-1.17 1.5a13.1 13.1 0 0 0-.92 2.02V48h-3.94V25.71h2.24c.43 0 .72.08.88.25.17.16.28.44.33.83l.27 3.39zm15.04-14.59V48h-3.92V15.6h3.92zm19.55 15.43a6.22 6.22 0 0 0-2.38-2.05 6.7 6.7 0 0 0-2.86-.6c-2.07 0-3.66.75-4.77 2.23-1.12 1.48-1.68 3.6-1.68 6.33 0 1.46.13 2.7.38 3.74a7.29 7.29 0 0 0 1.1 2.56 4.35 4.35 0 0 0 1.78 1.45c.7.3 1.5.46 2.4.46 1.29 0 2.41-.3 3.36-.88a9.6 9.6 0 0 0 2.67-2.49V31.02zm3.91-15.43V48h-2.33c-.56 0-.9-.27-1.06-.81l-.35-2.71a12.13 12.13 0 0 1-3.25 2.77 8.28 8.28 0 0 1-4.23 1.06 7.31 7.31 0 0 1-6.14-2.9c-.73-.96-1.3-2.15-1.69-3.57a18.35 18.35 0 0 1 .07-9.48 11.29 11.29 0 0 1 1.89-3.7 8.7 8.7 0 0 1 7.06-3.34 7.96 7.96 0 0 1 6.12 2.62V15.59h3.91zM46.61 70.71V93H42.7V70.71h3.91zm.84-7c0 .39-.08.75-.24 1.09-.15.32-.35.61-.62.88-.25.25-.55.44-.9.59a2.67 2.67 0 0 1-2.16 0 2.9 2.9 0 0 1-1.45-1.47 2.67 2.67 0 0 1 0-2.16c.15-.35.35-.65.6-.9.25-.27.53-.47.85-.62a2.67 2.67 0 0 1 2.16 0c.35.15.65.35.9.62.27.25.47.55.62.9.16.34.24.7.24 1.08zm7.97 10.24c.49-.54 1-1.04 1.54-1.48a9.85 9.85 0 0 1 3.66-1.84 8.96 8.96 0 0 1 5.43.35c.94.4 1.72.97 2.33 1.71.63.74 1.11 1.62 1.43 2.67.32 1.04.49 2.19.49 3.45V93h-3.94V78.81c0-1.69-.4-3-1.17-3.92-.76-.93-1.93-1.4-3.5-1.4-1.15 0-2.24.27-3.25.83-1 .56-1.92 1.31-2.77 2.27V93h-3.94V70.71h2.35c.56 0 .9.28 1.04.82l.3 2.42zm57.7 3.3c0 2.36-.37 4.5-1.11 6.44a14.3 14.3 0 0 1-3.17 4.98c-1.37 1.37-3 2.45-4.93 3.2-1.9.76-4.02 1.13-6.33 1.13H85.8V61.47h11.77c2.31 0 4.42.39 6.33 1.15a13.8 13.8 0 0 1 8.1 8.18 17.75 17.75 0 0 1 1.12 6.45zm-4.37 0c0-1.94-.26-3.67-.8-5.2a10.94 10.94 0 0 0-2.23-3.87 9.57 9.57 0 0 0-3.53-2.42 12.23 12.23 0 0 0-4.61-.83h-7.5v24.62h7.5c1.7 0 3.24-.28 4.61-.84a9.7 9.7 0 0 0 3.53-2.4 10.94 10.94 0 0 0 2.24-3.87c.53-1.53.8-3.26.8-5.2zm19.8 5.72c-1.8.06-3.34.2-4.62.44-1.26.22-2.3.51-3.1.88-.8.36-1.37.8-1.74 1.3-.35.5-.53 1.05-.53 1.67 0 .58.1 1.1.3 1.52a3 3 0 0 0 .76 1.05c.34.27.73.46 1.17.6a6.13 6.13 0 0 0 1.45.17 7.28 7.28 0 0 0 3.5-.81 11.95 11.95 0 0 0 2.82-2.2v-4.62zm-12.65-9.11a12.73 12.73 0 0 1 3.98-2.66c1.43-.59 3-.88 4.73-.88 1.25 0 2.36.2 3.33.61a6.81 6.81 0 0 1 3.94 4.38c.33 1.04.5 2.19.5 3.43V93h-1.74a1.8 1.8 0 0 1-.88-.18c-.2-.13-.36-.38-.48-.74l-.44-2.12-1.72 1.46a9.48 9.48 0 0 1-3.74 1.7c-.69.15-1.46.23-2.3.23-.87 0-1.69-.12-2.45-.35a5.34 5.34 0 0 1-3.34-2.93 6.64 6.64 0 0 1-.49-2.64c0-.88.25-1.72.73-2.53a6.33 6.33 0 0 1 2.35-2.17c1.09-.63 2.5-1.15 4.25-1.54 1.75-.41 3.89-.65 6.42-.7v-1.75c0-1.73-.37-3.03-1.12-3.91-.75-.9-1.84-1.34-3.28-1.34-.97 0-1.78.12-2.44.37-.64.23-1.2.5-1.7.81l-1.23.82c-.33.23-.67.35-1 .35-.27 0-.5-.07-.69-.2a2.1 2.1 0 0 1-.48-.53l-.7-1.25zm27.67 19.5c-1.76 0-3.12-.5-4.07-1.48-.94-.98-1.41-2.4-1.41-4.25V74h-2.68a.9.9 0 0 1-.6-.2c-.16-.14-.24-.36-.24-.66v-1.56l3.65-.46.9-6.89c.05-.22.14-.4.29-.52a.88.88 0 0 1 .62-.22H142v7.67h6.44V74H142v13.38c0 .94.22 1.63.68 2.09.45.45 1.04.68 1.76.68a3.21 3.21 0 0 0 1.85-.53l.55-.35c.16-.12.3-.18.41-.18.2 0 .4.13.55.38l1.15 1.87a7.45 7.45 0 0 1-2.44 1.5 8.53 8.53 0 0 1-2.95.52zm19.68-10.4c-1.8.07-3.34.21-4.62.45-1.26.22-2.3.51-3.1.88-.8.36-1.37.8-1.74 1.3-.35.5-.53 1.05-.53 1.67 0 .58.1 1.1.3 1.52a2.9 2.9 0 0 0 .76 1.05c.34.27.73.46 1.17.6a6.13 6.13 0 0 0 1.45.17 7.3 7.3 0 0 0 3.5-.81 12.04 12.04 0 0 0 2.82-2.2v-4.62zm-12.65-9.1a12.72 12.72 0 0 1 3.99-2.66c1.42-.59 3-.88 4.72-.88 1.25 0 2.36.2 3.33.61a6.81 6.81 0 0 1 3.94 4.38c.33 1.04.5 2.19.5 3.43V93h-1.74a1.8 1.8 0 0 1-.88-.18c-.2-.13-.36-.38-.48-.74l-.44-2.12-1.72 1.46a9.48 9.48 0 0 1-3.74 1.7c-.69.15-1.46.23-2.3.23-.87 0-1.69-.12-2.45-.35a5.33 5.33 0 0 1-3.34-2.93 6.62 6.62 0 0 1-.49-2.64c0-.88.25-1.72.73-2.53a6.33 6.33 0 0 1 2.35-2.17c1.09-.63 2.5-1.15 4.25-1.54 1.74-.41 3.89-.65 6.42-.7v-1.75c0-1.73-.37-3.03-1.12-3.91-.75-.9-1.84-1.34-3.28-1.34-.97 0-1.78.12-2.44.37-.64.23-1.2.5-1.7.81l-1.22.82c-.34.23-.68.35-1.02.35-.26 0-.49-.07-.68-.2a1.88 1.88 0 0 1-.48-.53l-.7-1.25zM40.98 32.25c0 2.36-.38 4.53-1.12 6.51a14.26 14.26 0 0 1-8.1 8.4c-1.9.78-4.02 1.17-6.34 1.17-2.31 0-4.42-.39-6.33-1.17a14.31 14.31 0 0 1-8.08-8.4 18.29 18.29 0 0 1-1.12-6.51c0-2.36.38-4.53 1.12-6.5.75-1.97 1.8-3.67 3.17-5.1a14.32 14.32 0 0 1 4.9-3.34c1.92-.8 4.03-1.19 6.34-1.19 2.32 0 4.43.4 6.34 1.19 1.92.8 3.56 1.9 4.93 3.34a14.87 14.87 0 0 1 3.17 5.1 18.1 18.1 0 0 1 1.12 6.5zm-4.38 0c0-1.94-.26-3.68-.8-5.22a10.91 10.91 0 0 0-2.24-3.89 9.68 9.68 0 0 0-3.52-2.46 11.95 11.95 0 0 0-4.62-.86c-1.68 0-3.21.28-4.6.86a9.88 9.88 0 0 0-3.54 2.46 10.91 10.91 0 0 0-2.24 3.9c-.53 1.53-.8 3.27-.8 5.2 0 1.94.27 3.68.8 5.22a11.17 11.17 0 0 0 2.24 3.9 10.01 10.01 0 0 0 3.55 2.44c1.38.56 2.9.83 4.6.83s3.24-.27 4.61-.83a9.8 9.8 0 0 0 3.52-2.44 11.17 11.17 0 0 0 2.25-3.9c.53-1.54.8-3.28.8-5.21zm26.22-6.54V48H60.5c-.56 0-.9-.27-1.05-.81l-.31-2.4a12.45 12.45 0 0 1-3.26 2.6c-1.2.64-2.58.96-4.13.96-1.22 0-2.3-.2-3.24-.6a6.52 6.52 0 0 1-2.33-1.7 7.37 7.37 0 0 1-1.43-2.67c-.3-1.04-.46-2.2-.46-3.45V25.7h3.91v14.22c0 1.68.38 2.99 1.15 3.91.77.93 1.96 1.39 3.54 1.39 1.16 0 2.24-.27 3.23-.82a10.42 10.42 0 0 0 2.8-2.28V25.7h3.91zm8.61 4.47a9.94 9.94 0 0 1 2.6-3.56 5.64 5.64 0 0 1 3.76-1.3c.47 0 .92.05 1.34.15.44.1.83.27 1.17.49l-.3 2.92c-.09.37-.3.55-.66.55-.2 0-.5-.04-.9-.13a6.21 6.21 0 0 0-3.24.18 4.23 4.23 0 0 0-1.47.92c-.42.4-.81.9-1.17 1.5-.33.58-.64 1.26-.92 2.02V48H67.7V25.71h2.25c.42 0 .72.08.88.25.16.16.27.44.33.83l.26 3.39zm61.16-13.7L122.75 48h-3.82l-7.99-24.05a21.95 21.95 0 0 1-.42-1.58 38.36 38.36 0 0 1-.44 1.58L102.05 48h-3.83L88.4 16.47h3.54c.38 0 .7.1.95.29.26.2.43.43.5.73l6.52 21.9.28 1.28.29 1.46.3-1.46.38-1.27 7.41-21.91c.1-.25.26-.48.51-.69.27-.22.58-.33.95-.33h1.23c.38 0 .69.1.92.29a1.77 1.77 0 0 1 .53.73l7.4 21.9a28.4 28.4 0 0 1 .68 2.62 29.52 29.52 0 0 1 .52-2.61l6.54-21.91a1.31 1.31 0 0 1 .48-.7c.27-.21.58-.32.95-.32h3.32zm9.35 8.88c1.63 0 3.1.27 4.4.82a9.43 9.43 0 0 1 5.46 5.94c.5 1.4.74 2.98.74 4.73 0 1.76-.25 3.34-.74 4.75a9.43 9.43 0 0 1-5.46 5.92c-1.3.52-2.77.79-4.4.79-1.64 0-3.12-.27-4.44-.8a9.42 9.42 0 0 1-3.35-2.3c-.92-1-1.63-2.2-2.13-3.61-.49-1.41-.73-3-.73-4.75s.24-3.33.73-4.73c.5-1.43 1.2-2.64 2.13-3.63.93-1 2.04-1.77 3.35-2.31 1.32-.55 2.8-.82 4.44-.82zm0 19.89c2.2 0 3.84-.73 4.93-2.2 1.08-1.48 1.63-3.54 1.63-6.18 0-2.66-.55-4.72-1.63-6.2-1.09-1.49-2.73-2.23-4.93-2.23-1.12 0-2.09.2-2.93.57a5.71 5.71 0 0 0-2.06 1.65c-.55.72-.96 1.61-1.24 2.67-.26 1.04-.4 2.22-.4 3.54 0 2.64.55 4.7 1.64 6.18 1.1 1.47 2.76 2.2 4.99 2.2zm17.97-15.07a9.94 9.94 0 0 1 2.6-3.56 5.64 5.64 0 0 1 3.76-1.3c.47 0 .91.05 1.34.15.44.1.83.27 1.16.49l-.28 2.92c-.09.37-.31.55-.66.55-.2 0-.5-.04-.9-.13a6.2 6.2 0 0 0-3.24.18 4.23 4.23 0 0 0-1.47.92c-.43.4-.82.9-1.17 1.5a13.1 13.1 0 0 0-.92 2.02V48h-3.94V25.71h2.24c.43 0 .72.08.88.25.17.16.28.44.33.83l.27 3.39zm15.04-14.59V48h-3.92V15.6h3.92zm19.55 15.43a6.22 6.22 0 0 0-2.38-2.05 6.7 6.7 0 0 0-2.86-.6c-2.07 0-3.66.75-4.77 2.23-1.12 1.48-1.68 3.6-1.68 6.33 0 1.46.13 2.7.38 3.74a7.29 7.29 0 0 0 1.1 2.56 4.35 4.35 0 0 0 1.78 1.45c.7.3 1.5.46 2.4.46 1.29 0 2.41-.3 3.36-.88a9.6 9.6 0 0 0 2.67-2.49V31.02zm3.91-15.43V48h-2.33c-.56 0-.9-.27-1.06-.81l-.35-2.71a12.13 12.13 0 0 1-3.25 2.77 8.28 8.28 0 0 1-4.23 1.06 7.31 7.31 0 0 1-6.14-2.9c-.73-.96-1.3-2.15-1.69-3.57a18.35 18.35 0 0 1 .07-9.48 11.29 11.29 0 0 1 1.89-3.7 8.7 8.7 0 0 1 7.06-3.34 7.96 7.96 0 0 1 6.12 2.62V15.59h3.91zM46.61 70.71V93H42.7V70.71h3.91zm.84-7c0 .39-.08.75-.24 1.09-.15.32-.35.61-.62.88-.25.25-.55.44-.9.59a2.67 2.67 0 0 1-2.16 0 2.9 2.9 0 0 1-1.45-1.47 2.67 2.67 0 0 1 0-2.16c.15-.35.35-.65.6-.9.25-.27.53-.47.85-.62a2.67 2.67 0 0 1 2.16 0c.35.15.65.35.9.62.27.25.47.55.62.9.16.34.24.7.24 1.08zm7.97 10.24c.49-.54 1-1.04 1.54-1.48a9.85 9.85 0 0 1 3.66-1.84 8.96 8.96 0 0 1 5.43.35c.94.4 1.72.97 2.33 1.71.63.74 1.11 1.62 1.43 2.67.32 1.04.49 2.19.49 3.45V93h-3.94V78.81c0-1.69-.4-3-1.17-3.92-.76-.93-1.93-1.4-3.5-1.4-1.15 0-2.24.27-3.25.83-1 .56-1.92 1.31-2.77 2.27V93h-3.94V70.71h2.35c.56 0 .9.28 1.04.82l.3 2.42zm57.7 3.3c0 2.36-.37 4.5-1.11 6.44a14.3 14.3 0 0 1-3.17 4.98c-1.37 1.37-3 2.45-4.93 3.2-1.9.76-4.02 1.13-6.33 1.13H85.8V61.47h11.77c2.31 0 4.42.39 6.33 1.15a13.8 13.8 0 0 1 8.1 8.18 17.75 17.75 0 0 1 1.12 6.45zm-4.37 0c0-1.94-.26-3.67-.8-5.2a10.94 10.94 0 0 0-2.23-3.87 9.57 9.57 0 0 0-3.53-2.42 12.23 12.23 0 0 0-4.61-.83h-7.5v24.62h7.5c1.7 0 3.24-.28 4.61-.84a9.7 9.7 0 0 0 3.53-2.4 10.94 10.94 0 0 0 2.24-3.87c.53-1.53.8-3.26.8-5.2zm19.8 5.72c-1.8.06-3.34.2-4.62.44-1.26.22-2.3.51-3.1.88-.8.36-1.37.8-1.74 1.3-.35.5-.53 1.05-.53 1.67 0 .58.1 1.1.3 1.52a3 3 0 0 0 .76 1.05c.34.27.73.46 1.17.6a6.13 6.13 0 0 0 1.45.17 7.28 7.28 0 0 0 3.5-.81 11.95 11.95 0 0 0 2.82-2.2v-4.62zm-12.65-9.11a12.73 12.73 0 0 1 3.98-2.66c1.43-.59 3-.88 4.73-.88 1.25 0 2.36.2 3.33.61a6.81 6.81 0 0 1 3.94 4.38c.33 1.04.5 2.19.5 3.43V93h-1.74a1.8 1.8 0 0 1-.88-.18c-.2-.13-.36-.38-.48-.74l-.44-2.12-1.72 1.46a9.48 9.48 0 0 1-3.74 1.7c-.69.15-1.46.23-2.3.23-.87 0-1.69-.12-2.45-.35a5.34 5.34 0 0 1-3.34-2.93 6.64 6.64 0 0 1-.49-2.64c0-.88.25-1.72.73-2.53a6.33 6.33 0 0 1 2.35-2.17c1.09-.63 2.5-1.15 4.25-1.54 1.75-.41 3.89-.65 6.42-.7v-1.75c0-1.73-.37-3.03-1.12-3.91-.75-.9-1.84-1.34-3.28-1.34-.97 0-1.78.12-2.44.37-.64.23-1.2.5-1.7.81l-1.23.82c-.33.23-.67.35-1 .35-.27 0-.5-.07-.69-.2a2.1 2.1 0 0 1-.48-.53l-.7-1.25zm27.67 19.5c-1.76 0-3.12-.5-4.07-1.48-.94-.98-1.41-2.4-1.41-4.25V74h-2.68a.9.9 0 0 1-.6-.2c-.16-.14-.24-.36-.24-.66v-1.56l3.65-.46.9-6.89c.05-.22.14-.4.29-.52a.88.88 0 0 1 .62-.22H142v7.67h6.44V74H142v13.38c0 .94.22 1.63.68 2.09.45.45 1.04.68 1.76.68a3.21 3.21 0 0 0 1.85-.53l.55-.35c.16-.12.3-.18.41-.18.2 0 .4.13.55.38l1.15 1.87a7.45 7.45 0 0 1-2.44 1.5 8.53 8.53 0 0 1-2.95.52zm19.68-10.4c-1.8.07-3.34.21-4.62.45-1.26.22-2.3.51-3.1.88-.8.36-1.37.8-1.74 1.3-.35.5-.53 1.05-.53 1.67 0 .58.1 1.1.3 1.52a2.9 2.9 0 0 0 .76 1.05c.34.27.73.46 1.17.6a6.13 6.13 0 0 0 1.45.17 7.3 7.3 0 0 0 3.5-.81 12.04 12.04 0 0 0 2.82-2.2v-4.62zm-12.65-9.1a12.72 12.72 0 0 1 3.99-2.66c1.42-.59 3-.88 4.72-.88 1.25 0 2.36.2 3.33.61a6.81 6.81 0 0 1 3.94 4.38c.33 1.04.5 2.19.5 3.43V93h-1.74a1.8 1.8 0 0 1-.88-.18c-.2-.13-.36-.38-.48-.74l-.44-2.12-1.72 1.46a9.48 9.48 0 0 1-3.74 1.7c-.69.15-1.46.23-2.3.23-.87 0-1.69-.12-2.45-.35a5.33 5.33 0 0 1-3.34-2.93 6.62 6.62 0 0 1-.49-2.64c0-.88.25-1.72.73-2.53a6.33 6.33 0 0 1 2.35-2.17c1.09-.63 2.5-1.15 4.25-1.54 1.74-.41 3.89-.65 6.42-.7v-1.75c0-1.73-.37-3.03-1.12-3.91-.75-.9-1.84-1.34-3.28-1.34-.97 0-1.78.12-2.44.37-.64.23-1.2.5-1.7.81l-1.22.82c-.34.23-.68.35-1.02.35-.26 0-.49-.07-.68-.2a1.88 1.88 0 0 1-.48-.53l-.7-1.25zM40.98 32.25c0 2.36-.38 4.53-1.12 6.51a14.26 14.26 0 0 1-8.1 8.4c-1.9.78-4.02 1.17-6.34 1.17-2.31 0-4.42-.39-6.33-1.17a14.31 14.31 0 0 1-8.08-8.4 18.29 18.29 0 0 1-1.12-6.51c0-2.36.38-4.53 1.12-6.5.75-1.97 1.8-3.67 3.17-5.1a14.32 14.32 0 0 1 4.9-3.34c1.92-.8 4.03-1.19 6.34-1.19 2.32 0 4.43.4 6.34 1.19 1.92.8 3.56 1.9 4.93 3.34a14.87 14.87 0 0 1 3.17 5.1 18.1 18.1 0 0 1 1.12 6.5zm-4.38 0c0-1.94-.26-3.68-.8-5.22a10.91 10.91 0 0 0-2.24-3.89 9.68 9.68 0 0 0-3.52-2.46 11.95 11.95 0 0 0-4.62-.86c-1.68 0-3.21.28-4.6.86a9.88 9.88 0 0 0-3.54 2.46 10.91 10.91 0 0 0-2.24 3.9c-.53 1.53-.8 3.27-.8 5.2 0 1.94.27 3.68.8 5.22a11.17 11.17 0 0 0 2.24 3.9 10.01 10.01 0 0 0 3.55 2.44c1.38.56 2.9.83 4.6.83s3.24-.27 4.61-.83a9.8 9.8 0 0 0 3.52-2.44 11.17 11.17 0 0 0 2.25-3.9c.53-1.54.8-3.28.8-5.21zm26.22-6.54V48H60.5c-.56 0-.9-.27-1.05-.81l-.31-2.4a12.45 12.45 0 0 1-3.26 2.6c-1.2.64-2.58.96-4.13.96-1.22 0-2.3-.2-3.24-.6a6.52 6.52 0 0 1-2.33-1.7 7.37 7.37 0 0 1-1.43-2.67c-.3-1.04-.46-2.2-.46-3.45V25.7h3.91v14.22c0 1.68.38 2.99 1.15 3.91.77.93 1.96 1.39 3.54 1.39 1.16 0 2.24-.27 3.23-.82a10.42 10.42 0 0 0 2.8-2.28V25.7h3.91zm8.61 4.47a9.94 9.94 0 0 1 2.6-3.56 5.64 5.64 0 0 1 3.76-1.3c.47 0 .92.05 1.34.15.44.1.83.27 1.17.49l-.3 2.92c-.09.37-.3.55-.66.55-.2 0-.5-.04-.9-.13a6.21 6.21 0 0 0-3.24.18 4.23 4.23 0 0 0-1.47.92c-.42.4-.81.9-1.17 1.5-.33.58-.64 1.26-.92 2.02V48H67.7V25.71h2.25c.42 0 .72.08.88.25.16.16.27.44.33.83l.26 3.39zm61.16-13.7L122.75 48h-3.82l-7.99-24.05a21.95 21.95 0 0 1-.42-1.58 38.36 38.36 0 0 1-.44 1.58L102.05 48h-3.83L88.4 16.47h3.54c.38 0 .7.1.95.29.26.2.43.43.5.73l6.52 21.9.28 1.28.29 1.46.3-1.46.38-1.27 7.41-21.91c.1-.25.26-.48.51-.69.27-.22.58-.33.95-.33h1.23c.38 0 .69.1.92.29a1.77 1.77 0 0 1 .53.73l7.4 21.9a28.4 28.4 0 0 1 .68 2.62 29.52 29.52 0 0 1 .52-2.61l6.54-21.91a1.31 1.31 0 0 1 .48-.7c.27-.21.58-.32.95-.32h3.32zm9.35 8.88c1.63 0 3.1.27 4.4.82a9.43 9.43 0 0 1 5.46 5.94c.5 1.4.74 2.98.74 4.73 0 1.76-.25 3.34-.74 4.75a9.43 9.43 0 0 1-5.46 5.92c-1.3.52-2.77.79-4.4.79-1.64 0-3.12-.27-4.44-.8a9.42 9.42 0 0 1-3.35-2.3c-.92-1-1.63-2.2-2.13-3.61-.49-1.41-.73-3-.73-4.75s.24-3.33.73-4.73c.5-1.43 1.2-2.64 2.13-3.63.93-1 2.04-1.77 3.35-2.31 1.32-.55 2.8-.82 4.44-.82zm0 19.89c2.2 0 3.84-.73 4.93-2.2 1.08-1.48 1.63-3.54 1.63-6.18 0-2.66-.55-4.72-1.63-6.2-1.09-1.49-2.73-2.23-4.93-2.23-1.12 0-2.09.2-2.93.57a5.71 5.71 0 0 0-2.06 1.65c-.55.72-.96 1.61-1.24 2.67-.26 1.04-.4 2.22-.4 3.54 0 2.64.55 4.7 1.64 6.18 1.1 1.47 2.76 2.2 4.99 2.2zm17.97-15.07a9.94 9.94 0 0 1 2.6-3.56 5.64 5.64 0 0 1 3.76-1.3c.47 0 .91.05 1.34.15.44.1.83.27 1.16.49l-.28 2.92c-.09.37-.31.55-.66.55-.2 0-.5-.04-.9-.13a6.2 6.2 0 0 0-3.24.18 4.23 4.23 0 0 0-1.47.92c-.43.4-.82.9-1.17 1.5a13.1 13.1 0 0 0-.92 2.02V48h-3.94V25.71h2.24c.43 0 .72.08.88.25.17.16.28.44.33.83l.27 3.39zm15.04-14.59V48h-3.92V15.6h3.92zm19.55 15.43a6.22 6.22 0 0 0-2.38-2.05 6.7 6.7 0 0 0-2.86-.6c-2.07 0-3.66.75-4.77 2.23-1.12 1.48-1.68 3.6-1.68 6.33 0 1.46.13 2.7.38 3.74a7.29 7.29 0 0 0 1.1 2.56 4.35 4.35 0 0 0 1.78 1.45c.7.3 1.5.46 2.4.46 1.29 0 2.41-.3 3.36-.88a9.6 9.6 0 0 0 2.67-2.49V31.02zm3.91-15.43V48h-2.33c-.56 0-.9-.27-1.06-.81l-.35-2.71a12.13 12.13 0 0 1-3.25 2.77 8.28 8.28 0 0 1-4.23 1.06 7.31 7.31 0 0 1-6.14-2.9c-.73-.96-1.3-2.15-1.69-3.57a18.35 18.35 0 0 1 .07-9.48 11.29 11.29 0 0 1 1.89-3.7 8.7 8.7 0 0 1 7.06-3.34 7.96 7.96 0 0 1 6.12 2.62V15.59h3.91zM46.61 70.71V93H42.7V70.71h3.91zm.84-7c0 .39-.08.75-.24 1.09-.15.32-.35.61-.62.88-.25.25-.55.44-.9.59a2.67 2.67 0 0 1-2.16 0 2.9 2.9 0 0 1-1.45-1.47 2.67 2.67 0 0 1 0-2.16c.15-.35.35-.65.6-.9.25-.27.53-.47.85-.62a2.67 2.67 0 0 1 2.16 0c.35.15.65.35.9.62.27.25.47.55.62.9.16.34.24.7.24 1.08zm7.97 10.24c.49-.54 1-1.04 1.54-1.48a9.85 9.85 0 0 1 3.66-1.84 8.96 8.96 0 0 1 5.43.35c.94.4 1.72.97 2.33 1.71.63.74 1.11 1.62 1.43 2.67.32 1.04.49 2.19.49 3.45V93h-3.94V78.81c0-1.69-.4-3-1.17-3.92-.76-.93-1.93-1.4-3.5-1.4-1.15 0-2.24.27-3.25.83-1 .56-1.92 1.31-2.77 2.27V93h-3.94V70.71h2.35c.56 0 .9.28 1.04.82l.3 2.42zm57.7 3.3c0 2.36-.37 4.5-1.11 6.44a14.3 14.3 0 0 1-3.17 4.98c-1.37 1.37-3 2.45-4.93 3.2-1.9.76-4.02 1.13-6.33 1.13H85.8V61.47h11.77c2.31 0 4.42.39 6.33 1.15a13.8 13.8 0 0 1 8.1 8.18 17.75 17.75 0 0 1 1.12 6.45zm-4.37 0c0-1.94-.26-3.67-.8-5.2a10.94 10.94 0 0 0-2.23-3.87 9.57 9.57 0 0 0-3.53-2.42 12.23 12.23 0 0 0-4.61-.83h-7.5v24.62h7.5c1.7 0 3.24-.28 4.61-.84a9.7 9.7 0 0 0 3.53-2.4 10.94 10.94 0 0 0 2.24-3.87c.53-1.53.8-3.26.8-5.2zm19.8 5.72c-1.8.06-3.34.2-4.62.44-1.26.22-2.3.51-3.1.88-.8.36-1.37.8-1.74 1.3-.35.5-.53 1.05-.53 1.67 0 .58.1 1.1.3 1.52a3 3 0 0 0 .76 1.05c.34.27.73.46 1.17.6a6.13 6.13 0 0 0 1.45.17 7.28 7.28 0 0 0 3.5-.81 11.95 11.95 0 0 0 2.82-2.2v-4.62zm-12.65-9.11a12.73 12.73 0 0 1 3.98-2.66c1.43-.59 3-.88 4.73-.88 1.25 0 2.36.2 3.33.61a6.81 6.81 0 0 1 3.94 4.38c.33 1.04.5 2.19.5 3.43V93h-1.74a1.8 1.8 0 0 1-.88-.18c-.2-.13-.36-.38-.48-.74l-.44-2.12-1.72 1.46a9.48 9.48 0 0 1-3.74 1.7c-.69.15-1.46.23-2.3.23-.87 0-1.69-.12-2.45-.35a5.34 5.34 0 0 1-3.34-2.93 6.64 6.64 0 0 1-.49-2.64c0-.88.25-1.72.73-2.53a6.33 6.33 0 0 1 2.35-2.17c1.09-.63 2.5-1.15 4.25-1.54 1.75-.41 3.89-.65 6.42-.7v-1.75c0-1.73-.37-3.03-1.12-3.91-.75-.9-1.84-1.34-3.28-1.34-.97 0-1.78.12-2.44.37-.64.23-1.2.5-1.7.81l-1.23.82c-.33.23-.67.35-1 .35-.27 0-.5-.07-.69-.2a2.1 2.1 0 0 1-.48-.53l-.7-1.25zm27.67 19.5c-1.76 0-3.12-.5-4.07-1.48-.94-.98-1.41-2.4-1.41-4.25V74h-2.68a.9.9 0 0 1-.6-.2c-.16-.14-.24-.36-.24-.66v-1.56l3.65-.46.9-6.89c.05-.22.14-.4.29-.52a.88.88 0 0 1 .62-.22H142v7.67h6.44V74H142v13.38c0 .94.22 1.63.68 2.09.45.45 1.04.68 1.76.68a3.21 3.21 0 0 0 1.85-.53l.55-.35c.16-.12.3-.18.41-.18.2 0 .4.13.55.38l1.15 1.87a7.45 7.45 0 0 1-2.44 1.5 8.53 8.53 0 0 1-2.95.52zm19.68-10.4c-1.8.07-3.34.21-4.62.45-1.26.22-2.3.51-3.1.88-.8.36-1.37.8-1.74 1.3-.35.5-.53 1.05-.53 1.67 0 .58.1 1.1.3 1.52a2.9 2.9 0 0 0 .76 1.05c.34.27.73.46 1.17.6a6.13 6.13 0 0 0 1.45.17 7.3 7.3 0 0 0 3.5-.81 12.04 12.04 0 0 0 2.82-2.2v-4.62zm-12.65-9.1a12.72 12.72 0 0 1 3.99-2.66c1.42-.59 3-.88 4.72-.88 1.25 0 2.36.2 3.33.61a6.81 6.81 0 0 1 3.94 4.38c.33 1.04.5 2.19.5 3.43V93h-1.74a1.8 1.8 0 0 1-.88-.18c-.2-.13-.36-.38-.48-.74l-.44-2.12-1.72 1.46a9.48 9.48 0 0 1-3.74 1.7c-.69.15-1.46.23-2.3.23-.87 0-1.69-.12-2.45-.35a5.33 5.33 0 0 1-3.34-2.93 6.62 6.62 0 0 1-.49-2.64c0-.88.25-1.72.73-2.53a6.33 6.33 0 0 1 2.35-2.17c1.09-.63 2.5-1.15 4.25-1.54 1.74-.41 3.89-.65 6.42-.7v-1.75c0-1.73-.37-3.03-1.12-3.91-.75-.9-1.84-1.34-3.28-1.34-.97 0-1.78.12-2.44.37-.64.23-1.2.5-1.7.81l-1.22.82c-.34.23-.68.35-1.02.35-.26 0-.49-.07-.68-.2a1.88 1.88 0 0 1-.48-.53l-.7-1.25z"
    fill="#fff"
  />
  <path fill="#D42B21" d="M0 106.79h210V120H0z" />
</g>
<defs>
  <clipPath id="clip0"><path fill="#fff" d="M0 0h210v120H0z" /></clipPath>
</defs>
</svg></g><a href="https://ourworldindata.org/explorers/coronavirus-data-explorer?zoomToSelection=true&amp;time=2020-03-01..latest&amp;facet=none&amp;pickerSort=desc&amp;pickerMetric=new_cases_smoothed_per_million&amp;Metric=Confirmed+deaths&amp;Interval=7-day+rolling+average&amp;Relative+to+Population=true&amp;Color+by+test+positivity=false&amp;country=~Europe" style="font-family:&quot;Playfair Display&quot;, Georgia, &quot;Times New Roman&quot;, serif" target="_blank" rel="noopener"><text font-size="25.20" x="15.0" y="36.9" fill="#555"><tspan x="15" y="36.924">Daily new confirmed COVID-19 deaths per million people</tspan></text></a><text x="15.0" y="58.2" style="font-size:14.4px;line-height:1.2" fill="#666"><tspan x="15" y="58.2">7-day rolling average. Due to varying protocols and challenges in the attribution of the cause of death, the number of</tspan><tspan x="15" y="75.4">confirmed deaths may not accurately represent the true number of deaths caused by COVID-19.</tspan></text></g><g class="LineChart"><defs><clipPath id="boundsClip-5"><rect x="19.072000000000003" y="84.76" width="840" height="471.38"></rect></clipPath></defs><rect x="15" y="94.76" width="820" height="451.38" fill="transparent"></rect><g class="DualAxisView"><g class="HorizontalAxis"><line x1="29.1" y1="524.94" x2="29.1" y2="529.94" stroke="#999"></line><line x1="756.3" y1="524.94" x2="756.3" y2="529.94" stroke="#999"></line><line x1="316.8" y1="524.94" x2="316.8" y2="529.94" stroke="#999"></line><line x1="476.6" y1="524.94" x2="476.6" y2="529.94" stroke="#999"></line><text x="29.072000000000003" y="546.14" fill="#666" text-anchor="start" font-size="16.2">Mar 1, 2020</text><text x="756.26" y="546.14" fill="#666" text-anchor="end" font-size="16.2">Aug 28, 2022</text><text x="316.8" y="546.14" fill="#666" text-anchor="middle" font-size="16.2">Feb 24, 2021</text><text x="476.6" y="546.14" fill="#666" text-anchor="middle" font-size="16.2">Sep 12, 2021</text></g><g class="VerticalAxis"><text x="24.07" y="524.9" dy=".32em" text-anchor="end" fill="#666" font-size="16.2">0</text><text x="24.07" y="468.5" dy=".32em" text-anchor="end" fill="#666" font-size="16.2">1</text><text x="24.07" y="412.1" dy=".32em" text-anchor="end" fill="#666" font-size="16.2">2</text><text x="24.07" y="355.7" dy=".32em" text-anchor="end" fill="#666" font-size="16.2">3</text><text x="24.07" y="299.3" dy=".32em" text-anchor="end" fill="#666" font-size="16.2">4</text><text x="24.07" y="242.9" dy=".32em" text-anchor="end" fill="#666" font-size="16.2">5</text><text x="24.07" y="186.5" dy=".32em" text-anchor="end" fill="#666" font-size="16.2">6</text><text x="24.07" y="130.1" dy=".32em" text-anchor="end" fill="#666" font-size="16.2">7</text></g><g class="AxisGridLines horizontalLines"><line x1="29.07" y1="524.9" x2="756.26" y2="524.9" stroke="#999"></line><line x1="29.07" y1="468.5" x2="756.26" y2="468.5" stroke="#ddd" stroke-dasharray="3,2"></line><line x1="29.07" y1="412.1" x2="756.26" y2="412.1" stroke="#ddd" stroke-dasharray="3,2"></line><line x1="29.07" y1="355.7" x2="756.26" y2="355.7" stroke="#ddd" stroke-dasharray="3,2"></line><line x1="29.07" y1="299.3" x2="756.26" y2="299.3" stroke="#ddd" stroke-dasharray="3,2"></line><line x1="29.07" y1="242.9" x2="756.26" y2="242.9" stroke="#ddd" stroke-dasharray="3,2"></line><line x1="29.07" y1="186.5" x2="756.26" y2="186.5" stroke="#ddd" stroke-dasharray="3,2"></line><line x1="29.07" y1="130.1" x2="756.26" y2="130.1" stroke="#ddd" stroke-dasharray="3,2"></line></g></g><g clip-path="url(#boundsClip-5)"><g class="LineLabels" style="cursor:default"><g class="legendMark"><rect x="756.26" y="472.35" width="78.74000000000001" height="13.5" fill="#fff" opacity="0"></rect><text font-size="13.50" font-weight="400" x="760.3" y="484.1" fill="#4c6a9c"><tspan x="760.26" y="484.095">Europe</tspan></text></g></g><g class="Lines"><rect x="29" y="95" width="727" height="430" fill="rgba(255,255,255,0)" opacity="0"></rect><g><path stroke-linecap="round" stroke-linejoin="round" stroke="#ddd" d="M29.1 524.6L29.9 524.4L30.7 524.2L31.5 523.9L32.3 523.4L33.1 522.8L33.9 522.4L34.7 520.8L35.5 519.8L36.3 518L37.1 515.7L37.9 513.9L38.7 510.3L39.5 507.7L40.3 503.7L41.1 499.3L41.9 494.5L42.7 489.7L43.5 482.6L44.3 473.1L45.1 459.9L45.9 449.9L46.7 437.2L47.5 423L48.3 404.7L49 387L49.8 370.3L50.6 354.3L51.4 338.2L52.2 320.8L53 302.5L53.8 279.4L54.6 262.1L55.4 243.5L56.2 229.4L57 221.5L57.8 214L58.6 196.9L59.4 199.2L60.2 189.4L61 187.7L61.8 190.4L62.6 189.7L63.4 193.2L64.2 208.2L65 198.8L65.8 204.2L66.6 207.4L67.4 214.3L68.2 220.6L69 225.4L69.8 228.2L70.6 244.5L71.4 256.8L72.2 268.3L73 273.3L73.8 282.6L74.6 290.1L75.4 301L76.2 308.8L77 319.4L77.8 333.7L78.6 339.5L79.4 347.4L80.2 355.3L81 360.9L81.8 367.1L82.6 372.2L83.4 372L84.2 381.8L85 385.6L85.8 390.9L86.6 395.1L87.4 404.1L88.2 406.1L89 412L89.8 415.6L90.6 414.7L91.4 417.6L92.2 424.9L93 428.3L93.8 436.2L94.6 434.6L95.4 437.2L96.2 443.4L97 447L97.8 444.2L98.6 448.2L99.4 450.1L100.2 457.8L101 459.3L101.8 461.4L102.6 463L103.4 468.3L104.2 469.5L105 471.7L105.8 473.9L106.6 475.9L107.4 476.6L108.2 477.1L109 478.4L109.8 479L110.6 480.4L111.4 482.2L112.2 483.9L113 484.7L113.8 486L114.6 486.4L115.4 486.9L116.2 486.6L117 487.7L117.8 487.9L118.6 489.2L119.4 490.3L120.2 490.8L121 492.7L121.8 494.4L122.6 493.8L123.4 494.5L124.2 494.3L125 494.3L125.8 495.1L126.6 494.9L127.4 494.5L128.2 495.2L129 495.3L129.8 495.4L130.6 495.2L131.4 495.4L132.2 495.7L133 495.8L133.8 496.1L134.6 496L135.4 496.5L136.2 497.1L137 497.9L137.8 497.9L138.5 498.4L139.3 498.6L140.1 499.6L140.9 500L141.7 500.3L142.5 500.4L143.3 501.1L144.1 501.4L144.9 501.8L145.7 501.7L146.5 501.5L147.3 501.6L148.1 501.9L148.9 501.6L149.7 501.8L150.5 501.4L151.3 501.7L152.1 501.7L152.9 501.1L153.7 500.7L154.5 500.9L155.3 500.9L156.1 501.5L156.9 500.7L157.7 500.8L158.5 500.3L159.3 500.5L160.1 500.9L160.9 500.6L161.7 500.3L162.5 498.7L163.3 498.8L164.1 499.6L164.9 499.5L165.7 498.3L166.5 498.4L167.3 498.5L168.1 500.4L168.9 500.3L169.7 500.2L170.5 499.6L171.3 500.5L172.1 500.1L172.9 500.1L173.7 500.3L174.5 500.3L175.3 499.4L176.1 499.1L176.9 498.7L177.7 498.6L178.5 496.8L179.3 496.1L180.1 496.1L180.9 496.5L181.7 496.3L182.5 496.1L183.3 495.9L184.1 496.7L184.9 496.6L185.7 496.1L186.5 495.7L187.3 493.7L188.1 490.6L188.9 488.4L189.7 485.9L190.5 485.2L191.3 484.8L192.1 483.7L192.9 482.1L193.7 482.4L194.5 482.7L195.3 482.4L196.1 480.4L196.9 479.6L197.7 478.4L198.5 480.3L199.3 477L200.1 475.1L200.9 473.6L201.7 473.4L202.5 472.5L203.3 471.8L204.1 466.4L204.9 467L205.7 465.4L206.5 462.8L207.3 460.9L208.1 458.3L208.9 455.3L209.7 454.9L210.5 450.7L211.3 446.5L212.1 442.3L212.9 438.4L213.7 435.3L214.5 431.4L215.3 424.3L216.1 419L216.9 413.4L217.7 407.3L218.5 401.1L219.3 397.4L220.1 389.1L220.9 379L221.7 371.6L222.5 362.9L223.3 351.6L224.1 342.3L224.9 333.8L225.7 326.6L226.5 308.4L227.3 284.7L228 273.6L228.8 258.8L229.6 250.5L230.4 244.3L231.2 233.4L232 228.5L232.8 226L233.6 219.4L234.4 214.3L235.2 208.6L236 202.1L236.8 199L237.6 191.2L238.4 187.3L239.2 181.3L240 172.7L240.8 168.9L241.6 167L242.4 163.2L243.2 158.9L244 157.9L244.8 152.9L245.6 150.8L246.4 148.1L247.2 147.3L248 148.3L248.8 151.4L249.6 151.8L250.4 148.4L251.2 151.7L252 151.7L252.8 151.3L253.6 155L254.4 160.6L255.2 160.6L256 164.6L256.8 161.7L257.6 161.3L258.4 159.9L259.2 159.6L260 152.2L260.8 144.8L261.6 144.6L262.4 144.6L263.2 143L264 146.2L264.8 146.2L265.6 147.3L266.4 151.2L267.2 154.3L268 176.1L268.8 192.2L269.6 193.4L270.4 193.2L271.2 187.7L272 180.8L272.8 175.9L273.6 171.7L274.4 170.7L275.2 170.5L276 169.7L276.8 166.4L277.6 176.4L278.4 176.6L279.2 157.6L280 139.5L280.8 133.2L281.6 129.3L282.4 129.8L283.2 120.3L284 111.3L284.8 107.5L285.6 103.9L286.4 103.4L287.2 102.8L288 101.4L288.8 95.2L289.6 94.8L290.4 96.6L291.2 98L292 100.6L292.8 99.1L293.6 101.1L294.4 109L295.2 112.8L296 114.1L296.8 120.3L297.6 123.2L298.4 126.7L299.2 129.9L300 133.5L300.8 145.9L301.6 146.9L302.4 153L303.2 159.5L304 162.5L304.8 170.7L305.6 178.4L306.4 178.2L307.2 192.7L308 198.6L308.8 202.8L309.6 210L310.4 220.8L311.2 231.3L312 240.7L312.8 246.3L313.6 251.4L314.4 255.3L315.2 262.3L316 267.2L316.8 271.5L317.5 277.5L318.3 282.5L319.1 284L319.9 285.1L320.7 285.9L321.5 290L322.3 289L323.1 288.8L323.9 287.6L324.7 289.1L325.5 290L326.3 289.2L327.1 291.1L327.9 293L328.7 292.2L329.5 296.6L330.3 294.6L331.1 293.6L331.9 292.7L332.7 289.8L333.5 289.2L334.3 291.2L335.1 290.8L335.9 291L336.7 289.5L337.5 284.9L338.3 281.8L339.1 281.7L339.9 272.7L340.7 260.2L341.5 258.8L342.3 259.3L343.1 262.9L343.9 263.6L344.7 259L345.5 262.2L346.3 270.7L347.1 267.5L347.9 264.9L348.7 267.7L349.5 276.3L350.3 270.4L351.1 264L351.9 255.6L352.7 254.2L353.5 254.2L354.3 249.9L355.1 239.9L355.9 242.9L356.7 248.9L357.5 256.6L358.3 259.6L359.1 261.7L359.9 262.7L360.7 265.8L361.5 269.7L362.3 272.3L363.1 274.6L363.9 275.9L364.7 277.5L365.5 281.5L366.3 283.5L367.1 288.7L367.9 293.1L368.7 299.3L369.5 304.2L370.3 309.3L371.1 315.6L371.9 326.9L372.7 334.2L373.5 337.7L374.3 340.2L375.1 342.3L375.9 342.1L376.7 344L377.5 344.2L378.3 347.6L379.1 354.2L379.9 360.8L380.7 366.5L381.5 370.5L382.3 374.3L383.1 378.3L383.9 383.3L384.7 387.9L385.5 392.5L386.3 396.5L387.1 398.5L387.9 402.7L388.7 406.7L389.5 409.7L390.3 412.1L391.1 415.4L391.9 417.6L392.7 419.6L393.5 420.4L394.3 424.9L395.1 429.6L395.9 433.1L396.7 435L397.5 437.5L398.3 438L399.1 439.7L399.9 437.5L400.7 438.8L401.5 439.3L402.3 441.1L403.1 442L403.9 444.4L404.7 445.7L405.5 450.5L406.3 452L407 454.8L407.8 456.1L408.6 456.7L409.4 456.2L410.2 455.6L411 456.3L411.8 456.9L412.6 456.1L413.4 454.7L414.2 452.3L415 450.4L415.8 449.1L416.6 446.4L417.4 445.2L418.2 445.6L419 446.5L419.8 448.8L420.6 449.1L421.4 448.5L422.2 451.3L423 452.4L423.8 452L424.6 452.5L425.4 452.1L426.2 451.4L427 451.8L427.8 451.2L428.6 451.9L429.4 452.3L430.2 452.1L431 451.9L431.8 451.2L432.6 450.9L433.4 451L434.2 450.9L435 450.3L435.8 449.6L436.6 448.9L437.4 448.7L438.2 448L439 447.4L439.8 446L440.6 445.9L441.4 445.1L442.2 444.6L443 444.1L443.8 442L444.6 440.7L445.4 440.1L446.2 438.8L447 438.2L447.8 438.1L448.6 437.8L449.4 437.6L450.2 437.5L451 436.9L451.8 436.4L452.6 435.5L453.4 434.7L454.2 433.8L455 432.4L455.8 430.5L456.6 428L457.4 426L458.2 424.8L459 423.4L459.8 422.1L460.6 419.8L461.4 417.5L462.2 416.5L463 414.9L463.8 413L464.6 412.4L465.4 411.4L466.2 411.3L467 410L467.8 409.8L468.6 409.1L469.4 408.1L470.2 407.6L471 407.1L471.8 406.1L472.6 405.5L473.4 403.7L474.2 403.3L475 403L475.8 402.5L476.6 403.1L477.4 403.2L478.2 401L479 400.3L479.8 399.6L480.6 398.7L481.4 397.6L482.2 396.9L483 395L483.8 395.7L484.6 394.9L485.4 393L486.2 391.8L487 391.5L487.8 391L488.6 390.5L489.4 389.3L490.2 387.1L491 386.5L491.8 385.3L492.6 382.9L493.4 380.7L494.2 379.1L495 375.5L495.8 372L496.6 369L497.3 365.3L498.1 362.7L498.9 360.7L499.7 358.2L500.5 356.1L501.3 352.7L502.1 349.3L502.9 348.5L503.7 346.2L504.5 343.6L505.3 341.2L506.1 336.2L506.9 334L507.7 330.5L508.5 324.5L509.3 318.5L510.1 314.5L510.9 310.7L511.7 305.9L512.5 298.4L513.3 293.7L514.1 289.1L514.9 286.6L515.7 284.2L516.5 281.9L517.3 280.7L518.1 277.7L518.9 271.9L519.7 268.4L520.5 263.1L521.3 262.5L522.1 257.4L522.9 252.2L523.7 247L524.5 246.5L525.3 246.1L526.1 244.7L526.9 243.8L527.7 242.5L528.5 240.1L529.3 237.7L530.1 235.1L530.9 231.4L531.7 231L532.5 232L533.3 230.1L534.1 230.4L534.9 232.6L535.7 231.3L536.5 231.1L537.3 232L538.1 229.9L538.9 231.6L539.7 231.1L540.5 230.5L541.3 231.5L542.1 229.7L542.9 229.2L543.7 233.3L544.5 233.1L545.3 233.7L546.1 233.6L546.9 232.8L547.7 233.4L548.5 234.6L549.3 234.1L550.1 237.5L550.9 236.4L551.7 238.5L552.5 240.6L553.3 244.5L554.1 245.6L554.9 247.4L555.7 249.1L556.5 255.9L557.3 259L558.1 262.8L558.9 270.4L559.7 276.7L560.5 281.1L561.3 283.7L562.1 284.7L562.9 285L563.7 285.5L564.5 285.2L565.3 288.3L566.1 290.4L566.9 294.2L567.7 296.2L568.5 298.8L569.3 302.4L570.1 307.8L570.9 309.4L571.7 308.7L572.5 307.6L573.3 306L574.1 305.7L574.9 306.2L575.7 301.2L576.5 298.1L577.3 297.4L578.1 295.3L578.9 295.6L579.7 302.2L580.5 301.8L581.3 303.9L582.1 307.1L582.9 307.8L583.7 307.6L584.5 308.1L585.3 306.7L586.1 308L586.8 306.1L587.6 305.4L588.4 305.1L589.2 302.6L590 303.8L590.8 299.4L591.6 296.9L592.4 296.3L593.2 294L594 292.6L594.8 288.8L595.6 280.5L596.4 281.1L597.2 274.9L598 269.8L598.8 268.1L599.6 268.3L600.4 266.5L601.2 271.7L602 263.5L602.8 265.2L603.6 265L604.4 266.5L605.2 267.6L606 275L606.8 272.5L607.6 279.9L608.4 286.3L609.2 294.2L610 298L610.8 298.5L611.6 306.3L612.4 312L613.2 319.2L614 323.9L614.8 324.8L615.6 326.3L616.4 330.4L617.2 332.3L618 340.8L618.8 345.5L619.6 350.7L620.4 357.7L621.2 362.2L622 364L622.8 369L623.6 372.5L624.4 375.5L625.2 378.7L626 379.1L626.8 381.8L627.6 383L628.4 383.9L629.2 385.1L630 387.9L630.8 389L631.6 389.1L632.4 390.4L633.2 393L634 394.7L634.8 400.6L635.6 400.9L636.4 396.3L637.2 401.8L638 401.8L638.8 401.5L639.6 402.8L640.4 400.1L641.2 401.2L642 407.6L642.8 405L643.6 409.7L644.4 411.2L645.2 408.1L646 411.7L646.8 415.1L647.6 416.5L648.4 426L649.2 427.6L650 428.9L650.8 438L651.6 437.7L652.4 431.6L653.2 432.9L654 429.8L654.8 430.5L655.6 432.2L656.4 427L657.2 430.9L658 437L658.8 437.4L659.6 439.3L660.4 441.1L661.2 441.4L662 443L662.8 443.7L663.6 450.8L664.4 453.6L665.2 455.1L666 455.9L666.8 456.7L667.6 456.1L668.4 458.6L669.2 459.5L670 462.8L670.8 463.2L671.6 464.5L672.4 465.7L673.2 467.9L674 467.9L674.8 468.6L675.6 470.3L676.3 474.8L677.1 472.5L677.9 473.5L678.7 475.4L679.5 478.6L680.3 478.5L681.1 480.4L681.9 479L682.7 483.1L683.5 483.4L684.3 484.1L685.1 485.6L685.9 486L686.7 486.1L687.5 486.6L688.3 486.9L689.1 487.2L689.9 490.9L690.7 487.9L691.5 489.5L692.3 490.1L693.1 491.5L693.9 491.2L694.7 491.2L695.5 482.8L696.3 483.1L697.1 484.7L697.9 486.1L698.7 486.2L699.5 486.8L700.3 486.9L701.1 490.8L701.9 493.6L702.7 492.7L703.5 491.7L704.3 491.3L705.1 491.3L705.9 490.8L706.7 492.5L707.5 491.7L708.3 491.5L709.1 491.6L709.9 490.6L710.7 490.1L711.5 489.8L712.3 489.4L713.1 486.5L713.9 485.6L714.7 483.5L715.5 479.9L716.3 479.5L717.1 479L717.9 476.3L718.7 475.9L719.5 474.1L720.3 474.9L721.1 476.2L721.9 476.1L722.7 475.6L723.5 473.7L724.3 469L725.1 466.6L725.9 465.5L726.7 461.8L727.5 461.5L728.3 461.8L729.1 463.3L729.9 465.2L730.7 463.5L731.5 461.1L732.3 462.7L733.1 462.7L733.9 462.7L734.7 463L735.5 462.1L736.3 464.6L737.1 464L737.9 463.7L738.7 463.3L739.5 463.6L740.3 463.4L741.1 459.5L741.9 460.7L742.7 461.8L743.5 463.6L744.3 464.5L745.1 465.2L745.9 470.2L746.7 473L747.5 473.5L748.3 473.2L749.1 474.5L749.9 475L750.7 475.1L751.5 472.9L752.3 475.9L753.1 478.1L753.9 478.4L754.7 479.2L755.5 479L756.3 479.1" fill="none" stroke-width="1"></path></g><g><path fill="none" stroke-linecap="butt" stroke-linejoin="round" stroke="#fff" stroke-width="2.5" d="M29.1 524.6L29.9 524.4L30.7 524.2L31.5 523.9L32.3 523.4L33.1 522.8L33.9 522.4L34.7 520.8L35.5 519.8L36.3 518L37.1 515.7L37.9 513.9L38.7 510.3L39.5 507.7L40.3 503.7L41.1 499.3L41.9 494.5L42.7 489.7L43.5 482.6L44.3 473.1L45.1 459.9L45.9 449.9L46.7 437.2L47.5 423L48.3 404.7L49 387L49.8 370.3L50.6 354.3L51.4 338.2L52.2 320.8L53 302.5L53.8 279.4L54.6 262.1L55.4 243.5L56.2 229.4L57 221.5L57.8 214L58.6 196.9L59.4 199.2L60.2 189.4L61 187.7L61.8 190.4L62.6 189.7L63.4 193.2L64.2 208.2L65 198.8L65.8 204.2L66.6 207.4L67.4 214.3L68.2 220.6L69 225.4L69.8 228.2L70.6 244.5L71.4 256.8L72.2 268.3L73 273.3L73.8 282.6L74.6 290.1L75.4 301L76.2 308.8L77 319.4L77.8 333.7L78.6 339.5L79.4 347.4L80.2 355.3L81 360.9L81.8 367.1L82.6 372.2L83.4 372L84.2 381.8L85 385.6L85.8 390.9L86.6 395.1L87.4 404.1L88.2 406.1L89 412L89.8 415.6L90.6 414.7L91.4 417.6L92.2 424.9L93 428.3L93.8 436.2L94.6 434.6L95.4 437.2L96.2 443.4L97 447L97.8 444.2L98.6 448.2L99.4 450.1L100.2 457.8L101 459.3L101.8 461.4L102.6 463L103.4 468.3L104.2 469.5L105 471.7L105.8 473.9L106.6 475.9L107.4 476.6L108.2 477.1L109 478.4L109.8 479L110.6 480.4L111.4 482.2L112.2 483.9L113 484.7L113.8 486L114.6 486.4L115.4 486.9L116.2 486.6L117 487.7L117.8 487.9L118.6 489.2L119.4 490.3L120.2 490.8L121 492.7L121.8 494.4L122.6 493.8L123.4 494.5L124.2 494.3L125 494.3L125.8 495.1L126.6 494.9L127.4 494.5L128.2 495.2L129 495.3L129.8 495.4L130.6 495.2L131.4 495.4L132.2 495.7L133 495.8L133.8 496.1L134.6 496L135.4 496.5L136.2 497.1L137 497.9L137.8 497.9L138.5 498.4L139.3 498.6L140.1 499.6L140.9 500L141.7 500.3L142.5 500.4L143.3 501.1L144.1 501.4L144.9 501.8L145.7 501.7L146.5 501.5L147.3 501.6L148.1 501.9L148.9 501.6L149.7 501.8L150.5 501.4L151.3 501.7L152.1 501.7L152.9 501.1L153.7 500.7L154.5 500.9L155.3 500.9L156.1 501.5L156.9 500.7L157.7 500.8L158.5 500.3L159.3 500.5L160.1 500.9L160.9 500.6L161.7 500.3L162.5 498.7L163.3 498.8L164.1 499.6L164.9 499.5L165.7 498.3L166.5 498.4L167.3 498.5L168.1 500.4L168.9 500.3L169.7 500.2L170.5 499.6L171.3 500.5L172.1 500.1L172.9 500.1L173.7 500.3L174.5 500.3L175.3 499.4L176.1 499.1L176.9 498.7L177.7 498.6L178.5 496.8L179.3 496.1L180.1 496.1L180.9 496.5L181.7 496.3L182.5 496.1L183.3 495.9L184.1 496.7L184.9 496.6L185.7 496.1L186.5 495.7L187.3 493.7L188.1 490.6L188.9 488.4L189.7 485.9L190.5 485.2L191.3 484.8L192.1 483.7L192.9 482.1L193.7 482.4L194.5 482.7L195.3 482.4L196.1 480.4L196.9 479.6L197.7 478.4L198.5 480.3L199.3 477L200.1 475.1L200.9 473.6L201.7 473.4L202.5 472.5L203.3 471.8L204.1 466.4L204.9 467L205.7 465.4L206.5 462.8L207.3 460.9L208.1 458.3L208.9 455.3L209.7 454.9L210.5 450.7L211.3 446.5L212.1 442.3L212.9 438.4L213.7 435.3L214.5 431.4L215.3 424.3L216.1 419L216.9 413.4L217.7 407.3L218.5 401.1L219.3 397.4L220.1 389.1L220.9 379L221.7 371.6L222.5 362.9L223.3 351.6L224.1 342.3L224.9 333.8L225.7 326.6L226.5 308.4L227.3 284.7L228 273.6L228.8 258.8L229.6 250.5L230.4 244.3L231.2 233.4L232 228.5L232.8 226L233.6 219.4L234.4 214.3L235.2 208.6L236 202.1L236.8 199L237.6 191.2L238.4 187.3L239.2 181.3L240 172.7L240.8 168.9L241.6 167L242.4 163.2L243.2 158.9L244 157.9L244.8 152.9L245.6 150.8L246.4 148.1L247.2 147.3L248 148.3L248.8 151.4L249.6 151.8L250.4 148.4L251.2 151.7L252 151.7L252.8 151.3L253.6 155L254.4 160.6L255.2 160.6L256 164.6L256.8 161.7L257.6 161.3L258.4 159.9L259.2 159.6L260 152.2L260.8 144.8L261.6 144.6L262.4 144.6L263.2 143L264 146.2L264.8 146.2L265.6 147.3L266.4 151.2L267.2 154.3L268 176.1L268.8 192.2L269.6 193.4L270.4 193.2L271.2 187.7L272 180.8L272.8 175.9L273.6 171.7L274.4 170.7L275.2 170.5L276 169.7L276.8 166.4L277.6 176.4L278.4 176.6L279.2 157.6L280 139.5L280.8 133.2L281.6 129.3L282.4 129.8L283.2 120.3L284 111.3L284.8 107.5L285.6 103.9L286.4 103.4L287.2 102.8L288 101.4L288.8 95.2L289.6 94.8L290.4 96.6L291.2 98L292 100.6L292.8 99.1L293.6 101.1L294.4 109L295.2 112.8L296 114.1L296.8 120.3L297.6 123.2L298.4 126.7L299.2 129.9L300 133.5L300.8 145.9L301.6 146.9L302.4 153L303.2 159.5L304 162.5L304.8 170.7L305.6 178.4L306.4 178.2L307.2 192.7L308 198.6L308.8 202.8L309.6 210L310.4 220.8L311.2 231.3L312 240.7L312.8 246.3L313.6 251.4L314.4 255.3L315.2 262.3L316 267.2L316.8 271.5L317.5 277.5L318.3 282.5L319.1 284L319.9 285.1L320.7 285.9L321.5 290L322.3 289L323.1 288.8L323.9 287.6L324.7 289.1L325.5 290L326.3 289.2L327.1 291.1L327.9 293L328.7 292.2L329.5 296.6L330.3 294.6L331.1 293.6L331.9 292.7L332.7 289.8L333.5 289.2L334.3 291.2L335.1 290.8L335.9 291L336.7 289.5L337.5 284.9L338.3 281.8L339.1 281.7L339.9 272.7L340.7 260.2L341.5 258.8L342.3 259.3L343.1 262.9L343.9 263.6L344.7 259L345.5 262.2L346.3 270.7L347.1 267.5L347.9 264.9L348.7 267.7L349.5 276.3L350.3 270.4L351.1 264L351.9 255.6L352.7 254.2L353.5 254.2L354.3 249.9L355.1 239.9L355.9 242.9L356.7 248.9L357.5 256.6L358.3 259.6L359.1 261.7L359.9 262.7L360.7 265.8L361.5 269.7L362.3 272.3L363.1 274.6L363.9 275.9L364.7 277.5L365.5 281.5L366.3 283.5L367.1 288.7L367.9 293.1L368.7 299.3L369.5 304.2L370.3 309.3L371.1 315.6L371.9 326.9L372.7 334.2L373.5 337.7L374.3 340.2L375.1 342.3L375.9 342.1L376.7 344L377.5 344.2L378.3 347.6L379.1 354.2L379.9 360.8L380.7 366.5L381.5 370.5L382.3 374.3L383.1 378.3L383.9 383.3L384.7 387.9L385.5 392.5L386.3 396.5L387.1 398.5L387.9 402.7L388.7 406.7L389.5 409.7L390.3 412.1L391.1 415.4L391.9 417.6L392.7 419.6L393.5 420.4L394.3 424.9L395.1 429.6L395.9 433.1L396.7 435L397.5 437.5L398.3 438L399.1 439.7L399.9 437.5L400.7 438.8L401.5 439.3L402.3 441.1L403.1 442L403.9 444.4L404.7 445.7L405.5 450.5L406.3 452L407 454.8L407.8 456.1L408.6 456.7L409.4 456.2L410.2 455.6L411 456.3L411.8 456.9L412.6 456.1L413.4 454.7L414.2 452.3L415 450.4L415.8 449.1L416.6 446.4L417.4 445.2L418.2 445.6L419 446.5L419.8 448.8L420.6 449.1L421.4 448.5L422.2 451.3L423 452.4L423.8 452L424.6 452.5L425.4 452.1L426.2 451.4L427 451.8L427.8 451.2L428.6 451.9L429.4 452.3L430.2 452.1L431 451.9L431.8 451.2L432.6 450.9L433.4 451L434.2 450.9L435 450.3L435.8 449.6L436.6 448.9L437.4 448.7L438.2 448L439 447.4L439.8 446L440.6 445.9L441.4 445.1L442.2 444.6L443 444.1L443.8 442L444.6 440.7L445.4 440.1L446.2 438.8L447 438.2L447.8 438.1L448.6 437.8L449.4 437.6L450.2 437.5L451 436.9L451.8 436.4L452.6 435.5L453.4 434.7L454.2 433.8L455 432.4L455.8 430.5L456.6 428L457.4 426L458.2 424.8L459 423.4L459.8 422.1L460.6 419.8L461.4 417.5L462.2 416.5L463 414.9L463.8 413L464.6 412.4L465.4 411.4L466.2 411.3L467 410L467.8 409.8L468.6 409.1L469.4 408.1L470.2 407.6L471 407.1L471.8 406.1L472.6 405.5L473.4 403.7L474.2 403.3L475 403L475.8 402.5L476.6 403.1L477.4 403.2L478.2 401L479 400.3L479.8 399.6L480.6 398.7L481.4 397.6L482.2 396.9L483 395L483.8 395.7L484.6 394.9L485.4 393L486.2 391.8L487 391.5L487.8 391L488.6 390.5L489.4 389.3L490.2 387.1L491 386.5L491.8 385.3L492.6 382.9L493.4 380.7L494.2 379.1L495 375.5L495.8 372L496.6 369L497.3 365.3L498.1 362.7L498.9 360.7L499.7 358.2L500.5 356.1L501.3 352.7L502.1 349.3L502.9 348.5L503.7 346.2L504.5 343.6L505.3 341.2L506.1 336.2L506.9 334L507.7 330.5L508.5 324.5L509.3 318.5L510.1 314.5L510.9 310.7L511.7 305.9L512.5 298.4L513.3 293.7L514.1 289.1L514.9 286.6L515.7 284.2L516.5 281.9L517.3 280.7L518.1 277.7L518.9 271.9L519.7 268.4L520.5 263.1L521.3 262.5L522.1 257.4L522.9 252.2L523.7 247L524.5 246.5L525.3 246.1L526.1 244.7L526.9 243.8L527.7 242.5L528.5 240.1L529.3 237.7L530.1 235.1L530.9 231.4L531.7 231L532.5 232L533.3 230.1L534.1 230.4L534.9 232.6L535.7 231.3L536.5 231.1L537.3 232L538.1 229.9L538.9 231.6L539.7 231.1L540.5 230.5L541.3 231.5L542.1 229.7L542.9 229.2L543.7 233.3L544.5 233.1L545.3 233.7L546.1 233.6L546.9 232.8L547.7 233.4L548.5 234.6L549.3 234.1L550.1 237.5L550.9 236.4L551.7 238.5L552.5 240.6L553.3 244.5L554.1 245.6L554.9 247.4L555.7 249.1L556.5 255.9L557.3 259L558.1 262.8L558.9 270.4L559.7 276.7L560.5 281.1L561.3 283.7L562.1 284.7L562.9 285L563.7 285.5L564.5 285.2L565.3 288.3L566.1 290.4L566.9 294.2L567.7 296.2L568.5 298.8L569.3 302.4L570.1 307.8L570.9 309.4L571.7 308.7L572.5 307.6L573.3 306L574.1 305.7L574.9 306.2L575.7 301.2L576.5 298.1L577.3 297.4L578.1 295.3L578.9 295.6L579.7 302.2L580.5 301.8L581.3 303.9L582.1 307.1L582.9 307.8L583.7 307.6L584.5 308.1L585.3 306.7L586.1 308L586.8 306.1L587.6 305.4L588.4 305.1L589.2 302.6L590 303.8L590.8 299.4L591.6 296.9L592.4 296.3L593.2 294L594 292.6L594.8 288.8L595.6 280.5L596.4 281.1L597.2 274.9L598 269.8L598.8 268.1L599.6 268.3L600.4 266.5L601.2 271.7L602 263.5L602.8 265.2L603.6 265L604.4 266.5L605.2 267.6L606 275L606.8 272.5L607.6 279.9L608.4 286.3L609.2 294.2L610 298L610.8 298.5L611.6 306.3L612.4 312L613.2 319.2L614 323.9L614.8 324.8L615.6 326.3L616.4 330.4L617.2 332.3L618 340.8L618.8 345.5L619.6 350.7L620.4 357.7L621.2 362.2L622 364L622.8 369L623.6 372.5L624.4 375.5L625.2 378.7L626 379.1L626.8 381.8L627.6 383L628.4 383.9L629.2 385.1L630 387.9L630.8 389L631.6 389.1L632.4 390.4L633.2 393L634 394.7L634.8 400.6L635.6 400.9L636.4 396.3L637.2 401.8L638 401.8L638.8 401.5L639.6 402.8L640.4 400.1L641.2 401.2L642 407.6L642.8 405L643.6 409.7L644.4 411.2L645.2 408.1L646 411.7L646.8 415.1L647.6 416.5L648.4 426L649.2 427.6L650 428.9L650.8 438L651.6 437.7L652.4 431.6L653.2 432.9L654 429.8L654.8 430.5L655.6 432.2L656.4 427L657.2 430.9L658 437L658.8 437.4L659.6 439.3L660.4 441.1L661.2 441.4L662 443L662.8 443.7L663.6 450.8L664.4 453.6L665.2 455.1L666 455.9L666.8 456.7L667.6 456.1L668.4 458.6L669.2 459.5L670 462.8L670.8 463.2L671.6 464.5L672.4 465.7L673.2 467.9L674 467.9L674.8 468.6L675.6 470.3L676.3 474.8L677.1 472.5L677.9 473.5L678.7 475.4L679.5 478.6L680.3 478.5L681.1 480.4L681.9 479L682.7 483.1L683.5 483.4L684.3 484.1L685.1 485.6L685.9 486L686.7 486.1L687.5 486.6L688.3 486.9L689.1 487.2L689.9 490.9L690.7 487.9L691.5 489.5L692.3 490.1L693.1 491.5L693.9 491.2L694.7 491.2L695.5 482.8L696.3 483.1L697.1 484.7L697.9 486.1L698.7 486.2L699.5 486.8L700.3 486.9L701.1 490.8L701.9 493.6L702.7 492.7L703.5 491.7L704.3 491.3L705.1 491.3L705.9 490.8L706.7 492.5L707.5 491.7L708.3 491.5L709.1 491.6L709.9 490.6L710.7 490.1L711.5 489.8L712.3 489.4L713.1 486.5L713.9 485.6L714.7 483.5L715.5 479.9L716.3 479.5L717.1 479L717.9 476.3L718.7 475.9L719.5 474.1L720.3 474.9L721.1 476.2L721.9 476.1L722.7 475.6L723.5 473.7L724.3 469L725.1 466.6L725.9 465.5L726.7 461.8L727.5 461.5L728.3 461.8L729.1 463.3L729.9 465.2L730.7 463.5L731.5 461.1L732.3 462.7L733.1 462.7L733.9 462.7L734.7 463L735.5 462.1L736.3 464.6L737.1 464L737.9 463.7L738.7 463.3L739.5 463.6L740.3 463.4L741.1 459.5L741.9 460.7L742.7 461.8L743.5 463.6L744.3 464.5L745.1 465.2L745.9 470.2L746.7 473L747.5 473.5L748.3 473.2L749.1 474.5L749.9 475L750.7 475.1L751.5 472.9L752.3 475.9L753.1 478.1L753.9 478.4L754.7 479.2L755.5 479L756.3 479.1"></path><polyline points="29.10,524.60 29.90,524.40 30.70,524.20 31.50,523.90 32.30,523.40 33.10,522.80 33.90,522.40 34.70,520.80 35.50,519.80 36.30,518.00 37.10,515.70 37.90,513.90 38.70,510.30 39.50,507.70 40.30,503.70 41.10,499.30 41.90,494.50 42.70,489.70 43.50,482.60 44.30,473.10 45.10,459.90 45.90,449.90 46.70,437.20 47.50,423.00 48.30,404.70 49.00,387.00 49.80,370.30 50.60,354.30 51.40,338.20 52.20,320.80 53.00,302.50 53.80,279.40 54.60,262.10 55.40,243.50 56.20,229.40 57.00,221.50 57.80,214.00 58.60,196.90 59.40,199.20 60.20,189.40 61.00,187.70 61.80,190.40 62.60,189.70 63.40,193.20 64.20,208.20 65.00,198.80 65.80,204.20 66.60,207.40 67.40,214.30 68.20,220.60 69.00,225.40 69.80,228.20 70.60,244.50 71.40,256.80 72.20,268.30 73.00,273.30 73.80,282.60 74.60,290.10 75.40,301.00 76.20,308.80 77.00,319.40 77.80,333.70 78.60,339.50 79.40,347.40 80.20,355.30 81.00,360.90 81.80,367.10 82.60,372.20 83.40,372.00 84.20,381.80 85.00,385.60 85.80,390.90 86.60,395.10 87.40,404.10 88.20,406.10 89.00,412.00 89.80,415.60 90.60,414.70 91.40,417.60 92.20,424.90 93.00,428.30 93.80,436.20 94.60,434.60 95.40,437.20 96.20,443.40 97.00,447.00 97.80,444.20 98.60,448.20 99.40,450.10 100.20,457.80 101.00,459.30 101.80,461.40 102.60,463.00 103.40,468.30 104.20,469.50 105.00,471.70 105.80,473.90 106.60,475.90 107.40,476.60 108.20,477.10 109.00,478.40 109.80,479.00 110.60,480.40 111.40,482.20 112.20,483.90 113.00,484.70 113.80,486.00 114.60,486.40 115.40,486.90 116.20,486.60 117.00,487.70 117.80,487.90 118.60,489.20 119.40,490.30 120.20,490.80 121.00,492.70 121.80,494.40 122.60,493.80 123.40,494.50 124.20,494.30 125.00,494.30 125.80,495.10 126.60,494.90 127.40,494.50 128.20,495.20 129.00,495.30 129.80,495.40 130.60,495.20 131.40,495.40 132.20,495.70 133.00,495.80 133.80,496.10 134.60,496.00 135.40,496.50 136.20,497.10 137.00,497.90 137.80,497.90 138.50,498.40 139.30,498.60 140.10,499.60 140.90,500.00 141.70,500.30 142.50,500.40 143.30,501.10 144.10,501.40 144.90,501.80 145.70,501.70 146.50,501.50 147.30,501.60 148.10,501.90 148.90,501.60 149.70,501.80 150.50,501.40 151.30,501.70 152.10,501.70 152.90,501.10 153.70,500.70 154.50,500.90 155.30,500.90 156.10,501.50 156.90,500.70 157.70,500.80 158.50,500.30 159.30,500.50 160.10,500.90 160.90,500.60 161.70,500.30 162.50,498.70 163.30,498.80 164.10,499.60 164.90,499.50 165.70,498.30 166.50,498.40 167.30,498.50 168.10,500.40 168.90,500.30 169.70,500.20 170.50,499.60 171.30,500.50 172.10,500.10 172.90,500.10 173.70,500.30 174.50,500.30 175.30,499.40 176.10,499.10 176.90,498.70 177.70,498.60 178.50,496.80 179.30,496.10 180.10,496.10 180.90,496.50 181.70,496.30 182.50,496.10 183.30,495.90 184.10,496.70 184.90,496.60 185.70,496.10 186.50,495.70 187.30,493.70 188.10,490.60 188.90,488.40 189.70,485.90 190.50,485.20 191.30,484.80 192.10,483.70 192.90,482.10 193.70,482.40 194.50,482.70 195.30,482.40 196.10,480.40 196.90,479.60 197.70,478.40 198.50,480.30 199.30,477.00 200.10,475.10 200.90,473.60 201.70,473.40 202.50,472.50 203.30,471.80 204.10,466.40 204.90,467.00 205.70,465.40 206.50,462.80 207.30,460.90 208.10,458.30 208.90,455.30 209.70,454.90 210.50,450.70 211.30,446.50 212.10,442.30 212.90,438.40 213.70,435.30 214.50,431.40 215.30,424.30 216.10,419.00 216.90,413.40 217.70,407.30 218.50,401.10 219.30,397.40 220.10,389.10 220.90,379.00 221.70,371.60 222.50,362.90 223.30,351.60 224.10,342.30 224.90,333.80 225.70,326.60 226.50,308.40 227.30,284.70 228.00,273.60 228.80,258.80 229.60,250.50 230.40,244.30 231.20,233.40 232.00,228.50 232.80,226.00 233.60,219.40 234.40,214.30 235.20,208.60 236.00,202.10 236.80,199.00 237.60,191.20 238.40,187.30 239.20,181.30 240.00,172.70 240.80,168.90 241.60,167.00 242.40,163.20 243.20,158.90 244.00,157.90 244.80,152.90 245.60,150.80 246.40,148.10 247.20,147.30 248.00,148.30 248.80,151.40 249.60,151.80 250.40,148.40 251.20,151.70 252.00,151.70 252.80,151.30 253.60,155.00 254.40,160.60 255.20,160.60 256.00,164.60 256.80,161.70 257.60,161.30 258.40,159.90 259.20,159.60 260.00,152.20 260.80,144.80 261.60,144.60 262.40,144.60 263.20,143.00 264.00,146.20 264.80,146.20 265.60,147.30 266.40,151.20 267.20,154.30 268.00,176.10 268.80,192.20 269.60,193.40 270.40,193.20 271.20,187.70 272.00,180.80 272.80,175.90 273.60,171.70 274.40,170.70 275.20,170.50 276.00,169.70 276.80,166.40 277.60,176.40 278.40,176.60 279.20,157.60 280.00,139.50 280.80,133.20 281.60,129.30 282.40,129.80 283.20,120.30 284.00,111.30 284.80,107.50 285.60,103.90 286.40,103.40 287.20,102.80 288.00,101.40 288.80,95.20 289.60,94.80 290.40,96.60 291.20,98.00 292.00,100.60 292.80,99.10 293.60,101.10 294.40,109.00 295.20,112.80 296.00,114.10 296.80,120.30 297.60,123.20 298.40,126.70 299.20,129.90 300.00,133.50 300.80,145.90 301.60,146.90 302.40,153.00 303.20,159.50 304.00,162.50 304.80,170.70 305.60,178.40 306.40,178.20 307.20,192.70 308.00,198.60 308.80,202.80 309.60,210.00 310.40,220.80 311.20,231.30 312.00,240.70 312.80,246.30 313.60,251.40 314.40,255.30 315.20,262.30 316.00,267.20 316.80,271.50 317.50,277.50 318.30,282.50 319.10,284.00 319.90,285.10 320.70,285.90 321.50,290.00 322.30,289.00 323.10,288.80 323.90,287.60 324.70,289.10 325.50,290.00 326.30,289.20 327.10,291.10 327.90,293.00 328.70,292.20 329.50,296.60 330.30,294.60 331.10,293.60 331.90,292.70 332.70,289.80 333.50,289.20 334.30,291.20 335.10,290.80 335.90,291.00 336.70,289.50 337.50,284.90 338.30,281.80 339.10,281.70 339.90,272.70 340.70,260.20 341.50,258.80 342.30,259.30 343.10,262.90 343.90,263.60 344.70,259.00 345.50,262.20 346.30,270.70 347.10,267.50 347.90,264.90 348.70,267.70 349.50,276.30 350.30,270.40 351.10,264.00 351.90,255.60 352.70,254.20 353.50,254.20 354.30,249.90 355.10,239.90 355.90,242.90 356.70,248.90 357.50,256.60 358.30,259.60 359.10,261.70 359.90,262.70 360.70,265.80 361.50,269.70 362.30,272.30 363.10,274.60 363.90,275.90 364.70,277.50 365.50,281.50 366.30,283.50 367.10,288.70 367.90,293.10 368.70,299.30 369.50,304.20 370.30,309.30 371.10,315.60 371.90,326.90 372.70,334.20 373.50,337.70 374.30,340.20 375.10,342.30 375.90,342.10 376.70,344.00 377.50,344.20 378.30,347.60 379.10,354.20 379.90,360.80 380.70,366.50 381.50,370.50 382.30,374.30 383.10,378.30 383.90,383.30 384.70,387.90 385.50,392.50 386.30,396.50 387.10,398.50 387.90,402.70 388.70,406.70 389.50,409.70 390.30,412.10 391.10,415.40 391.90,417.60 392.70,419.60 393.50,420.40 394.30,424.90 395.10,429.60 395.90,433.10 396.70,435.00 397.50,437.50 398.30,438.00 399.10,439.70 399.90,437.50 400.70,438.80 401.50,439.30 402.30,441.10 403.10,442.00 403.90,444.40 404.70,445.70 405.50,450.50 406.30,452.00 407.00,454.80 407.80,456.10 408.60,456.70 409.40,456.20 410.20,455.60 411.00,456.30 411.80,456.90 412.60,456.10 413.40,454.70 414.20,452.30 415.00,450.40 415.80,449.10 416.60,446.40 417.40,445.20 418.20,445.60 419.00,446.50 419.80,448.80 420.60,449.10 421.40,448.50 422.20,451.30 423.00,452.40 423.80,452.00 424.60,452.50 425.40,452.10 426.20,451.40 427.00,451.80 427.80,451.20 428.60,451.90 429.40,452.30 430.20,452.10 431.00,451.90 431.80,451.20 432.60,450.90 433.40,451.00 434.20,450.90 435.00,450.30 435.80,449.60 436.60,448.90 437.40,448.70 438.20,448.00 439.00,447.40 439.80,446.00 440.60,445.90 441.40,445.10 442.20,444.60 443.00,444.10 443.80,442.00 444.60,440.70 445.40,440.10 446.20,438.80 447.00,438.20 447.80,438.10 448.60,437.80 449.40,437.60 450.20,437.50 451.00,436.90 451.80,436.40 452.60,435.50 453.40,434.70 454.20,433.80 455.00,432.40 455.80,430.50 456.60,428.00 457.40,426.00 458.20,424.80 459.00,423.40 459.80,422.10 460.60,419.80 461.40,417.50 462.20,416.50 463.00,414.90 463.80,413.00 464.60,412.40 465.40,411.40 466.20,411.30 467.00,410.00 467.80,409.80 468.60,409.10 469.40,408.10 470.20,407.60 471.00,407.10 471.80,406.10 472.60,405.50 473.40,403.70 474.20,403.30 475.00,403.00 475.80,402.50 476.60,403.10 477.40,403.20 478.20,401.00 479.00,400.30 479.80,399.60 480.60,398.70 481.40,397.60 482.20,396.90 483.00,395.00 483.80,395.70 484.60,394.90 485.40,393.00 486.20,391.80 487.00,391.50 487.80,391.00 488.60,390.50 489.40,389.30 490.20,387.10 491.00,386.50 491.80,385.30 492.60,382.90 493.40,380.70 494.20,379.10 495.00,375.50 495.80,372.00 496.60,369.00 497.30,365.30 498.10,362.70 498.90,360.70 499.70,358.20 500.50,356.10 501.30,352.70 502.10,349.30 502.90,348.50 503.70,346.20 504.50,343.60 505.30,341.20 506.10,336.20 506.90,334.00 507.70,330.50 508.50,324.50 509.30,318.50 510.10,314.50 510.90,310.70 511.70,305.90 512.50,298.40 513.30,293.70 514.10,289.10 514.90,286.60 515.70,284.20 516.50,281.90 517.30,280.70 518.10,277.70 518.90,271.90 519.70,268.40 520.50,263.10 521.30,262.50 522.10,257.40 522.90,252.20 523.70,247.00 524.50,246.50 525.30,246.10 526.10,244.70 526.90,243.80 527.70,242.50 528.50,240.10 529.30,237.70 530.10,235.10 530.90,231.40 531.70,231.00 532.50,232.00 533.30,230.10 534.10,230.40 534.90,232.60 535.70,231.30 536.50,231.10 537.30,232.00 538.10,229.90 538.90,231.60 539.70,231.10 540.50,230.50 541.30,231.50 542.10,229.70 542.90,229.20 543.70,233.30 544.50,233.10 545.30,233.70 546.10,233.60 546.90,232.80 547.70,233.40 548.50,234.60 549.30,234.10 550.10,237.50 550.90,236.40 551.70,238.50 552.50,240.60 553.30,244.50 554.10,245.60 554.90,247.40 555.70,249.10 556.50,255.90 557.30,259.00 558.10,262.80 558.90,270.40 559.70,276.70 560.50,281.10 561.30,283.70 562.10,284.70 562.90,285.00 563.70,285.50 564.50,285.20 565.30,288.30 566.10,290.40 566.90,294.20 567.70,296.20 568.50,298.80 569.30,302.40 570.10,307.80 570.90,309.40 571.70,308.70 572.50,307.60 573.30,306.00 574.10,305.70 574.90,306.20 575.70,301.20 576.50,298.10 577.30,297.40 578.10,295.30 578.90,295.60 579.70,302.20 580.50,301.80 581.30,303.90 582.10,307.10 582.90,307.80 583.70,307.60 584.50,308.10 585.30,306.70 586.10,308.00 586.80,306.10 587.60,305.40 588.40,305.10 589.20,302.60 590.00,303.80 590.80,299.40 591.60,296.90 592.40,296.30 593.20,294.00 594.00,292.60 594.80,288.80 595.60,280.50 596.40,281.10 597.20,274.90 598.00,269.80 598.80,268.10 599.60,268.30 600.40,266.50 601.20,271.70 602.00,263.50 602.80,265.20 603.60,265.00 604.40,266.50 605.20,267.60 606.00,275.00 606.80,272.50 607.60,279.90 608.40,286.30 609.20,294.20 610.00,298.00 610.80,298.50 611.60,306.30 612.40,312.00 613.20,319.20 614.00,323.90 614.80,324.80 615.60,326.30 616.40,330.40 617.20,332.30 618.00,340.80 618.80,345.50 619.60,350.70 620.40,357.70 621.20,362.20 622.00,364.00 622.80,369.00 623.60,372.50 624.40,375.50 625.20,378.70 626.00,379.10 626.80,381.80 627.60,383.00 628.40,383.90 629.20,385.10 630.00,387.90 630.80,389.00 631.60,389.10 632.40,390.40 633.20,393.00 634.00,394.70 634.80,400.60 635.60,400.90 636.40,396.30 637.20,401.80 638.00,401.80 638.80,401.50 639.60,402.80 640.40,400.10 641.20,401.20 642.00,407.60 642.80,405.00 643.60,409.70 644.40,411.20 645.20,408.10 646.00,411.70 646.80,415.10 647.60,416.50 648.40,426.00 649.20,427.60 650.00,428.90 650.80,438.00 651.60,437.70 652.40,431.60 653.20,432.90 654.00,429.80 654.80,430.50 655.60,432.20 656.40,427.00 657.20,430.90 658.00,437.00 658.80,437.40 659.60,439.30 660.40,441.10 661.20,441.40 662.00,443.00 662.80,443.70 663.60,450.80 664.40,453.60 665.20,455.10 666.00,455.90 666.80,456.70 667.60,456.10 668.40,458.60 669.20,459.50 670.00,462.80 670.80,463.20 671.60,464.50 672.40,465.70 673.20,467.90 674.00,467.90 674.80,468.60 675.60,470.30 676.30,474.80 677.10,472.50 677.90,473.50 678.70,475.40 679.50,478.60 680.30,478.50 681.10,480.40 681.90,479.00 682.70,483.10 683.50,483.40 684.30,484.10 685.10,485.60 685.90,486.00 686.70,486.10 687.50,486.60 688.30,486.90 689.10,487.20 689.90,490.90 690.70,487.90 691.50,489.50 692.30,490.10 693.10,491.50 693.90,491.20 694.70,491.20 695.50,482.80 696.30,483.10 697.10,484.70 697.90,486.10 698.70,486.20 699.50,486.80 700.30,486.90 701.10,490.80 701.90,493.60 702.70,492.70 703.50,491.70 704.30,491.30 705.10,491.30 705.90,490.80 706.70,492.50 707.50,491.70 708.30,491.50 709.10,491.60 709.90,490.60 710.70,490.10 711.50,489.80 712.30,489.40 713.10,486.50 713.90,485.60 714.70,483.50 715.50,479.90 716.30,479.50 717.10,479.00 717.90,476.30 718.70,475.90 719.50,474.10 720.30,474.90 721.10,476.20 721.90,476.10 722.70,475.60 723.50,473.70 724.30,469.00 725.10,466.60 725.90,465.50 726.70,461.80 727.50,461.50 728.30,461.80 729.10,463.30 729.90,465.20 730.70,463.50 731.50,461.10 732.30,462.70 733.10,462.70 733.90,462.70 734.70,463.00 735.50,462.10 736.30,464.60 737.10,464.00 737.90,463.70 738.70,463.30 739.50,463.60 740.30,463.40 741.10,459.50 741.90,460.70 742.70,461.80 743.50,463.60 744.30,464.50 745.10,465.20 745.90,470.20 746.70,473.00 747.50,473.50 748.30,473.20 749.10,474.50 749.90,475.00 750.70,475.10 751.50,472.90 752.30,475.90 753.10,478.10 753.90,478.40 754.70,479.20 755.50,479.00 756.30,479.10" stroke-linejoin="round" stroke-width="1.5" stroke="#4C6A9C" fill="none" stroke-linecap="butt"></polyline></g></g></g></g><g class="SourcesFooter" style="fill:#777"><g style="fill:#777"><text font-size="12.60" x="15.0" y="582.7"><tspan x="15" y="582.732">Source: Johns Hopkins University CSSE COVID-19 Data</tspan></text></g><text font-size="12.60" x="796.4" y="582.7"><tspan x="796.444" y="582.732"><a style="fill: #777;" class="cclogo" href="http://creativecommons.org/licenses/by/4.0/deed.en_US" target="_blank">CC BY</a></tspan></text></g></svg>